<?xml version="1.0" standalone="no"?>
<!DOCTYPE svg PUBLIC "-//W3C//DTD SVG 1.1//EN" "http://www.w3.org/Graphics/SVG/1.1/DTD/svg11.dtd" >
<svg>
<metadata>
Created by FontForge 20090914 at Fri Aug  4 17:16:15 2017
 By www-data
Thiet ke boi HungLan Design 2015
</metadata>
<defs>
<font id="HL-Comic1unicode-Normal" horiz-adv-x="1447" >
  <font-face 
    font-family="HL-Comic1unicode"
    font-weight="400"
    font-stretch="normal"
    units-per-em="2048"
    panose-1="2 4 6 3 5 5 6 2 2 4"
    ascent="1638"
    descent="-410"
    x-height="1214"
    cap-height="1346"
    bbox="-92.002 -377.003 1749 2108"
    underline-thickness="109"
    underline-position="-143"
    unicode-range="U+0020-U+2026"
  />
<missing-glyph horiz-adv-x="571" 
 />
    <glyph glyph-name=".notdef" horiz-adv-x="571" 
 />
    <glyph glyph-name="space" unicode=" " horiz-adv-x="704" 
 />
    <glyph glyph-name="exclam" unicode="!" horiz-adv-x="704" 
d="M476 1176v-687.999c16 -18 24 -36.667 24 -56c0 -13.333 -4 -25.5 -12 -36.5s-21.667 -21.167 -41 -30.5c-32.667 -16.667 -68.667 -25 -108 -25c-52 0 -88.333 7.16699 -109 21.5s-31 33.833 -31 58.5c0 12 3.16699 23.833 9.5 35.5s17.5 24.5 33.5 38.5v684
c-16 10.667 -27.167 21.167 -33.5 31.5s-9.5 20.833 -9.5 31.5c0 32.667 13.667 56.667 41 72c28.667 17.333 61.667 26 99 26c18.667 0 37.667 -2.33301 57 -7s39 -11 59 -19c42.667 -22 64 -48 64 -78c0 -9.33301 -3.16699 -18.833 -9.5 -28.5
s-17.5 -19.834 -33.5 -30.501zM308 -11.999c-45.333 0 -77.166 7.16797 -95.499 21.501s-27.5 35.166 -27.5 62.499c0 50 16.333 90.167 49 120.5s77 45.5 133 45.5c50.667 0 85.5 -9 104.5 -27s28.5 -49.333 28.5 -94c0 -48 -14.333 -81.5 -43 -100.5
s-78.334 -28.5 -149.001 -28.5z" />
    <glyph glyph-name="quotedbl" unicode="&#x22;" horiz-adv-x="839" 
d="M745 1178l-0.00195312 -246v-32c0 -8.66699 0.666992 -16.334 2 -23.001v-15c-5.33301 -22 -19.666 -40.167 -42.999 -54.5s-50 -21.5 -80 -21.5c-31.333 0 -60.666 7.66699 -87.999 23c-27.333 18 -41 39 -41 63c0 11.333 3 22.5 9 33.5s18.667 23.833 38 38.5v223
c-10.667 11.333 -18.167 21 -22.5 29s-6.5 17 -6.5 27c0 31.333 11 56.833 33 76.5s49.333 29.5 82 29.5s62.667 -9.66699 90 -29c18 -12 30.333 -23.833 37 -35.5s10 -23.5 10 -35.5c0 -8 -1.33301 -16.167 -4 -24.5s-8 -17.166 -16 -26.499zM324.998 864
c-6.66699 -22 -21.3311 -40.501 -43.998 -55.501s-47.667 -22.5 -75 -22.5c-28.667 0 -58 9 -88 27c-30 19.333 -45 39 -45 59c0 10 2.66699 19.667 8 29s15.666 21.666 30.999 36.999v231c-10.667 11.333 -17.834 21.333 -21.501 30s-5.5 16.667 -5.5 24
c0 31.333 11 56.833 33 76.5s49.333 29.5 82 29.5c16.667 0 33.167 -3 49.5 -9s31 -14.167 44 -24.5s23.5 -21.666 31.5 -33.999s12 -25.166 12 -38.499c0 -15.333 -4.66699 -30.333 -14 -45v-246v-55c0 -3.33301 0.333008 -6 1 -8s1 -3.66699 1 -5z" />
    <glyph glyph-name="numbersign" unicode="#" horiz-adv-x="1390" 
d="M1219 764c-14 0 -29.6699 2.6748 -47.0029 8.00781h-96l-117 -270h86c14.667 2.66699 28.167 5 40.5 7s24.833 3 37.5 3c36.667 0 62.5 -6.5 77.5 -19.5s22.5 -31.833 22.5 -56.5c0 -35.333 -19.667 -64.666 -59 -87.999c-36 -20.667 -73.667 -31 -113 -31l-39 13h-123
l-61 -166c1.33301 -8 2.33301 -14.5 3 -19.5s1 -9.5 1 -13.5c0 -30 -14 -54.5 -42 -73.5s-62.667 -28.5 -104 -28.5c-34 0 -64 7.33301 -90 22c-14.667 10 -25.167 20 -31.5 30s-9.5 20.667 -9.5 32c0 9.33301 3.83301 20.166 11.5 32.499s21.834 25.833 42.501 40.5l63 144
h-184l-70 -158c5.33301 -14.667 8 -26.334 8 -35.001c0 -32.667 -14.333 -59.334 -43 -80.001c-23.333 -18.667 -54.666 -28 -93.999 -28c-31.333 0 -62.666 6.66699 -93.999 20c-28.667 15.333 -43 36.666 -43 63.999c0 14.667 4.83301 28.167 14.5 40.5
s26.5 26.166 50.5 41.499l48 135h-56c-31.333 -11.333 -58.666 -17 -81.999 -17c-35.333 0 -60.5 6.5 -75.5 19.5s-22.5 31.833 -22.5 56.5c0 32.667 19 60.667 57 84c38.667 23.333 75 35 109 35l39 -6h100l113 270h-80c-22 -5.33301 -40.5 -9.33301 -55.5 -12
s-28.5 -4 -40.5 -4c-44 0 -73.833 6.16699 -89.5 18.5s-23.5 27.833 -23.5 46.5c0 15.333 5.16699 30.166 15.5 44.499s27.166 30.166 50.499 47.499c39.333 27.333 78 41 116 41c27.333 0 50 -6 68 -18h108l60 154c-5.33301 14.667 -8 24.667 -8 30c0 30 15.667 54 47 72
c28.667 16.667 60.667 25 96 25c31.333 0 60.666 -7 87.999 -21c26 -14.667 39 -35.667 39 -63c0 -10 -3 -20.5 -9 -31.5s-16.667 -21.833 -32 -32.5l-53 -133h178l63 154c-5.33301 14.667 -8 24.667 -8 30c0 31.333 11.333 56.666 34 75.999s51.667 29 87 29
c32.667 0 64.667 -9.66699 96 -29c19.333 -10.667 32.333 -21.834 39 -33.501s10 -24.5 10 -38.5c0 -10.667 -3.66699 -21.834 -11 -33.501s-22 -22.834 -44 -33.501l-45 -121h55c16.667 6.66699 30.167 11.334 40.5 14.001s19.5 4 27.5 4
c27.333 0 49.833 -8.16699 67.5 -24.5s26.5 -36.166 26.5 -59.499c0 -24 -12.667 -47.667 -38 -71s-59.666 -35 -102.999 -35zM667.997 772.008l-109 -270h181l112 270h-184z" />
    <glyph glyph-name="dollar" unicode="$" horiz-adv-x="1226" 
d="M993 209c-44 -34 -88.499 -60.9941 -133.499 -80.9941s-94.167 -34 -147.5 -42v-80c0 -2.66699 0.333008 -5 1 -7s1 -4.33301 1 -7c2 -1.33301 3 -4.66602 3 -9.99902v-21c0 -34 -10.333 -61.333 -31 -82s-48 -31 -82 -31c-42.667 0 -73.167 8.66699 -91.5 26
s-27.5 43.666 -27.5 78.999l6 39v92c-60 2.66699 -112.5 8.5 -157.5 17.5s-87.167 20.833 -126.5 35.5c-53.333 22 -92 46.667 -116 74s-36 58.666 -36 93.999c0 27.333 11 49.166 33 65.499s48.667 24.5 80 24.5c27.333 0 51.5 -6.83301 72.5 -20.5
s32.833 -30.5 35.5 -50.5c15.333 -24.667 40.333 -43.5 75 -56.5s81.334 -23.5 140.001 -31.5v325c-42 -14.667 -74.667 -24.834 -98 -30.501s-42.333 -8.5 -57 -8.5c-80.667 0 -146.334 20.667 -197.001 62c-56 42 -84 102 -84 180c0 105.333 49 194.666 147 267.999
c38.667 28.667 81.167 53.667 127.5 75s100.166 39.333 161.499 54v43c0 32.667 10.667 59.667 32 81s48.333 32 81 32s58.834 -9.16699 78.501 -27.5s29.5 -43.5 29.5 -75.5v-38c60.667 -4.66699 111.667 -10.334 153 -17.001s78 -15.334 110 -26.001
c50 -18 85 -35.833 105 -53.5s30 -36.167 30 -55.5c0 -31.333 -17 -58.666 -51 -81.999c-28.667 -20.667 -60.334 -31 -95.001 -31c-24.667 11.333 -52.667 30 -84 56c-26 20 -82 34.333 -168 43v-183c30 7.33301 55 12.333 75 15s39.667 4 59 4
c110 0 191.667 -25.333 245 -76s80 -127 80 -229c0 -128.667 -59.333 -239.334 -178 -332.001zM827.001 670.006c-18 0 -35.834 -1.33105 -53.501 -3.99805s-38.167 -8.33398 -61.5 -17.001v-391c78 27.333 138.167 68.333 180.5 123s63.5 116 63.5 184
c0 35.333 -11.667 61.666 -35 78.999s-54.666 26 -93.999 26zM491 989.008c-73.333 -27.333 -127.166 -58.999 -161.499 -94.999s-51.5 -79.333 -51.5 -130c0 -6.66699 1.66699 -14.834 5 -24.501s8.16602 -18.667 14.499 -27s12.5 -15.5 18.5 -21.5s12.667 -9 20 -9
c24 0 75.667 19.667 155 59v248z" />
    <glyph glyph-name="percent" unicode="%" horiz-adv-x="1404" 
d="M494 860c-44 -27.333 -87.832 -47.166 -131.499 -59.499s-85.834 -18.5 -126.501 -18.5c-62.667 0 -112.5 17.167 -149.5 51.5s-55.5 82.166 -55.5 143.499c0 78 41 142.667 123 194c75.333 48 155 72 239 72c86.667 0 149 -15.333 187 -46s57 -76.667 57 -138
c0 -35.333 -11.167 -69.5 -33.5 -102.5s-58.833 -65.167 -109.5 -96.5zM1192 61c-88.667 -40.667 -167.666 -61 -236.999 -61c-150.667 -0 -226 70.333 -226 211c0 106.667 42.333 186 127 238c70 42 163 63 279 63c52 0 99.667 -15 143 -45
c62.667 -40.667 94 -100.667 94 -180c0 -45.333 -14.333 -86.833 -43 -124.5s-74.334 -71.5 -137.001 -101.5zM1020 1081l-506 -967.999c-5.33301 -31.333 -18.5 -55 -39.5 -71s-54.833 -24 -101.5 -24c-26 0 -51.333 6.33301 -76 19c-24.667 13.333 -37 29.666 -37 48.999
c0 12 5 24.333 15 37l30 39l519 997c2.66699 27.333 12.167 48.166 28.5 62.499s41.5 21.5 75.5 21.5c32.667 0 63 -10.5 91 -31.5s42 -44.5 42 -70.5c0 -11.333 -3 -21.666 -9 -30.999s-16.667 -19 -32 -29zM240.002 944.001c42 12.667 76.667 28.167 104 46.5
s57.333 47.166 90 86.499c-60 -2.66699 -104.333 -13.167 -133 -31.5s-49 -52.166 -61 -101.499zM1110 346.001c-52 0 -92.999 -10.501 -122.999 -31.501s-45 -54.167 -45 -99.5c0 -10.667 2.5 -21.167 7.5 -31.5s14.833 -15.5 29.5 -15.5c27.333 0 61.666 11 102.999 33
c20 10.667 36.833 22.834 50.5 36.501s20.5 30.167 20.5 49.5c0 20 -4 34.833 -12 44.5s-18.333 14.5 -31 14.5z" />
    <glyph glyph-name="ampersand" unicode="&#x26;" horiz-adv-x="1478" 
d="M1356 78c-62.667 -34 -117.999 -51.001 -165.999 -51.001c-32.667 0 -57.167 6 -73.5 18s-27.166 29.667 -32.499 53l-92 103c-48 -31.333 -95.833 -58.333 -143.5 -81s-98.167 -43.667 -151.5 -63c-110.667 -36.667 -211 -55 -301 -55
c-113.333 0 -203.5 33.167 -270.5 99.5s-100.5 157.5 -100.5 273.5c0 99.333 30.667 187 92 263s159.666 142.667 294.999 200c-38 48.667 -64.5 90.5 -79.5 125.5s-22.5 66.833 -22.5 95.5c0 68 30 117.667 90 149c52 26 115.333 39 190 39c154.667 0 266.5 -18 335.5 -54
s103.5 -85.667 103.5 -149c0 -47.333 -22.333 -93.166 -67 -137.499s-120 -90.5 -226 -138.5l280 -295c19.333 26 32.666 45.5 39.999 58.5s12.666 23.5 15.999 31.5c0 26 7.16699 45.5 21.5 58.5s39.833 19.5 76.5 19.5c31.333 0 63.333 -8.33301 96 -25
c32.667 -18.667 49 -39.667 49 -63c0 -39.333 -18.333 -66 -55 -80c-15.333 -10.667 -31.833 -27.334 -49.5 -50.001l-67.5 -89l39.5 -48.5l44.5 -58.5c40 15.333 71.167 25.333 93.5 30s37.5 7 45.5 7c32 0 54.333 -6.16699 67 -18.5s19 -29.833 19 -52.5
c0 -19.333 -7.16699 -38.666 -21.5 -57.999s-39.166 -38.333 -74.499 -57zM717.001 1073c-28.667 4 -56.667 6.00195 -84 6.00195h-57c-2.66699 0 -4.33398 0.333008 -5.00098 1s-1.66699 1 -3 1c-1.33301 -2.66699 -2 -7.33398 -2 -14.001s5.33301 -11.334 16 -14.001
c-5.33301 -1.33301 -8.66602 -3.5 -9.99902 -6.5s-2 -5.16699 -2 -6.5l-6 41c-20.667 -1.33301 -35.167 -5.33301 -43.5 -12s-12.5 -12.667 -12.5 -18c0 -11.333 7.83301 -28.833 23.5 -52.5s42.167 -56.167 79.5 -97.5c64 28.667 110.333 55.667 139 81s43 52.333 43 81z
M535.001 702.001c-195.333 -76 -293 -187.667 -293 -335c0 -66 14.333 -116.333 43 -151s73 -52 133 -52c58.667 0 124.167 14 196.5 42s155.833 72 250.5 132z" />
    <glyph glyph-name="quotesingle" unicode="'" horiz-adv-x="487" 
d="M372 1178l-0.000976562 -246.001v-12.5c0 -5.66699 0.666992 -12.5 2 -20.5c1.33301 -12 1.33301 -20.333 0 -25c-2.66699 -25.333 -16.167 -46.333 -40.5 -63s-53.833 -25 -88.5 -25c-34 0 -66 8.33301 -96 25c-32.667 18 -49 38.333 -49 61c0 10 3 19.667 9 29
s17.333 21.666 34 36.999v231c-10.667 11.333 -18.167 21.333 -22.5 30s-6.5 16.667 -6.5 24c0 31.333 11.667 56.833 35 76.5s53.333 29.5 90 29.5c18 0 35.833 -3 53.5 -9s33.334 -14.167 47.001 -24.5s25 -21.666 34 -33.999s13.5 -25.166 13.5 -38.499
c0 -15.333 -5 -30.333 -15 -45z" />
    <glyph glyph-name="parenleft" unicode="(" horiz-adv-x="771" 
d="M589 1073l-56.999 24.998l-10 -39l41 -2c-94.667 -52 -164.834 -129.5 -210.501 -232.5s-68.5 -230.5 -68.5 -382.5c0 -276.667 104.667 -488.334 314 -635.001c36.667 -2.66699 62.834 -11.167 78.501 -25.5s23.5 -35.166 23.5 -62.499s-10.5 -48.833 -31.5 -64.5
s-49.5 -23.5 -85.5 -23.5c-52 0 -95 15.667 -129 47c-155.333 144 -257 261.667 -305 353c-60 108 -90 245 -90 411c0 108 9.5 203.333 28.5 286s46.5 153.334 82.5 212.001c56 88.667 157.667 179.334 305 272.001c22 33.333 54 50 96 50c30 0 61.333 -12.333 94 -37
c31.333 -26 47 -52 47 -78c0 -23.333 -8.83301 -41.5 -26.5 -54.5s-49.834 -19.5 -96.501 -19.5z" />
    <glyph glyph-name="parenright" unicode=")" horiz-adv-x="820" 
d="M640 55c-35.333 -70.667 -82.334 -143.669 -141.001 -219.002c-44 -57.333 -84 -101.333 -120 -132s-68.333 -50.667 -97 -60c-23.333 -8.66699 -49.333 -13 -78 -13c-38 0 -65.167 7.16699 -81.5 21.5s-24.5 36.5 -24.5 66.5s7.83301 52.167 23.5 66.5
s41.834 22.5 78.501 24.5c108 70.667 187.833 158.167 239.5 262.5s77.5 227.5 77.5 369.5c0 88.667 -8.83301 170.667 -26.5 246s-44.834 143.666 -81.501 204.999c-28.667 46.667 -60.167 85.334 -94.5 116.001s-73.166 53.334 -116.499 68.001l-23 -4
c-36.667 0 -62.5 6.5 -77.5 19.5s-22.5 31.833 -22.5 56.5c0 31.333 15 58 45 80s64 33 102 33c24.667 0 44.5 -4.16699 59.5 -12.5s28.167 -21.5 39.5 -39.5c72 -35.333 134 -77.833 186 -127.5s96.333 -108.167 133 -175.5c70 -125.333 105 -264.666 105 -417.999
c0 -146 -35 -290.667 -105 -434z" />
    <glyph glyph-name="asterisk" unicode="*" horiz-adv-x="968" 
d="M728 989l-15.999 -2.00098l10 -12l15 -14l4 22l-19 -8l-14 -6c14.667 -10 28.5 -19 41.5 -27s25.167 -14 36.5 -18c38 -6 57 -26.667 57 -62c0 -31.333 -7.83301 -54.166 -23.5 -68.499s-41.834 -21.5 -78.501 -21.5c-56 0 -103.333 23.333 -142 70l-71 65l-43 -92
c-4 -26 -18.333 -47.833 -43 -65.5s-50.667 -26.5 -78 -26.5c-24.667 0 -45.5 8.16699 -62.5 24.5s-25.5 36.833 -25.5 61.5c0 6.66699 3 16.5 9 29.5s22 38.5 48 76.5l-141 -38c-44 1.33301 -75.167 9.16602 -93.5 23.499s-27.5 35.166 -27.5 62.499
c0 21.333 8.83301 38.833 26.5 52.5s48.5 24.167 92.5 31.5l139 20c-30 19.333 -53.833 35.5 -71.5 48.5s-31.667 24.167 -42 33.5s-17.166 16.833 -20.499 22.5s-5 10.5 -5 14.5c0 23.333 13 43 39 59c24.667 16.667 52 25 82 25c43.333 0 71.333 -13.667 84 -41l71 -66
l29 62c4 27.333 13.833 47.5 29.5 60.5s39.834 19.5 72.501 19.5s56.167 -6.5 70.5 -19.5s21.5 -33.167 21.5 -60.5c0 -7.33301 -1.33301 -15.666 -4 -24.999s-9.33398 -27.666 -20.001 -54.999l115 26c30 0 56.833 -8.5 80.5 -25.5s35.5 -35.5 35.5 -55.5
c0 -23.333 -11.833 -43.5 -35.5 -60.5s-67.834 -30.5 -132.501 -40.5z" />
    <glyph glyph-name="plus" unicode="+" horiz-adv-x="1244" 
d="M1086 322c-10 0 -18.333 1.00391 -25 3.00391s-11.334 4.33301 -14.001 7l-21 12h-293v-201c14 -13.333 23.333 -24.833 28 -34.5s7 -18.5 7 -26.5c0 -26 -12.333 -47.167 -37 -63.5s-54.667 -24.5 -90 -24.5c-42 0 -76 7.33301 -102 22c-34 19.333 -51 44 -51 74
c0 6.66699 1.33301 14.167 4 22.5s9.33398 19.166 20.001 32.499v199h-256c-38 -14.667 -66 -22 -84 -22c-50.667 0 -85.5 7.5 -104.5 22.5s-28.5 36.167 -28.5 63.5c0 31.333 14 58.166 42 80.499s59.667 33.5 95 33.5c27.333 0 52.666 -4.66699 75.999 -14h260v192
c-9.33301 14 -15.666 26.167 -18.999 36.5s-5 20.166 -5 29.499c0 27.333 8.16699 48.166 24.5 62.499s44.166 21.5 83.499 21.5c36.667 0 70.5 -11.333 101.5 -34s47.167 -49.667 48.5 -81c-3.33301 -5.33301 -5.66602 -10 -6.99902 -14s-3.33301 -8 -6 -12v-201h291
c15.333 6.66699 29.5 11.334 42.5 14.001s25.5 4 37.5 4c30 0 54.167 -8.5 72.5 -25.5s27.5 -40.5 27.5 -70.5c0 -24.667 -10.833 -48.834 -32.5 -72.501s-50.167 -35.5 -85.5 -35.5z" />
    <glyph glyph-name="comma" unicode="," horiz-adv-x="552" 
d="M404 -33l-134.998 -105.999c-22 -19.333 -40.5 -32.333 -55.5 -39s-27.833 -10 -38.5 -10c-48 0 -79.167 5 -93.5 15s-21.5 22 -21.5 36c0 4 1.33301 8 4 12c10.667 32.667 36 63.334 76 92.001c23.333 16.667 43.166 32.834 59.499 48.501s31.833 33.167 46.5 52.5
c-28.667 17.333 -48.334 34.166 -59.001 50.499s-16 34.166 -16 53.499c0 35.333 14.667 64.666 44 87.999s65 35 107 35c113.333 0 170 -57.333 170 -172c0 -31.333 -7.16699 -59.333 -21.5 -84s-36.5 -48.667 -66.5 -72z" />
    <glyph glyph-name="hyphen" unicode="-" horiz-adv-x="865" 
d="M732 479c-35.333 -28.667 -68.668 -43.001 -100.001 -43.001c-20.667 0 -42 9 -64 27l-252 -17c-26.667 -22.667 -58 -34 -94 -34c-35.333 0 -67.333 8.66699 -96 26c-28.667 18 -43 44 -43 78s15.667 64.667 47 92c32.667 28.667 63.334 43 92.001 43
c20.667 0 40 -3.33301 58 -10l274 14c12 7.33301 24.167 13 36.5 17s24.166 7.33301 35.499 10c21.333 0 40.333 -2.66699 57 -8s32.334 -13 47.001 -23c34 -20 51 -49.333 51 -88c0 -12 -3.66699 -25.167 -11 -39.5s-20 -29.166 -38 -44.499z" />
    <glyph glyph-name="hyphen" unicode="&#x2010;" horiz-adv-x="865" 
d="M732 479c-35.333 -28.667 -68.668 -43.001 -100.001 -43.001c-20.667 0 -42 9 -64 27l-252 -17c-26.667 -22.667 -58 -34 -94 -34c-35.333 0 -67.333 8.66699 -96 26c-28.667 18 -43 44 -43 78s15.667 64.667 47 92c32.667 28.667 63.334 43 92.001 43
c20.667 0 40 -3.33301 58 -10l274 14c12 7.33301 24.167 13 36.5 17s24.166 7.33301 35.499 10c21.333 0 40.333 -2.66699 57 -8s32.334 -13 47.001 -23c34 -20 51 -49.333 51 -88c0 -12 -3.66699 -25.167 -11 -39.5s-20 -29.166 -38 -44.499z" />
    <glyph glyph-name="period" unicode="." horiz-adv-x="544" 
d="M256 -43c-48 0 -82.502 8.83398 -103.502 26.501s-31.5 43.5 -31.5 77.5c10.667 59.333 30.334 102.166 59.001 128.499s68.334 39.5 119.001 39.5c41.333 0 74 -14.333 98 -43c16.667 -20 25 -45 25 -75c0 -44 -16.333 -80.667 -49 -110s-71.667 -44 -117 -44z" />
    <glyph glyph-name="slash" unicode="/" horiz-adv-x="923" 
d="M813 1063l-459 -933.998c6.66699 -13.333 10 -24.333 10 -33c0 -30 -16.333 -53.667 -49 -71c-28.667 -16.667 -62 -25 -100 -25c-60 0 -101.667 8.5 -125 25.5s-35 40.5 -35 70.5c0 19.333 6.83301 36.833 20.5 52.5s37.5 31.167 71.5 46.5l457 933
c1.33301 36 12.5 62.5 33.5 79.5s55.5 25.5 103.5 25.5c35.333 0 65.333 -9.16699 90 -27.5s37 -42.5 37 -72.5c0 -16.667 -4.16699 -30.834 -12.5 -42.501s-22.5 -20.834 -42.5 -27.501z" />
    <glyph glyph-name="zero" unicode="0" horiz-adv-x="1490" 
d="M1298 344c-98.667 -118.667 -233.333 -210.001 -404 -274.001c-124 -44 -237.333 -66 -340 -66c-177.333 0 -308 33.833 -392 101.5s-126 168.5 -126 302.5c0 380.667 168.667 636 506 766c114.667 43.333 228 65 340 65c130.667 0 250 -31.333 358 -94
c142 -83.333 213 -198.666 213 -345.999c0 -178 -51.667 -329.667 -155 -455zM1119 1004c-69.333 44.667 -150.999 67.001 -244.999 67.001c-183.333 0 -332.333 -62 -447 -186c-113.333 -126 -170 -280.333 -170 -463c0 -86 25.667 -149.833 77 -191.5
s124.666 -62.5 219.999 -62.5c46.667 0 94.5 5.5 143.5 16.5s99.5 28.167 151.5 51.5c104 43.333 188 100.666 252 171.999c94 98 141 222 141 372c0 92 -41 166.667 -123 224z" />
    <glyph glyph-name="one" unicode="1" horiz-adv-x="769" 
d="M517 29c-41.333 0 -70.8359 6.83594 -88.5029 20.5029s-27.167 34.167 -28.5 61.5l25 28v803l-66 -47c-18 -50.667 -57 -76 -117 -76c-18.667 0 -35.167 2 -49.5 6s-29.166 9.66699 -44.499 17c-31.333 17.333 -47 39 -47 65c0 16.667 6.16699 33.167 18.5 49.5
s33.5 32.166 63.5 47.499l268 190c28.667 20.667 62.334 31 101.001 31c32.667 0 58.834 -7.83301 78.501 -23.5s29.5 -36.5 29.5 -62.5c0 -2.66699 -0.333008 -4.83398 -1 -6.50098s-1 -3.83398 -1 -6.50098s-0.333008 -5 -1 -7s-1 -5 -1 -9v-979l12 -22
c-1.33301 -23.333 -12.833 -42.5 -34.5 -57.5s-60.5 -22.5 -116.5 -22.5z" />
    <glyph glyph-name="two" unicode="2" horiz-adv-x="1308" 
d="M1152 33l-918.994 0.00585938l-17 -10l-59 -9c-24.667 0 -50 6.33301 -76 19c-14.667 8 -24.834 15.833 -30.501 23.5s-8.5 14.834 -8.5 21.501c0 35.333 14.667 77.166 44 125.499s74.666 104.166 135.999 167.499c42.667 40.667 90 80.167 142 118.5
s110.667 75.166 176 110.499c18.667 10.667 57.5 30 116.5 58l237.5 112c68.667 40.667 103 95.334 103 164.001c0 49.333 -19.833 84.5 -59.5 105.5s-92.5 31.5 -158.5 31.5c-73.333 0 -136 -2.33301 -188 -7s-91.667 -12.667 -119 -24
c-36.667 -13.333 -70.334 -35.333 -101.001 -66s-59.667 -69.334 -87 -116.001c-14 -46.667 -52.333 -70 -115 -70c-32.667 0 -62.667 9 -90 27c-28.667 19.333 -43 43.333 -43 72c0 17.333 4.83301 32.166 14.5 44.499s25.834 22.166 48.501 29.499
c56 88.667 117.667 152 185 190c105.333 58.667 269 88 491 88c104 0 198.333 -23.333 283 -70c99.333 -56 149 -128.333 149 -217c0 -136 -55 -239 -165 -309l-351 -166c-66.667 -32.667 -127.334 -71.5 -182.001 -116.5s-111.334 -99.5 -170.001 -163.5h703
c5.33301 31.333 16.166 53.833 32.499 67.5s42.166 20.5 77.499 20.5s64 -12.333 86 -37s33 -55.334 33 -92.001c0 -34.667 -11.667 -63.834 -35 -87.501s-51.333 -35.5 -84 -35.5z" />
    <glyph glyph-name="three" unicode="3" horiz-adv-x="1441" 
d="M1058 102c-158.667 -65.333 -362.997 -98.0039 -612.997 -98.0039c-114.667 0 -205.334 24.667 -272.001 74c-82 57.333 -123 137 -123 239c0 28.667 15.667 54 47 76c30 20.667 62 31 96 31c42.667 0 72.167 -7.16699 88.5 -21.5s24.5 -33.166 24.5 -56.499
c0 -10.667 -2.33301 -21.5 -7 -32.5s-14 -24.167 -28 -39.5c11.333 -42 37.666 -70.5 78.999 -85.5s93 -22.5 155 -22.5c143.333 0 277.666 22.333 402.999 67c86 32 151.5 71.5 196.5 118.5s67.5 103.167 67.5 168.5c0 68.667 -27.333 121.334 -82 158.001
c-44.667 32.667 -100.667 49 -168 49c-39.333 0 -100.666 -12 -183.999 -36s-187.666 -59 -312.999 -105c-48 0 -81.833 8.16699 -101.5 24.5s-29.5 40.166 -29.5 71.499c0 10.667 9.5 23.5 28.5 38.5s54.5 31.5 106.5 49.5c31.333 9.33301 63.333 26.333 96 51l318 236
h-494v-58l14 -30c-1.33301 -34 -11.166 -59.667 -29.499 -77s-48.5 -26 -90.5 -26c-16.667 0 -32.834 2.5 -48.501 7.5s-31.834 11.5 -48.501 19.5c-18.667 10.667 -31.834 21.834 -39.501 33.501s-11.5 23.167 -11.5 34.5c0 10.667 2.33301 20.834 7 30.501
s14.667 19.834 30 30.501v117c0 13.333 4 25.5 12 36.5s21.667 21.167 41 30.5c30 14 65 21 105 21h821c26 0 50.667 -7 74 -21c20 -12 30 -30.333 30 -55c0 -12 -3.33301 -24.5 -10 -37.5s-19.667 -27.167 -39 -42.5l-239 -178c78.667 -4 143 -14.5 193 -31.5
s94.667 -41.5 134 -73.5c91.333 -70.667 137 -151 137 -241c0 -204.667 -111 -353 -333 -445z" />
    <glyph glyph-name="four" unicode="4" horiz-adv-x="1488" 
d="M1343 428l-19.001 6.00195l15 29l36.5 -22.5c13.667 -8.33301 29.5 -18.5 47.5 -30.5l-25 -27l-100 61l-199 -20v-260c16.667 -16.667 25 -34.334 25 -53.001c0 -28.667 -11.333 -51.334 -34 -68.001s-52.334 -25 -89.001 -25c-37.333 0 -72.333 9 -105 27
c-31.333 18 -47 42 -47 72l25 35v254l-664 -74c-10.667 -2.66699 -20.5 -5 -29.5 -7s-18.833 -3 -29.5 -3c-45.333 0 -76.833 7.16699 -94.5 21.5s-26.5 33.5 -26.5 57.5c0 28.667 18.333 59.667 55 93l770 673c11.333 19.333 24.833 33.833 40.5 43.5
s37.167 14.5 64.5 14.5c34 0 67.333 -10.333 100 -31c34 -20.667 51 -46.667 51 -78c0 -5.33301 -0.666992 -11 -2 -17s-4.66602 -14.667 -9.99902 -26v-481l188 20c30.667 11.333 54.667 17 72 17c28.667 0 52.167 -9.66699 70.5 -29s27.5 -44 27.5 -74
c0 -27.333 -11.167 -50.5 -33.5 -69.5s-49.166 -28.5 -80.499 -28.5zM873.999 932.002l-469 -412l469 47v365z" />
    <glyph glyph-name="five" unicode="5" horiz-adv-x="1377" 
d="M299 229c0 1.33301 -0.666992 2.00098 -2 2.00098c40 -22.667 79 -38.834 117 -48.501s75.667 -14.5 113 -14.5c61.333 0 122.333 6.16699 183 18.5s121 32.166 181 59.499c75.333 32.667 133.166 71.834 173.499 117.501s60.5 97.834 60.5 156.501
c0 87.333 -37.667 147.333 -113 180c-48 22 -118.333 33 -211 33c-122.667 0 -225.667 -23 -309 -69l-303 -168c-48 0 -81.833 7.83301 -101.5 23.5s-29.5 37.167 -29.5 64.5c0 28.667 2.33301 59.667 7 93s9 70.333 13 111l21 220c5.33301 57.333 14.5 98.833 27.5 124.5
s25.5 41.5 37.5 47.5c12.667 4 45.334 8 98.001 12l758 47c26 8 50.667 12 74 12c32.667 0 59.667 -9.5 81 -28.5s32 -42.833 32 -71.5c0 -26 -8.66699 -46.5 -26 -61.5s-46.333 -22.5 -87 -22.5l-31 8l-729 -41l-22 -270c60 31.333 110 55.166 150 71.499
s76 27.833 108 34.5c66.667 15.333 149.667 23 249 23c142 0 259.667 -22.667 353 -68c114.667 -56 172 -146.667 172 -272c0 -95.333 -27 -180 -81 -254s-137.667 -136 -251 -186c-154 -71.333 -318 -107 -492 -107c-72 0 -145.667 12.333 -221 37
c-79.333 26 -144 62.333 -194 109c-26 10.667 -44.5 23.5 -55.5 38.5s-16.5 32.167 -16.5 51.5c0 30 12 54.5 36 73.5s53.667 28.5 89 28.5c76.667 0 117.667 -32 123 -96z" />
    <glyph glyph-name="six" unicode="6" horiz-adv-x="1541" 
d="M1169 131c-170.667 -83.333 -336.998 -125.001 -498.998 -125.001c-208 0 -385.667 76.667 -533 230l-4 24c-32.667 42.667 -56.5 84.834 -71.5 126.501s-22.5 84.167 -22.5 127.5c0 200.667 102.333 379 307 535c191.333 142 391.333 213 600 213
c116 0 216.333 -18.667 301 -56c50.667 -21.333 87 -45.333 109 -72s33 -53.667 33 -81c0 -26 -13 -47.333 -39 -64c-24.667 -16 -52.667 -24 -84 -24c-32.667 0 -61.334 6.66699 -86.001 20c-26 16.667 -41.667 42 -47 76c-31.333 10.667 -63.833 18.167 -97.5 22.5
s-70.167 6.5 -109.5 6.5c-136.667 0 -279.334 -59 -428.001 -177c-158.667 -122.667 -238 -252.334 -238 -389.001v-63c143.333 132 279.5 228.5 408.5 289.5s256.5 91.5 382.5 91.5c150 0 268 -37.667 354 -113c64 -58.667 96 -120 96 -184
c0 -83.333 -26.5 -159.166 -79.5 -227.499s-137.167 -130.5 -252.5 -186.5zM1190 644.999c-48 20.667 -95.667 31 -143 31c-62 0 -123.667 -10 -185 -30s-123.333 -49 -186 -87c-56 -32.667 -108.5 -70.167 -157.5 -112.5s-98.833 -94.166 -149.5 -155.499
c39.333 -42.667 84 -72.834 134 -90.501s107.667 -26.5 173 -26.5c112 0 235 29.333 369 88c78.667 35.333 139.167 74.833 181.5 118.5s63.5 94.167 63.5 151.5c0 27.333 -9.16699 50 -27.5 68s-42.5 33 -72.5 45z" />
    <glyph glyph-name="seven" unicode="7" horiz-adv-x="1291" 
d="M553 123l-0.000976562 1.99902c-5.33301 -35.333 -20.333 -62.333 -45 -81s-60.667 -28 -108 -28c-37.333 0 -63.5 6.5 -78.5 19.5s-22.5 31.833 -22.5 56.5c0 12.667 5.83301 31.167 17.5 55.5s30.5 55.833 56.5 94.5l561 823c-31.333 0 -99.166 -1.66699 -203.499 -5
s-255.5 -9.33301 -453.5 -18v-36c6.66699 -7.33301 12.667 -18.333 18 -33c0 -62.667 -36.667 -94 -110 -94c-38.667 0 -73 9.33301 -103 28c-30 19.333 -45.667 44 -47 74l16 18v109c0 27.333 14 50.166 42 68.499s77 28.833 147 31.5l772 27c2.66699 0 8.5 1.66699 17.5 5
s21.5 10 37.5 20c24.667 12 48 18 70 18c35.333 0 64 -8.16699 86 -24.5s33 -38.166 33 -65.499c0 -42.667 -20 -79.667 -60 -111c-10.667 -10.667 -31 -37.167 -61 -79.5l-121 -172.5l-340 -497c-78 -117.333 -118.333 -185.666 -121 -204.999z" />
    <glyph glyph-name="eight" unicode="8" horiz-adv-x="1500" 
d="M1084 182c-114.667 -57.333 -223.668 -99.332 -327.001 -125.999s-202 -40 -296 -40c-87.333 0 -173.333 22 -258 66c-113.333 60 -170 136.333 -170 229c0 88.667 56 180.334 168 275.001c18 16 36.833 31.167 56.5 45.5s44.5 31.166 74.5 50.499
c-39.333 31.333 -66.833 61.666 -82.5 90.999s-23.5 61.666 -23.5 96.999c0 132.667 63.333 234.667 190 306c106.667 57.333 235 86 385 86c48 0 92.833 -4.5 134.5 -13.5s81.5 -21.833 119.5 -38.5c95.333 -42 143 -101.333 143 -178
c0 -23.333 -7.16699 -49.666 -21.5 -78.999s-41.166 -65.666 -80.499 -108.999c134 -27.333 229.333 -62.833 286 -106.5s85 -94.167 85 -151.5c0 -71.333 -30.833 -140.333 -92.5 -207s-158.5 -132.334 -290.5 -197.001zM753.999 1092
c-68.667 0 -131.669 -14.333 -189.002 -43c-74.667 -38.667 -112 -92 -112 -160c0 -27.333 6.16699 -50.5 18.5 -69.5s32.166 -30.167 59.499 -33.5l153 48c28.667 8 55.334 13.667 80.001 17l68 9c2.66699 0 10.834 4.16699 24.501 12.5s32.167 21.833 55.5 40.5
c22.667 19.333 40.834 37.833 54.501 55.5s20.5 34.834 20.5 51.501c0 19.333 -19 36.166 -57 50.499s-96.667 21.5 -176 21.5zM1104 672.001c-65.333 16 -120.667 24.001 -166 24.001c-110.667 0 -245.667 -36 -405 -108c-90 -40 -159.667 -83.5 -209 -130.5
s-74 -97.167 -74 -150.5c0 -26 8.83301 -47.5 26.5 -64.5s41.5 -30.833 71.5 -41.5c44 -18 88.667 -27 134 -27c108.667 0 256 39.667 442 119c102 43.333 181.333 88.666 238 135.999s85 97 85 149c0 16 -11.5 32.833 -34.5 50.5s-59.167 32.167 -108.5 43.5z" />
    <glyph glyph-name="nine" unicode="9" horiz-adv-x="1439" 
d="M1187 233c-158.667 -154 -365 -231 -619 -231c-120 0 -218.5 19.833 -295.5 59.5s-137.5 100.5 -181.5 182.5c-34 18.667 -51 43 -51 73c0 28.667 9.16699 51.334 27.5 68.001s49.5 25 93.5 25c14.667 0 28.834 -2.5 42.501 -7.5s28.167 -11.5 43.5 -19.5
c30 -19.333 45 -41.333 45 -66v-8c16 -28.667 32.667 -52.167 50 -70.5s36.166 -33.333 56.499 -45s43.166 -19.5 68.499 -23.5s55 -6 89 -6c173.333 0 324.333 56 453 168c53.333 46 95 96.333 125 151s49.667 121.667 59 201c-60 -36.667 -115.333 -66.667 -166 -90
s-102.667 -42.333 -156 -57c-114.667 -32 -217.667 -48 -309 -48c-46 0 -92.667 5.5 -140 16.5s-96 28.833 -146 53.5c-60.667 28.667 -104.167 59.667 -130.5 93s-39.5 68 -39.5 104c0 170.667 80.333 299 241 385c130 70.667 292.667 106 488 106
c118.667 0 214.834 -16.333 288.501 -49s131.5 -80.334 173.5 -143.001c48 -19.333 72.667 -56.333 74 -111l-6 -16c22 -70 33 -140.333 33 -211c0 -186 -70.333 -347.333 -211 -484zM988 1051c-52 18.667 -111.998 28 -179.998 28c-110.667 0 -209.667 -19.667 -297 -59
c-58.667 -26 -103.667 -58.833 -135 -98.5s-47 -85.5 -47 -137.5c0 -22.667 10.167 -42 30.5 -58s45.5 -29.333 75.5 -40c27.333 -10.667 52.666 -18.167 75.999 -22.5s44.666 -6.5 63.999 -6.5c77.333 0 179 22.667 305 68c70.667 26 127.167 54.333 169.5 85
s63.5 65.667 63.5 105c0 33.333 -10.833 60.833 -32.5 82.5s-52.5 39.5 -92.5 53.5z" />
    <glyph glyph-name="colon" unicode=":" horiz-adv-x="542" 
d="M385 487c-36 -20 -76.333 -30 -121 -30c-44 0 -80.333 10.5 -109 31.5s-43 48.5 -43 82.5c0 49.333 15.833 87.666 47.5 114.999s75.5 41 131.5 41c102 0 153 -50.667 153 -152c0 -35.333 -19.667 -64.666 -59 -87.999zM258 -8c-45.333 0 -82.332 8 -110.999 24
c-32.667 20.667 -49 48 -49 82c0 41.333 21 77 63 107c40 27.333 84.667 41 134 41c43.333 0 78 -10 104 -30s39 -47.667 39 -83v-24c-12 -40 -32.333 -69.5 -61 -88.5s-68.334 -28.5 -119.001 -28.5z" />
    <glyph glyph-name="semicolon" unicode=";" horiz-adv-x="646" 
d="M495 492c-35.333 -23.333 -80.332 -35 -134.999 -35c-36.667 0 -73.334 11.667 -110.001 35c-33.333 21.333 -50 46.333 -50 75c0 124.667 65.667 187 197 187c48 0 85.667 -13.667 113 -41s41 -65 41 -113c0 -49.333 -18.667 -85.333 -56 -108zM436.001 -39
l-133.001 -102.002c-23.333 -18 -42.5 -30.333 -57.5 -37s-27.833 -10 -38.5 -10c-46.667 0 -77.167 5 -91.5 15s-21.5 21.333 -21.5 34c0 4 1.33301 8 4 12c10.667 32.667 35.334 62 74.001 88c23.333 16.667 43.5 31.834 60.5 45.501s32.833 29.834 47.5 48.501
c-31.333 18 -52 34.5 -62 49.5s-15 32.167 -15 51.5c0 34 15 62.167 45 84.5s65.333 33.5 106 33.5c113.333 0 170 -55 170 -165c0 -56 -29.333 -105.333 -88 -148z" />
    <glyph glyph-name="less" unicode="&#x3c;" horiz-adv-x="1117" 
d="M887 4c-19.333 9.33301 -32.332 16.335 -38.999 21.002l-705 333c-32.667 16.667 -55.834 33.167 -69.501 49.5s-20.5 32.833 -20.5 49.5c0 14.667 5.16699 28.5 15.5 41.5s28.5 24.167 54.5 33.5l714 269c23.333 35.333 58.333 53 105 53c32.667 0 61 -10.5 85 -31.5
s36 -45.167 36 -72.5c0 -26 -6.83301 -46.167 -20.5 -60.5s-36.167 -22.833 -67.5 -25.5l-609 -224l605 -272c31.333 -2.66699 53 -9.83398 65 -21.501s18 -27.167 18 -46.5c0 -28.667 -14.333 -52.334 -43 -71.001c-30 -19.333 -62 -29 -96 -29z" />
    <glyph glyph-name="equal" unicode="=" horiz-adv-x="1291" 
d="M1090 492l-36.999 14h-776c-28.667 -12.667 -57.334 -19 -86.001 -19c-48 0 -81.833 8.33301 -101.5 25s-29.5 38.667 -29.5 66c0 30 15.667 58 47 84c31.333 25.333 62.666 38 93.999 38c26 0 49.333 -5.33301 70 -16h774c26 10.667 50.667 16 74 16
c31.333 0 57.833 -9.83301 79.5 -29.5s32.5 -44.5 32.5 -74.5c0 -23.333 -11.167 -46.5 -33.5 -69.5s-58.166 -34.5 -107.499 -34.5zM1094 150l-37.002 14h-780c-28.667 -15.333 -57.334 -23 -86.001 -23c-48 0 -81.833 8.16699 -101.5 24.5s-29.5 38.166 -29.5 65.499
c0 16.667 3.83301 32.167 11.5 46.5s17.834 27 30.501 38s27.334 19.833 44.001 26.5s33.667 10 51 10c24.667 0 49.334 -5.33301 74.001 -16h774c26 10.667 50.667 16 74 16c28.667 0 53.5 -10.5 74.5 -31.5s31.5 -45.833 31.5 -74.5c0 -30 -9.83301 -53.167 -29.5 -69.5
s-53.5 -25.166 -101.5 -26.499z" />
    <glyph glyph-name="greater" unicode="&#x3e;" horiz-adv-x="1093" 
d="M975 360l-710.997 -333.001c-6.66699 -7.33301 -14.834 -13 -24.501 -17s-21.834 -7.33301 -36.501 -10c-32.667 0 -66.334 9 -101.001 27c-38 22.667 -57 46.334 -57 71.001c0 19.333 11 35 33 47c22 14 46 21.667 72 23l589 272l-614 226
c-31.333 6.66699 -53.5 17.834 -66.5 33.501s-19.5 35.167 -19.5 58.5c0 27.333 14.333 49.666 43 66.999c26 16.667 56 25 90 25c36.667 0 67.334 -14.333 92.001 -43l729 -277c22 -10.667 37.5 -22.5 46.5 -35.5s13.5 -25.5 13.5 -37.5
c0 -19.333 -7.83301 -37.833 -23.5 -55.5s-33.834 -31.5 -54.501 -41.5z" />
    <glyph glyph-name="question" unicode="?" horiz-adv-x="1126" 
d="M928 861c-48 -36.667 -136.001 -91.9971 -264.001 -165.997c-124.667 -72 -198.667 -117.667 -222 -137c-5.33301 -5.33301 -9.66602 -11.833 -12.999 -19.5s-7.66602 -20.834 -12.999 -39.501h30.5c4.33301 0 7.83301 -1 10.5 -3h90c5.33301 32 15.833 54.833 31.5 68.5
s39.834 20.5 72.501 20.5c31.333 0 60 -9.33301 86 -28s39 -39.667 39 -63c0 -20 -8.16699 -40 -24.5 -60s-43.5 -38.667 -81.5 -56c-67.333 -30 -146 -45 -236 -45c-62.667 0 -115.667 13.667 -159 41c-49.333 32.667 -74 75.667 -74 129c0 64 26.667 120.667 80 170
c27.333 24 116 76.333 266 157c98 54.667 175.333 103.5 232 146.5s85 80.167 85 111.5c0 19.333 -15.667 36.166 -47 50.499s-81 21.5 -149 21.5c-62.667 0 -145.334 -29.333 -248.001 -88c-32.667 -19.333 -60.334 -36.5 -83.001 -51.5s-40.667 -29.167 -54 -42.5
c-4 -31.333 -14 -53.5 -30 -66.5s-39 -19.5 -69 -19.5c-35.333 0 -68 12.333 -98 37c-31.333 22.667 -47 49 -47 79c0 19.333 5.5 35.166 16.5 47.499s30.167 22.5 57.5 30.5l254 170c112 48 226.667 72 344 72c83.333 0 163 -19.667 239 -59
c48 -23.333 82.667 -49.333 104 -78s32 -60 32 -94c0 -36 -12.667 -73.333 -38 -112s-65.333 -80 -120 -124zM407.999 21.0029c-28.667 0 -56.667 8.33398 -84 25.001c-28 17.333 -42 39 -42 65c0 29.333 3.16699 53.5 9.5 72.5s14.166 33.5 23.499 43.5
c12.667 12 30.5 21.333 53.5 28s54.5 10 94.5 10c32.667 0 57.667 -9.83301 75 -29.5s26 -51.834 26 -96.501c0 -40 -12.167 -69.667 -36.5 -89s-64.166 -29 -119.499 -29z" />
    <glyph glyph-name="at" unicode="@" horiz-adv-x="1769" 
d="M1570 332c-95.333 -87.333 -199.668 -130.999 -313.001 -130.999c-57.333 0 -101 17 -131 51c-10.667 14.667 -19.167 36 -25.5 64s-7.5 73 -3.5 135c-109.333 -78 -207.333 -133.833 -294 -167.5s-168.667 -50.5 -246 -50.5c-79.333 0 -141.666 26.667 -186.999 80
c-26 30 -39 64.333 -39 103c0 88.667 22.167 171.167 66.5 247.5s112.5 147.5 204.5 213.5c164.667 120 340 180 526 180h51c23.333 18.667 49.333 28 78 28c34 0 57.167 -5.33301 69.5 -16s18.5 -25.667 18.5 -45v-41c-26 -90 -45.833 -178.667 -59.5 -266
s-20.5 -174 -20.5 -260c0 -20.667 0.333008 -41.667 1 -63s2.33398 -48.333 5.00098 -81c44 23.333 78.667 43.5 104 60.5s47.333 34.5 66 52.5c84.667 82 127 180.333 127 295c0 66.667 -5.33301 125 -16 175s-27.667 92 -51 126c-32.667 48 -78.5 83.5 -137.5 106.5
s-129.167 34.5 -210.5 34.5c-272 0 -507 -84.667 -705 -254c-173.333 -146 -260 -294 -260 -444c0 -116 25.333 -198.667 76 -248c31.333 -30 73.666 -51.5 126.999 -64.5s118 -19.5 194 -19.5c84.667 0 157 11 217 33c14 4 40 18.333 78 43
c20.667 32.667 47.334 49 80.001 49c30 0 56.667 -9 80 -27c26 -18.667 39 -38.334 39 -59.001c0 -14.667 -6.5 -27.5 -19.5 -38.5s-39.167 -17.833 -78.5 -20.5c-67.333 -38.667 -133 -64 -197 -76c-46.667 -9.33301 -116.334 -14 -209.001 -14
c-190 0 -330 36.5 -420 109.5s-135 182.5 -135 328.5c0 158 64.333 303.333 193 436c55.333 58.667 120 111.167 194 157.5s157.333 87.5 250 123.5c173.333 66.667 334.333 100 483 100c208 0 361.5 -42 460.5 -126s148.5 -210 148.5 -378
c0 -186.667 -59.667 -334 -179 -442zM1138 948.001l-10 -13.998l-16 -27c-6 2.66699 -13 4 -21 4l14 -37l64 60h-41h-37c-65.333 0 -130.5 -15.333 -195.5 -46s-130.167 -76 -195.5 -136c-122.667 -114.667 -184 -220.667 -184 -318c0 -50.667 24.333 -76 73 -76
c83.333 0 194 53.333 332 160c78 57.333 136.833 114.666 176.5 171.999s59.5 114.666 59.5 171.999c0 10 -1.16699 20.333 -3.5 31s-7.5 29 -15.5 55z" />
    <glyph glyph-name="A" unicode="A" 
d="M1321 29c-50.667 0 -85.8311 7.16797 -105.498 21.501s-30.167 32.833 -31.5 55.5c5.33301 19.333 8.66602 38 9.99902 56c1.33301 6.66699 2.66602 13 3.99902 19s3.33301 12 6 18c-9.33301 21.333 -22.833 48.5 -40.5 81.5s-42.5 76.167 -74.5 129.5h-706l-21.5 -34.5
l-19.5 -31.5l-20.5 -38.5c-7 -13.667 -13.833 -28.834 -20.5 -45.501l-25 -61c-6.66699 -12.667 -11 -25.834 -13 -39.501s-3 -27.167 -3 -40.5c0 -26 -13.667 -48 -41 -66c-20.667 -16 -48 -24 -82 -24c-48 0 -82.167 8.5 -102.5 25.5s-30.5 41.833 -30.5 74.5
c0 39.333 17 86.333 51 141c8 15.333 19.667 33.833 35 55.5l57 80.5l230 436c90 170.667 174.667 312.667 254 426c2.66699 34 18 61.5 46 82.5s59.667 31.5 95 31.5c31.333 0 57.666 -8.83301 78.999 -26.5s32 -39.5 32 -65.5c0 -65.333 16.333 -135.666 49 -210.999
c18.667 -44.667 43.834 -97.5 75.501 -158.5s70.5 -128.833 116.5 -203.5l78 -120l109 -169c46 -74 79.333 -133.833 100 -179.5s31 -78.5 31 -98.5c0 -34.667 -11.667 -63.5 -35 -86.5s-52 -34.5 -86 -34.5zM743.003 1051l-237 -441h452z" />
    <glyph glyph-name="B" unicode="B" horiz-adv-x="1384" 
d="M1178 338c-45.333 -38 -94.5029 -73.1689 -147.503 -105.502s-111.167 -61.5 -174.5 -87.5c-39.333 -14.667 -86 -29.5 -140 -44.5s-117 -30.167 -189 -45.5c-142 -26 -256.667 -39 -344 -39c-34.667 0 -67.667 9 -99 27c-34 19.333 -51 42 -51 68c0 12 3 23.167 9 33.5
s18 20.833 36 31.5v1004l-16 28c1.33301 31.333 10.833 55 28.5 71s46.167 24 85.5 24c18 0 34.5 -2.5 49.5 -7.5s30.833 -14.833 47.5 -29.5c74.667 26 167.334 47.667 278.001 65c108 16.667 200.333 25 277 25c84.667 0 159.667 -13 225 -39
c44.667 -18 77 -39.167 97 -63.5s30 -52.5 30 -84.5c0 -36.667 -13.667 -74.5 -41 -113.5s-78.666 -84.167 -153.999 -135.5c94.667 -15.333 166.834 -36.666 216.501 -63.999s87.5 -62.666 113.5 -105.999c23.333 -42.667 35 -83.667 35 -123
c0 -45.333 -13.667 -91.833 -41 -139.5s-71 -97.5 -131 -149.5zM800.997 1171c-72.667 0 -156.67 -8.00098 -252.003 -24.001c-52 -9.33301 -98.833 -19.5 -140.5 -30.5s-80.167 -24.833 -115.5 -41.5v-178c82 4 158.833 14.167 230.5 30.5s142.167 38.833 211.5 67.5
c57.333 24.667 104.833 49.334 142.5 74.001s66.834 54 87.501 88c-31.333 6.66699 -59.666 10.667 -84.999 12s-51.666 2 -78.999 2zM980.994 744.997c-49.333 8.66699 -115.999 12.999 -199.999 12.999c-52 0 -98.167 -1 -138.5 -3s-74.166 -4.33301 -101.499 -7l-248 -35
v-516c91.333 6.66699 183.166 23.334 275.499 50.001s189.5 63 291.5 109c89.333 40 158.166 83.167 206.499 129.5s72.5 95.5 72.5 147.5c0 31.333 -14.667 55.833 -44 73.5s-67.333 30.5 -114 38.5z" />
    <glyph glyph-name="C" unicode="C" horiz-adv-x="1271" 
d="M1134 1044c-35.333 0 -61.832 6.83301 -79.499 20.5s-30.167 34.167 -37.5 61.5c-2.66699 15.333 -24.167 28.5 -64.5 39.5s-99.833 16.5 -178.5 16.5c-174.667 0 -314 -84.667 -418 -254c-80.667 -132.667 -121 -260.334 -121 -383.001c0 -108 24.667 -193.333 74 -256
c56 -72.667 138 -109 246 -109c57.333 0 129 18.667 215 56c80 35.333 146.667 75.333 200 120c7.33301 40 20.833 68.5 40.5 85.5s47.167 25.5 82.5 25.5c46.667 0 79.167 -7.83301 97.5 -23.5s27.5 -38.5 27.5 -68.5c0 -10 -2.33301 -21 -7 -33s-13.334 -27 -26.001 -45
c-14.667 -20.667 -35.667 -41 -63 -61c-203.333 -154.667 -392.333 -232 -567 -232c-166.667 0 -296.667 50 -390 150c-98 99.333 -147 233 -147 401c0 100 28 212 84 336c57.333 124 125 222.333 203 295c130.667 118.667 287 178 469 178c108 0 211 -20.333 309 -61
c61.333 -26 105 -51.667 131 -77s39 -51 39 -77c0 -31.333 -11.667 -56.666 -35 -75.999s-51.333 -29 -84 -29z" />
    <glyph glyph-name="D" unicode="D" horiz-adv-x="1355" 
d="M1222 569c-106.667 -203.333 -316.998 -356.668 -630.998 -460.001c-96 -33.333 -181.167 -57.833 -255.5 -73.5s-137.5 -23.5 -189.5 -23.5c-28.667 0 -51.667 6.33301 -69 19c-20.667 10.667 -31 27 -31 49v1128c0 27.333 0.333008 47.5 1 60.5s1.66699 20.833 3 23.5
c5.33301 16.667 15.166 29.834 29.499 39.501s35.166 14.5 62.499 14.5c46.667 0 87.667 -18.667 123 -56c157.333 42.667 323.333 64 498 64c135.333 0 257.333 -41.667 366 -125c119.333 -86 179 -193.333 179 -322c0 -117.333 -28.667 -230 -86 -338zM992.002 1075
c-73.333 68.667 -162 103 -266 103c-78 0 -154.833 -7.5 -230.5 -22.5s-153.167 -39.167 -232.5 -72.5v-882c109.333 8 208.333 29.667 297 65s174 85.333 256 150c182.667 142 274 297.667 274 467c0 69.333 -32.667 133.333 -98 192z" />
    <glyph glyph-name="E" unicode="E" horiz-adv-x="1232" 
d="M1112 70l-29.9971 -0.00195312c-8.66699 0 -18 -0.666992 -28 -2c-100.667 -8.66699 -215.5 -16.334 -344.5 -23.001s-274.833 -13.334 -437.5 -20.001c-22 -14 -50.667 -21 -86 -21c-27.333 0 -56 10.333 -86 31c-28.667 18.667 -43 41 -43 67c0 19.333 9 40 27 62v414
c-18 10.667 -30.5 21.834 -37.5 33.501s-10.5 24.834 -10.5 39.501c0 15.333 3.5 30.5 10.5 45.5s19.5 31.167 37.5 48.5v334c-26 10 -43.5 20.667 -52.5 32s-13.5 26 -13.5 44c0 10.667 2.33301 22.167 7 34.5s12.667 26.166 24 41.499c1.33301 34 14.333 60 39 78
c10.667 6.66699 22.834 12.334 36.501 17.001s29.5 7 47.5 7c51.333 0 93 -21 125 -63l647 37c28.667 10.667 58 16 88 16c48.667 0 83.667 -8.83301 105 -26.5s32 -44.167 32 -79.5c0 -36 -14.333 -64.833 -43 -86.5s-64.334 -32.5 -107.001 -32.5
c-32.667 0 -62 7.33301 -88 22l-632 -28v-316l542 49c11.333 2.66699 22.666 4.33398 33.999 5.00098s24 1 38 1c54.667 0 92.5 -8.16699 113.5 -24.5s31.5 -38.833 31.5 -67.5c0 -35.333 -8.83301 -61.833 -26.5 -79.5s-46.167 -26.5 -85.5 -26.5
c-8.66699 0 -19.334 0.666992 -32.001 2s-28.667 4 -48 8l-567 -55v-381l723 47c26.667 6.66699 49 10 67 10c45.333 0 77.5 -8.5 96.5 -25.5s28.5 -41.167 28.5 -72.5c0 -27.333 -7.83301 -49.166 -23.5 -65.499s-41.834 -26.5 -78.501 -30.5z" />
    <glyph glyph-name="F" unicode="F" horiz-adv-x="1093" 
d="M954 1149c-10.667 0 -21.168 1.33105 -31.501 3.99805s-22.833 7.33398 -37.5 14.001l-613 -69v-293l582 65c26 14 54.667 21 86 21c61.333 0 92 -30.667 92 -92c0 -40 -13.667 -72.167 -41 -96.5s-60.666 -37.166 -99.999 -38.499l-17 12l-18 10l-584 -63v-449l13 -57
c0 -27.333 -9.66699 -48.833 -29 -64.5s-51.333 -23.5 -96 -23.5c-54.667 0 -92.667 7.83301 -114 23.5s-32 37.167 -32 64.5c0 13.333 2.83301 26.833 8.5 40.5s15.834 28.167 30.501 43.5v426c-19.333 10.667 -32 21.167 -38 31.5s-9 22.166 -9 35.499
c0 12.667 3 25.5 9 38.5s18.667 26.833 38 41.5v318c-26 24 -39 46.333 -39 67c0 32.667 14.333 59.334 43 80.001c23.333 60 61.666 90 114.999 90c18 0 33.667 -3.33301 47 -10s27.666 -19.667 42.999 -39l633 76c10.667 0 22.334 2 35.001 6
c13.333 2.66699 22.666 4 27.999 4c38.667 0 69.834 -9.5 93.501 -28.5s35.5 -44.167 35.5 -75.5c0 -26 -13.667 -51.333 -41 -76s-58 -37 -92 -37z" />
    <glyph glyph-name="G" unicode="G" horiz-adv-x="1664" 
d="M1541 465c-94.667 -152.667 -226 -269.337 -394 -350.004c-155.333 -74 -330 -111 -524 -111c-177.333 0 -320 44.333 -428 133c-116 96 -174 230.667 -174 404c0 121.333 25.333 225.666 76 312.999c23.333 42.667 52.333 84 87 124s78 80 130 120
c54.667 43.333 112.667 81.833 174 115.5s127 63.5 197 89.5c70.667 26.667 140.5 46.834 209.5 60.501s136.167 20.5 201.5 20.5c102.667 0 197.667 -15.667 285 -47c16 -6.66699 32.667 -15.167 50 -25.5s34.666 -24.166 51.999 -41.499
c19.333 -19.333 33.5 -37.166 42.5 -53.499s13.5 -29.833 13.5 -40.5c0 -32 -12 -58.5 -36 -79.5s-51.667 -31.5 -83 -31.5c-24.667 0 -48 8.5 -70 25.5s-36.333 39.167 -43 66.5l-5 5l-3 3l-14 9c-44 16 -126 24 -246 24c-147.333 0 -310 -58.667 -488 -176
c-103.333 -69.333 -181.666 -143.666 -234.999 -222.999s-80 -165.333 -80 -258c0 -109.333 36.333 -197.666 109 -264.999c72 -62.667 162.667 -94 272 -94c121.333 0 215.666 9 282.999 27c88.667 23.333 172.334 67.666 251.001 132.999
c59.333 48 110.166 96.833 152.499 146.5s77.833 108.834 106.5 177.501c-90.667 -20.667 -182.334 -38.834 -275.001 -54.501s-193 -31.167 -301 -46.5c-187.333 -24.667 -291.666 -37 -312.999 -37c-34 0 -63.667 11.333 -89 34s-38 49.667 -38 81
c0 28.667 9.16699 50.834 27.5 66.501s51.5 23.5 99.5 23.5c13.333 0 45.333 2 96 6s121 11.667 211 23c102.667 10.667 188 20.5 256 29.5s118.333 16.833 151 23.5c90.667 18 159.834 30.667 207.501 38s75.5 11 83.5 11c78 0 117 -37.333 117 -112
c0 -83.333 -34 -179 -102 -287z" />
    <glyph glyph-name="H" unicode="H" horiz-adv-x="1363" 
d="M1263 53c-27.333 -13.333 -57.334 -20.002 -90.001 -20.002c-42 0 -72.333 8.16699 -91 24.5s-28.667 41.5 -30 75.5c2.66699 2.66699 5.83398 6.83398 9.50098 12.501s8.83398 11.834 15.501 18.501v633l-760 -45v-592c0 -12.667 2 -29 6 -49
c0 -27.333 -9.16699 -48.166 -27.5 -62.499s-50.166 -21.5 -95.499 -21.5c-44.667 0 -76 7.16699 -94 21.5s-27 32.833 -27 55.5c0 7.33301 1.5 14.333 4.5 21s9.16699 15.667 18.5 27v614c-15.333 12 -26 24.167 -32 36.5s-9 26.166 -9 41.499c0 14.667 3 27.5 9 38.5
s16.667 21.833 32 32.5v306l-8 28c0 28.667 9.5 50.834 28.5 66.501s51.167 23.5 96.5 23.5c35.333 0 60.5 -7.16699 75.5 -21.5s22.5 -35.166 22.5 -62.499v-313l760 41v231l-12 41c1.33301 27.333 10.5 48.166 27.5 62.499s45.167 21.5 84.5 21.5
c35.333 0 64.666 -8.5 87.999 -25.5s35.666 -39.167 36.999 -66.5l-4 -22l4 -1110c0 -24.667 -13 -45.334 -39 -62.001z" />
    <glyph glyph-name="I" unicode="I" horiz-adv-x="440" 
d="M237 27c-35.333 0 -70.999 8 -106.999 24c-20 11.333 -33.833 22 -41.5 32s-11.5 20.667 -11.5 32c0 10.667 2.83301 21.167 8.5 31.5s16.167 21.5 31.5 33.5v1016l-27 37c2.66699 35.333 20 63.333 52 84c28 19.333 66 29 114 29c40.667 0 69.167 -7.16699 85.5 -21.5
s24.5 -35.166 24.5 -62.499c0 -16.667 -8.66699 -41.334 -26 -74.001v-1020c17.333 -19.333 26 -40 26 -62c0 -24 -9.33301 -43.167 -28 -57.5s-52.334 -21.5 -101.001 -21.5z" />
    <glyph glyph-name="J" unicode="J" horiz-adv-x="1246" 
d="M1177 1161l0.00195312 -827.003c0 -34 -12.667 -71.167 -38 -111.5s-66 -83.833 -122 -130.5c-134.667 -110.667 -300.334 -166 -497.001 -166c-158.667 0 -274.834 28.333 -348.501 85s-110.5 140.334 -110.5 251.001c0 42.667 11 77.334 33 104.001s52.667 40 92 40
s72.333 -10.333 99 -31s40 -48 40 -82c0 -14 -2.33301 -26.667 -7 -38s-13.334 -24.666 -26.001 -39.999c7.33301 -42 28.666 -71 63.999 -87s81 -24 137 -24c144.667 0 263.334 37 356.001 111c34.667 27.333 61.167 54.333 79.5 81s27.5 53 27.5 79v774
c-15.333 18 -25.666 32 -30.999 42s-8 18.667 -8 26c0 25.333 14.333 47 43 65c27.333 15.333 58 23 92 23c35.333 0 66.333 -10 93 -30s40 -44.333 40 -73c0 -12 -2.66699 -25.667 -8 -41z" />
    <glyph glyph-name="K" unicode="K" horiz-adv-x="1285" 
d="M1198 41c-28.667 -12 -59.001 -18 -91.001 -18c-47.333 0 -78.666 15.667 -93.999 47l-745 571v-469l24 -45c0 -28.667 -14.333 -52 -43 -70c-28.667 -16 -62 -24 -100 -24c-32.667 0 -62 7.33301 -88 22c-27.333 15.333 -41 36.666 -41 63.999
c0 5.33301 1.33301 13.333 4 24l25 31v1040c-8.66699 22 -13 35.667 -13 41c0 60.667 33.667 91 101 91c17.333 0 33.5 -2.5 48.5 -7.5s30.167 -12.833 45.5 -23.5c28.667 -19.333 43 -44 43 -74l-6 -27v-217l475 287c26 30 58.667 45 98 45c31.333 0 58 -10.167 80 -30.5
s33 -44.833 33 -73.5c0 -23.333 -6.16699 -41.833 -18.5 -55.5s-33.5 -21.834 -63.5 -24.501l-530 -318l833 -634c34 -7.33301 57.5 -17.5 70.5 -30.5s19.5 -28.833 19.5 -47.5c0 -15.333 -5.16699 -29.166 -15.5 -41.499s-27.5 -23.166 -51.5 -32.499z" />
    <glyph glyph-name="L" unicode="L" horiz-adv-x="1009" 
d="M848 68l-11.998 4l-674 -66c-35.333 0 -68 9 -98 27c-31.333 17.333 -47 41 -47 71c0 11.333 2.66699 21.833 8 31.5s16.333 19.834 33 30.501v1032c0 4 -1.33301 8.66699 -4 14l-4 11c-2.66699 5.33301 -4.33398 10.333 -5.00098 15s-1 9 -1 13
c0 31.333 13.667 54.666 41 69.999c22.667 14.667 52 22 88 22c39.333 0 67.166 -7.16699 83.499 -21.5s24.5 -35.833 24.5 -64.5l-8 -51v-1009l512 55c22 12 44.667 18 68 18c34 0 65.333 -8 94 -24c30 -19.333 45 -42 45 -68c0 -35.333 -11 -62.5 -33 -81.5
s-59 -28.5 -111 -28.5z" />
    <glyph glyph-name="M" unicode="M" horiz-adv-x="1640" 
d="M1473 23c-56 0 -95.499 8.83496 -118.499 26.502s-35.833 43.5 -38.5 77.5c4 4 8.33301 8.83301 13 14.5s12 13.167 22 22.5v631c-53.333 -70 -100.166 -129.167 -140.499 -177.5l-122.5 -142.5l-70.5 -101c-19.667 -28 -34.834 -51 -45.501 -69
c-23.333 -35.333 -42.5 -69 -57.5 -101s-26.5 -63.667 -34.5 -95c-3.33301 -22 -13.166 -39.167 -29.499 -51.5s-44.166 -18.5 -83.499 -18.5c-82 0 -123 43 -123 129c0 35.333 -28.333 102.166 -85 200.499s-144.334 236.833 -263.001 415.5l-8 -610
c12 -14.667 20 -32.334 24 -53.001c0 -28.667 -16.333 -50.667 -49 -66c-14.667 -6.66699 -30.667 -12 -48 -16s-36 -6 -56 -6c-74 0 -111.667 32.667 -113 98l25 35v1069c0 30 13.667 54.667 41 74c22.667 17.333 52 26 88 26c51.333 0 87.333 -19.667 108 -59l43 -156
c6.66699 -23.333 20.667 -55 42 -95s50.333 -88.667 87 -146l213 -336l36 -58.5l52 -87.5c27.333 40 54.666 77.333 81.999 112l88 112l158 190c72 86 124.5 167.167 157.5 243.5s49.5 146.833 49.5 211.5c0 26 8.16699 45.833 24.5 59.5s44.166 20.5 83.499 20.5
c40 0 75.667 -11 107 -33s48.333 -49.333 51 -82l-12 -27v-1026c16 -20.667 24 -44.667 24 -72c0 -26.667 -8.83301 -47.167 -26.5 -61.5s-49.167 -21.5 -94.5 -21.5z" />
    <glyph glyph-name="N" unicode="N" horiz-adv-x="1316" 
d="M1121 29c-40 0 -70.1719 5.33398 -90.5049 16.001s-37.166 34 -50.499 70c-24.667 54.667 -87.667 133 -189 235l-311 322c-27.333 27.333 -54.666 56.666 -81.999 87.999s-60.666 71.666 -99.999 120.999l-5 -721c8.66699 -19.333 13 -37.333 13 -54
c0 -21.333 -10.667 -39.5 -32 -54.5s-47.666 -22.5 -78.999 -22.5c-36.667 0 -67.667 9.5 -93 28.5s-38.666 44.167 -39.999 75.5l12 29v1042c-8 24.667 -12 38.334 -12 41.001c0 30 13.667 54 41 72c24.667 16 55.334 24 92.001 24c28.667 0 56.667 -6.66699 84 -20
c26 -15.333 39 -36.666 39 -63.999l50.5 -99l45.5 -87c27.333 -48 62.5 -99.5 105.5 -154.5s95.167 -113.5 156.5 -175.5l155 -151l183 -178v819c-6.66699 10.667 -11.334 19.5 -14.001 26.5s-4 13.833 -4 20.5c0 27.333 8.16699 48.166 24.5 62.499s45.833 21.5 88.5 21.5
c35.333 0 66.333 -9.5 93 -28.5s40 -42.167 40 -69.5v-1112l12 -43c-1.33301 -24.667 -11.5 -44.167 -30.5 -58.5s-53.167 -21.5 -102.5 -21.5z" />
    <glyph glyph-name="O" unicode="O" horiz-adv-x="1418" 
d="M1182 242c-144.667 -157.333 -335.333 -236.001 -572 -236.001c-156.667 0 -289 49.333 -397 148c-106.667 100.667 -160.667 228.334 -162 383.001l-8 47c0 207.333 70.333 393.666 211 558.999c147.333 172 322.666 258 525.999 258
c162.667 0 297.334 -49.333 404.001 -148c126.667 -113.333 190 -275.666 190 -486.999v-39c0 -185.333 -64 -347 -192 -485zM1151 765.999c0 125.333 -27.333 228.333 -82 309c-65.333 96 -159.666 144 -282.999 144c-136 0 -258.667 -73.333 -368 -220
c-104 -133.333 -156.667 -269 -158 -407l4 -41c0 -53.333 9.16699 -102.5 27.5 -147.5s43.666 -83.833 75.999 -116.5s70.666 -58 114.999 -76s93.833 -27 148.5 -27c160.667 0 290.334 60.333 389.001 181c87.333 106 131 223.333 131 352v49z" />
    <glyph glyph-name="P" unicode="P" horiz-adv-x="1259" 
d="M1121 778c-72.667 -77.333 -162.003 -140.002 -268.003 -188.002c-102.667 -45.333 -199.667 -81.333 -291 -108s-180 -43.334 -266 -50.001v-274l12 -29c0 -2.66699 0.333008 -4.66699 1 -6s1 -2.66602 1 -3.99902s0.666992 -2.66602 2 -3.99902
c-2.66699 -23.333 -15.667 -42.833 -39 -58.5s-50.666 -23.5 -81.999 -23.5c-48 0 -82.5 8.83301 -103.5 26.5s-32.167 44.167 -33.5 79.5l27 31v788c-26 10 -43.5 20.5 -52.5 31.5s-13.5 24.5 -13.5 40.5c0 16.667 4.83301 33.834 14.5 51.501s26.834 36.167 51.501 55.5
v53c-6 9.33301 -9.66699 16.833 -11 22.5s-2 11.167 -2 16.5c0 27.333 13.667 51.833 41 73.5s56 32.5 86 32.5c35.333 0 62.333 -7.5 81 -22.5s31.334 -42.167 38.001 -81.5c108 38 206.667 65.5 296 82.5s174.333 25.5 255 25.5c117.333 0 206 -18 266 -54
s95.667 -89 107 -159c4 -24 6 -43.667 6 -59c0 -102.667 -41 -199 -123 -289zM1010 1137c-4 6.66699 -14.834 12.334 -32.501 17.001s-42.834 7 -75.501 7c-196.667 0 -398.667 -46.333 -606 -139v-410c78.667 7.33301 153.834 19.833 225.501 37.5
s143.834 42.167 216.501 73.5c72 31.333 135.333 71.666 190 120.999c34.667 31.333 61.5 63.333 80.5 96s28.5 66.667 28.5 102c0 30 -9 61.667 -27 95z" />
    <glyph glyph-name="Q" unicode="Q" horiz-adv-x="1517" 
d="M1440 -16c-32.667 -24.667 -62.6699 -37 -90.0029 -37c-34 0 -61.333 13 -82 39c-31.333 17.333 -65.166 39.666 -101.499 66.999s-78.166 63 -125.499 107c-74 -53.333 -153 -92.333 -237 -117s-175 -37 -273 -37c-164 0 -288.667 43 -374 129s-128 210.333 -128 373
c0 244 97 454.333 291 631c181.333 164.667 381.333 247 600 247c140.667 0 259.334 -56.333 356.001 -169c92.667 -109.333 139 -235.666 139 -378.999c0 -98.667 -17.667 -192.667 -53 -282s-91.333 -177.666 -168 -264.999c49.333 -44 90.333 -78.5 123 -103.5
s60.667 -43.167 84 -54.5c31.333 -2.66699 53.5 -10.167 66.5 -22.5s19.5 -28.833 19.5 -49.5c0 -28.667 -15.667 -54.334 -47 -77.001zM1121 1090c-56 74.667 -127.001 112 -213.001 112c-144.667 0 -285.334 -61.333 -422.001 -184c-160 -140.667 -240 -310.667 -240 -510
c0 -106.667 23.833 -187.667 71.5 -243s118.834 -83 213.501 -83c61.333 0 121.333 8.16699 180 24.5s118.667 44.5 180 84.5l-203 182c3.33301 31.333 14.5 59 33.5 83s40.833 36 65.5 36c31.333 0 67.5 -12.333 108.5 -37s90.833 -67.667 149.5 -129
c54.667 74 93.834 146.5 117.501 217.5s35.5 143.167 35.5 216.5c0 82 -25.667 158.667 -77 230z" />
    <glyph glyph-name="R" unicode="R" horiz-adv-x="1375" 
d="M1297 45c-34 -26 -68.332 -39.002 -102.999 -39.002c-38 0 -69.333 17 -94 51l-770 494v-393c4 -11.333 6 -23.666 6 -36.999c0 -24.667 -13.333 -45.834 -40 -63.501s-57.667 -26.5 -93 -26.5c-72 0 -109 32 -111 96l19 35v805c-31.333 8 -52.833 18.5 -64.5 31.5
s-17.5 29.167 -17.5 48.5c0 16 5.83301 32.833 17.5 50.5s33.167 37.5 64.5 59.5v37c-8 18 -12 33.667 -12 47c0 28.667 12 50.667 36 66c26 17.333 53.333 26 82 26c32 0 56.5 -7.16699 73.5 -21.5s30.833 -39.166 41.5 -74.499c104 35.333 199.667 60.833 287 76.5
s170.666 23.5 249.999 23.5c117.333 0 202.333 -18 255 -54s79 -88.333 79 -157c0 -116 -76 -216.333 -228 -301c-58.667 -31.333 -126.5 -59.166 -203.5 -83.499s-172.833 -46.833 -287.5 -67.5l731 -465c8 2.66699 14.333 4 19 4h12c36.667 0 62.5 -6.83301 77.5 -20.5
s22.5 -34.167 22.5 -61.5c0 -30 -16.333 -58.667 -49 -86zM967.001 1141c-27.333 9.33301 -59.999 14.001 -97.999 14.001c-88.667 0 -177.5 -9.83301 -266.5 -29.5s-179.833 -50.834 -272.5 -93.501v-203c54.667 7.33301 109.667 17.5 165 30.5s115.666 29.5 180.999 49.5
c98.667 31.333 176 64.833 232 100.5s84 77.5 84 125.5z" />
    <glyph glyph-name="S" unicode="S" horiz-adv-x="1433" 
d="M1097 170c-178.667 -109.333 -381.334 -164.005 -608.001 -164.005c-110.667 0 -209 22.667 -295 68c-100 53.333 -150 128.333 -150 225c0 35.333 12 63.333 36 84s54.333 31 91 31c15.333 0 33.5 -10.667 54.5 -32s45.167 -58.666 72.5 -111.999
c15.333 -30 39.333 -51.833 72 -65.5s72.334 -20.5 119.001 -20.5c137.333 0 277.666 32.333 420.999 97c89.333 39.333 157.166 85 203.499 137s69.5 111.333 69.5 178c0 38 -17.167 63.833 -51.5 77.5s-77.166 20.5 -128.499 20.5c-36 0 -74 -2 -114 -6
s-83.333 -10.667 -130 -20l-242 -50c-80.667 -16 -142.667 -24 -186 -24c-84.667 0 -153 17.667 -205 53c-58.667 38.667 -88 98 -88 178c0 156 90.667 285 272 387c160 90.667 324.667 136 494 136c98 0 188 -18 270 -54c52 -21.333 89 -43.666 111 -66.999
s33 -46.666 33 -69.999c0 -26 -12 -48.5 -36 -67.5s-51.667 -28.5 -83 -28.5c-52 0 -88.333 21 -109 63c-58.667 27.333 -129 41 -211 41c-126.667 0 -248.667 -34 -366 -102c-50.667 -30 -90 -62.833 -118 -98.5s-42 -74.5 -42 -116.5
c0 -27.333 8.16699 -48.166 24.5 -62.499s38.833 -21.5 67.5 -21.5c53.333 0 155 20.333 305 61c144.667 38.667 262.334 58 353.001 58c136 0 235.167 -22.167 297.5 -66.5s93.5 -109.5 93.5 -195.5c0 -179.333 -99 -329.666 -297 -450.999z" />
    <glyph glyph-name="T" unicode="T" horiz-adv-x="1128" 
d="M1002 1184l-31.001 5.99805l-362 -12v-1026c9.33301 -15.333 14 -29.666 14 -42.999c0 -23.333 -11 -42.5 -33 -57.5s-48.667 -22.5 -80 -22.5c-35.333 0 -67.333 8.66699 -96 26c-27.333 18 -42.333 40.667 -45 68c5.33301 10.667 10.166 19.5 14.499 26.5
s9.16602 13.833 14.499 20.5v989l-279 -2c-17.333 -8 -31.166 -14 -41.499 -18s-20.5 -6 -30.5 -6c-26.667 0 -51 10.833 -73 32.5s-33 46.834 -33 75.501c0 27.333 11.667 50.5 35 69.5s51.333 28.5 84 28.5h35c28.667 0 116.334 3.5 263.001 10.5
s354.334 15.833 623.001 26.5l31 6c32.667 0 60 -9.83301 82 -29.5s33 -44.5 33 -74.5c0 -23.333 -11.333 -44.833 -34 -64.5s-53 -29.5 -91 -29.5z" />
    <glyph glyph-name="U" unicode="U" horiz-adv-x="1246" 
d="M1163 1217l-3 -859.003c0 -31.333 -12.5 -64 -37.5 -98s-66.167 -69.333 -123.5 -106c-83.333 -57.333 -167.333 -97.666 -252 -120.999c-78 -20.667 -172.333 -31 -283 -31c-102 0 -188.667 22.667 -260 68c-84.667 51.333 -127 121 -127 209l-4 950
c0 32.667 8.16699 56.834 24.5 72.501s42.833 23.5 79.5 23.5c33.333 0 61.5 -9.5 84.5 -28.5s34.5 -42.167 34.5 -69.5v-961c12.667 -31.333 32.334 -53.5 59.001 -66.5s59 -19.5 97 -19.5c73.333 0 141.166 7.83301 203.499 23.5s120.833 41.5 175.5 77.5
c39.333 24 68.5 45.333 87.5 64s28.5 32.667 28.5 42v815c-12 16.667 -18 34.334 -18 53.001c0 32 7.5 55.5 22.5 70.5s40.167 22.5 75.5 22.5c38.667 0 72 -10.667 100 -32s43.333 -47 46 -77z" />
    <glyph glyph-name="V" unicode="V" horiz-adv-x="1304" 
d="M1247 1163l-8 -21.999l2 -2l16 -11l-8 25l-2 -8l-6 -6l-206 -253.5l-128 -162.5c-139.333 -188.667 -233.666 -342.334 -282.999 -461.001c-6.66699 -19.333 -12.334 -38.166 -17.001 -56.499s-7 -36.166 -7 -53.499c0 -50.667 -9.33301 -84.834 -28 -102.501
s-55.334 -26.5 -110.001 -26.5c-40.667 0 -69.5 6.66699 -86.5 20s-25.5 33.666 -25.5 60.999c0 52 -7.16699 109.833 -21.5 173.5s-37.166 132.834 -68.499 207.501l-150 363c-60 144.667 -90 277 -90 397c0 28.667 8.83301 50.834 26.5 66.501s47.834 23.5 90.501 23.5
c34 0 60.167 -10.833 78.5 -32.5s27.5 -57.834 27.5 -108.501c0 -19.333 6.83301 -50.833 20.5 -94.5s34.167 -98.167 61.5 -163.5l74 -183.5l113 -287.5c51.333 88.667 109.5 180.167 174.5 274.5s140.5 198.166 226.5 311.499c36.667 46 65 82.667 85 110
s31.333 44.333 34 51c17.333 38.667 35.666 66.167 54.999 82.5s39.666 24.5 60.999 24.5c34.667 0 62.834 -9.83301 84.501 -29.5s32.5 -44.834 32.5 -75.501c0 -17.333 -5.33301 -37.666 -16 -60.999l2 4l33 -6l-9 20z" />
    <glyph glyph-name="W" unicode="W" horiz-adv-x="1779" 
d="M1646 924l-164 -393.997c-31.333 -76 -58 -147.833 -80 -215.5s-40.333 -131.5 -55 -191.5c-8 -32.667 -25.333 -59 -52 -79s-57.334 -30 -92.001 -30c-36.667 0 -66.5 11.333 -89.5 34s-34.5 52.334 -34.5 89.001c0 35.333 -41.667 144.666 -125 327.999l-170 371
l-193.5 -515c-41.667 -114 -62.5 -176.667 -62.5 -188c0 -35.333 -12.333 -62.166 -37 -80.499s-65.667 -27.5 -123 -27.5c-36.667 0 -64 6.83301 -82 20.5s-28.333 33.834 -31 60.501c-2.66699 11.333 -4 26.666 -4 45.999c-12 142 -31 265.333 -57 370l-105 389
c-38 144.667 -57 246.667 -57 306c0 86 43.667 129 131 129c27.333 0 49.5 -8.33301 66.5 -25s25.5 -38.667 25.5 -66c0 -48.667 4.16699 -102.334 12.5 -161.001s21.166 -122.334 38.499 -191.001l113 -461c87.333 216 151.166 382.333 191.499 499
s60.5 193.334 60.5 230.001c0 57.333 9.83301 97.333 29.5 120s55.5 34 107.5 34c48 0 78 -18.333 90 -55c2.66699 -11.333 4.66699 -26.5 6 -45.5s2 -44.167 2 -75.5c0 -26 19.833 -87.833 59.5 -185.5s97.834 -229.834 174.501 -396.501
c2.66699 -8 9.16699 -23.667 19.5 -47s27.833 -60.666 52.5 -111.999l95 244.5l150 363.5c16.667 39.333 30.834 76.166 42.501 110.499s20.834 68.5 27.501 102.5c-10.667 17.333 -16 33.666 -16 48.999c0 30 10.167 53.167 30.5 69.5s55.833 24.5 106.5 24.5
c28.667 0 52.167 -9.16699 70.5 -27.5s27.5 -41.833 27.5 -70.5v-35c-6.66699 -42 -18.5 -89.333 -35.5 -142s-38.5 -110.334 -64.5 -173.001z" />
    <glyph glyph-name="X" unicode="X" horiz-adv-x="1230" 
d="M1135 1151l-400.997 -440c22 -41.333 47 -84.166 75 -128.499s60.333 -92.5 97 -144.5c84.667 -121.333 147.334 -199.666 188.001 -234.999c19.333 -16.667 32.833 -31.834 40.5 -45.501s11.5 -25.834 11.5 -36.501c0 -24.667 -12.667 -45.834 -38 -63.501
s-54.333 -26.5 -87 -26.5c-35.333 0 -62.333 6.5 -81 19.5s-31.334 32.5 -38.001 58.5c-64 76 -128.333 158.333 -193 247c-14.667 19.333 -30.834 42.333 -48.501 69l-67.5 103c-31.333 -42 -71.333 -99.167 -120 -171.5l-183 -278.5c-30 -34 -67.667 -51 -113 -51
c-30 0 -58 10 -84 30c-28.667 19.333 -43 42.666 -43 69.999c0 16.667 4.16699 30.667 12.5 42s21.833 22 40.5 32l377 524c-74 116 -138.167 209.833 -192.5 281.5s-100.833 123.167 -139.5 154.5c-34 28.667 -51 58.667 -51 90c0 22 10.667 41.5 32 58.5
s45.666 25.5 72.999 25.5c34 0 66.667 -6.66699 98 -20c13.333 -11.333 35 -34.666 65 -69.999s67.667 -83.666 113 -144.999l156 -211l315 375c6.66699 22.667 18.667 40.167 36 52.5s42.333 18.5 75 18.5c35.333 0 64.166 -8.83301 86.499 -26.5s33.5 -42.167 33.5 -73.5
c0 -34 -15 -62 -45 -84z" />
    <glyph glyph-name="Y" unicode="Y" horiz-adv-x="1238" 
d="M1193 1190l-439.996 -583.997l-314 -432c7.33301 -12 12 -21.833 14 -29.5s3 -14.834 3 -21.501c0 -30 -10.333 -53.833 -31 -71.5s-47.334 -26.5 -80.001 -26.5c-35.333 0 -70 9.33301 -104 28c-20.667 11.333 -34.834 23.5 -42.501 36.5s-11.5 26.167 -11.5 39.5
c0 20.667 11 42.667 33 66l295 415l-440 586c-30 10.667 -50.5 23.167 -61.5 37.5s-16.5 29.833 -16.5 46.5c0 28.667 15 52 45 70c27.333 17.333 58 26 92 26c31.333 0 54.5 -5 69.5 -15s26.167 -24.667 33.5 -44l391 -541l375 524
c6.66699 23.333 17.167 40.166 31.5 50.499s35.166 15.5 62.499 15.5c17.333 0 34.666 -3 51.999 -9s32.833 -13.833 46.5 -23.5s24.5 -21.334 32.5 -35.001s12 -27.5 12 -41.5c0 -26.667 -15.667 -49 -47 -67z" />
    <glyph glyph-name="Z" unicode="Z" horiz-adv-x="1359" 
d="M1272 1180l-920.002 -976.999l728 16c22.667 52 62.667 78 120 78c31.333 0 59 -14 83 -42s36 -60.333 36 -97c0 -37.333 -9.83301 -67.5 -29.5 -90.5s-45.167 -34.5 -76.5 -34.5h-82c-32.667 0 -71.667 0.666992 -117 2c-44 1.33301 -82.333 2.33301 -115 3
s-60.667 1 -84 1c-35.333 0 -79.333 -1 -132 -3l-185 -7c-70 -2.66699 -131.167 -5.16699 -183.5 -7.5s-95.5 -3.5 -129.5 -3.5c-44 0 -79 8.33301 -105 25c-31.333 18 -47 44.667 -47 80c0 22 10.333 47.333 31 76l927 972l-557 -28c-31.333 -58.667 -76.333 -88 -135 -88
c-42 0 -71.833 8.5 -89.5 25.5s-26.5 43.167 -26.5 78.5c0 45.333 18.333 89 55 131c18.667 23.333 38.334 40.166 59.001 50.499s41.334 15.5 62.001 15.5c28.667 0 52.334 -9 71.001 -27l756 33c31.333 1.33301 62.666 -5.66699 93.999 -21c30 -14.667 45 -35.667 45 -63
c0 -12 -4 -26.333 -12 -43s-21.667 -35 -41 -55z" />
    <glyph glyph-name="bracketleft" unicode="[" horiz-adv-x="786" 
d="M611 -350l-366 -17.0029l-62 -10c-39.333 0 -72.333 11.667 -99 35s-40 53.333 -40 90v1344c0 65.333 34.667 98 104 98c20.667 0 42.667 -2 66 -6l283 43c27.333 13.333 59.333 20 96 20c35.333 0 64.666 -8.5 87.999 -25.5s35 -38.5 35 -64.5
c0 -27.333 -12.667 -51.166 -38 -71.499s-53.666 -30.5 -84.999 -30.5c-9.33301 0 -18.5 1.33301 -27.5 4s-19.833 7.33398 -32.5 14.001l-268 -39v-1237l324 29l33 10c31.333 -1.33301 59.333 -8.66602 84 -21.999c24 -16.667 36 -38 36 -64s-10.5 -48.5 -31.5 -67.5
s-54.167 -29.833 -99.5 -32.5z" />
    <glyph glyph-name="backslash" unicode="\" horiz-adv-x="929" 
d="M827 29c-24.667 -16.667 -58.666 -25.002 -101.999 -25.002c-40 0 -79 9.66699 -117 29c-36.667 22 -56.334 47.333 -59.001 76l20 28l-455 928c-21.333 9.33301 -36.5 20.833 -45.5 34.5s-13.5 30.167 -13.5 49.5c0 24.667 8.16699 43.834 24.5 57.501
s44.5 20.5 84.5 20.5c34 0 66.667 -8.33301 98 -25c34 -18.667 53.667 -44 59 -76l461 -929c35.333 -11.333 59.5 -24.166 72.5 -38.499s19.5 -30.833 19.5 -49.5c0 -36 -15.667 -62.667 -47 -80z" />
    <glyph glyph-name="bracketright" unicode="]" horiz-adv-x="894" 
d="M676 -319h-11.499c-5 0 -10.833 0.666992 -17.5 2l-303 -43c-30 -11.333 -60.667 -17 -92 -17c-32.667 0 -61.334 8.16699 -86.001 24.5s-37 36.833 -37 61.5c0 27.333 13 52 39 74s54 33 84 33c24.667 0 47 -5.66699 67 -17l265 39v1233l-318 -24
c-23.333 -14 -45.666 -21 -66.999 -21c-27.333 0 -52.333 10.667 -75 32s-34 45.333 -34 72c0 22 10.5 40.5 31.5 55.5s60.5 24.5 118.5 28.5l358 23c23.333 6.66699 43.666 10 60.999 10c36 0 64.833 -8.16699 86.5 -24.5s37.167 -42.833 46.5 -79.5l11 -8v-1362
c0 -28.667 -12 -51.167 -36 -67.5s-54.333 -24.5 -91 -24.5z" />
    <glyph glyph-name="asciicircum" unicode="^" horiz-adv-x="1136" 
d="M953 748c-34 0 -58.834 6.66895 -74.501 20.002s-24.834 34.333 -27.501 63l-256 230l-295 -232c-15.333 -54 -49.666 -81 -102.999 -81s-89.833 7.5 -109.5 22.5s-29.5 33.833 -29.5 56.5c0 15.333 4.83301 31.166 14.5 47.499s25.834 34.166 48.501 53.499l377 319
c18 28.667 48.667 43 92 43c36 0 64.5 -5.5 85.5 -16.5s37.833 -27.833 50.5 -50.5l311 -299c27.333 -20.667 41 -47.334 41 -80.001c0 -27.333 -12 -50.166 -36 -68.499s-53.667 -27.5 -89 -27.5z" />
    <glyph glyph-name="underscore" unicode="_" horiz-adv-x="1160" 
d="M-68 -291v207h1296v-207h-1296z" />
    <glyph glyph-name="grave" unicode="`" horiz-adv-x="730" 
d="M598 969c-32.667 -20.667 -68.001 -30.998 -106.001 -30.998c-63.333 0 -99.666 32 -108.999 96l-244 228c-22.667 9.33301 -38.5 19.5 -47.5 30.5s-13.5 23.833 -13.5 38.5c0 27.333 17 53.333 51 78c19.333 15.333 36.833 25.666 52.5 30.999s31.167 8 46.5 8
c61.333 0 98 -31.333 110 -94l234 -217c28.667 -10 49 -22.833 61 -38.5s18 -32.834 18 -51.501c0 -30.667 -17.667 -56.667 -53 -78z" />
    <glyph glyph-name="a" unicode="a" horiz-adv-x="1449" 
d="M1322 25c-52 0 -87.833 6.83398 -107.5 20.501s-29.5 30.5 -29.5 50.5c0 4 0.666992 8.5 2 13.5s2.66602 10.833 3.99902 17.5c2.66699 6.66699 4.66699 13.834 6 21.501s2 13.5 2 17.5l6 18l-41.5 71c-17 29.333 -40.833 68 -71.5 116h-710
c-8 -12.667 -15.167 -23.334 -21.5 -32.001s-12.833 -18.667 -19.5 -30c-6.66699 -10.667 -13.167 -21.834 -19.5 -33.501s-12.833 -24.834 -19.5 -39.501l-25 -56c-10.667 -26 -16 -50.667 -16 -74c0 -20 -12.333 -38.5 -37 -55.5s-53.334 -25.5 -86.001 -25.5
c-49.333 0 -83.833 8.16699 -103.5 24.5s-29.5 38.166 -29.5 65.499c0 17.333 3.83301 37.333 11.5 60s20.834 46.334 39.501 71.001l90 123l232 399c43.333 76.667 86.5 146.667 129.5 210s84.5 121.666 124.5 174.999c4 31.333 20 57 48 77s59 30 93 30
c30 0 56 -8.66699 78 -26s33 -36.666 33 -57.999c0 -40 7.83301 -83.167 23.5 -129.5s37.834 -96.833 66.501 -151.5c12 -23.333 30.333 -55.5 55 -96.5s56.667 -90.167 96 -147.5l78 -108.5l109 -155.5c46 -68 79.333 -122.167 100 -162.5s31 -70.166 31 -89.499
c0 -31.333 -11.667 -57.5 -35 -78.5s-52 -31.5 -86 -31.5zM744 954.001l-237 -399h452z" />
    <glyph glyph-name="b" unicode="b" horiz-adv-x="1396" 
d="M1183 281c-48 -33.333 -99.4961 -63.498 -154.496 -90.498s-114.167 -50.167 -177.5 -69.5c-74.667 -23.333 -185.667 -44.666 -333 -63.999c-72.667 -8 -137.334 -13.333 -194.001 -16s-106 -2.66699 -148 0c-32 2.66699 -64.333 13 -97 31
c-20 10.667 -33.833 21.5 -41.5 32.5s-10.834 20.5 -9.50098 28.5c1.33301 11.333 5.16602 21.666 11.499 30.999s18.833 18 37.5 26l49 914l-16 29c2.66699 28.667 13.167 50.167 31.5 64.5s47.5 19.833 87.5 16.5c17.333 -1.33301 33.166 -5 47.499 -11
s29.833 -15 46.5 -27c177.333 42 363 59 557 51c86 -4 159.667 -19 221 -45c46.667 -19.333 79.167 -41 97.5 -65s26.833 -50.333 25.5 -79c-1.33301 -16 -5.33301 -32.167 -12 -48.5s-18 -33.5 -34 -51.5s-36.833 -36.167 -62.5 -54.5s-57.834 -38.5 -96.501 -60.5
c94.667 -18.667 165.834 -42.334 213.501 -71.001s83.167 -63.667 106.5 -105c22 -40.667 32 -78 30 -112c-4 -84.667 -66 -169.334 -186 -254.001zM845.004 1059c-94 5.33301 -182.667 3.49902 -266 -5.50098s-164.666 -26.5 -243.999 -52.5l-10 -165
c83.333 0 161.166 5.33301 233.499 16s143.166 27.667 212.499 51c53.333 18 99.5 36.833 138.5 56.5s72.833 45.834 101.5 78.501c-31.333 7.33301 -59.666 12.333 -84.999 15s-52.333 4.66699 -81 6zM1007 662.001c-64 14.667 -132.501 23.6699 -205.501 27.0029
s-151.833 2.33301 -236.5 -3c-49.333 -2.66699 -94.166 -5.33398 -134.499 -8.00098s-78.166 -5.33398 -113.499 -8.00098l-25 -473c93.333 2.66699 186.666 13.5 279.999 32.5s191.333 46.833 294 83.5c90 32.667 160.5 68.5 211.5 107.5s78.167 82.5 81.5 130.5
c1.33301 31.333 -12.667 55.166 -42 71.499s-66 29.5 -110 39.5z" />
    <glyph glyph-name="c" unicode="c" horiz-adv-x="1261" 
d="M1129 950c-35.333 0 -61.8359 6.49902 -79.5029 19.499s-30.167 31.167 -37.5 54.5c-2.66699 13.333 -24.167 25.166 -64.5 35.499s-99.833 15.5 -178.5 15.5c-173.333 0 -312.666 -77 -417.999 -231c-80.667 -120 -121 -236 -121 -348
c0 -102.667 27.333 -183.667 82 -243s134 -89 238 -89c58.667 0 130.334 16.333 215.001 49c39.333 16.667 75.333 33.834 108 51.501s63.334 38.167 92.001 61.5c10 65.333 51 98 123 98c48 0 80.833 -7.16699 98.5 -21.5s26.5 -35.166 26.5 -62.499
c0 -19.333 -9.83301 -41.5 -29.5 -66.5s-41.167 -44.5 -64.5 -58.5c-202 -143.333 -391.667 -215 -569 -215c-161.333 -0 -289.666 44.333 -384.999 133c-101.333 90 -152 213.667 -152 371c0 95.333 28.667 200.333 86 315c56 108 123 194.667 201 260
c132 109.333 288.333 164 469 164c109.333 0 213 -18.333 311 -55c61.333 -23.333 104.666 -47.333 129.999 -72s38 -48.667 38 -72c0 -26.667 -11.333 -49 -34 -67s-51 -27 -85 -27z" />
    <glyph glyph-name="d" unicode="d" horiz-adv-x="1345" 
d="M1240 549c-95.333 -191.333 -297.335 -342.999 -606.002 -454.999c-95.333 -34 -179.833 -59.833 -253.5 -77.5s-136.5 -27.834 -188.5 -30.501c-27.333 -2.66699 -50.666 1.33301 -69.999 12c-22 9.33301 -33 23 -33 41l-53 1028c-1.33301 48 -1.33301 74 0 78
c2.66699 13.333 10.834 24.5 24.501 33.5s34.834 14.167 63.501 15.5c26 1.33301 48.5 -1.33398 67.5 -8.00098s38.167 -18.334 57.5 -35.001c78 24.667 157.5 43.834 238.5 57.501s166.833 23.167 257.5 28.5c129.333 6.66699 250.666 -22.666 363.999 -87.999
c127.333 -75.333 194.333 -172.333 201 -291c5.33301 -100.667 -18 -203.667 -70 -309zM948.998 1018c-39.333 22 -78.5 37.333 -117.5 46s-78.167 11.667 -117.5 9c-148.667 -5.33301 -301 -42 -457 -110l43 -801c108 13.333 206 38.833 294 76.5s171 87.167 249 148.5
c173.333 136.667 257.333 282.667 252 438c-4 78 -52.667 142.333 -146 193z" />
    <glyph glyph-name="e" unicode="e" horiz-adv-x="1214" 
d="M1140 999c-27.333 -17.333 -61.998 -24.668 -103.998 -22.001c-26 0 -56 8 -90 24l-629 7l-16 -287l542 18c11.333 0 23 0.666992 35 2s25.667 1.33301 41 0c52 -2.66699 88.5 -12.167 109.5 -28.5s30.833 -38.166 29.5 -65.499
c-2.66699 -31.333 -12.834 -54.833 -30.501 -70.5s-47.834 -22.167 -90.501 -19.5c-10.667 0 -36.334 4 -77.001 12l-570 -20l-16 -344l725 2c20.667 5.33301 42.334 7.33301 65.001 6c48 -2.66699 80.833 -11.834 98.5 -27.501s25.834 -37.834 24.501 -66.501
c-1.33301 -26 -10.166 -46.5 -26.499 -61.5s-44.166 -22.5 -83.499 -22.5h-56c-94 0 -206.167 -0.333008 -336.5 -1s-278.833 0.333008 -445.5 3c-28.667 -9.33301 -57.334 -13.333 -86.001 -12c-34 1.33301 -64.333 11.833 -91 31.5s-39.334 41.834 -38.001 66.501
c0 14.667 10.333 32.334 31 53.001l20 377c-17.333 10.667 -29.166 21.167 -35.499 31.5s-8.83301 22.5 -7.5 36.5c1.33301 14.667 5.5 28.5 12.5 41.5s19.833 27.167 38.5 42.5l17 303c-26 10.667 -43.5 22.167 -52.5 34.5s-12.833 25.833 -11.5 40.5
c1.33301 10 4.5 19.667 9.5 29s14.833 21 29.5 35c1.33301 19.333 5.16602 34 11.499 44s16.166 18.667 29.499 26c23.333 14.667 50 20.667 80 18c28.667 -2.66699 52.834 -8.83398 72.501 -18.501s37.167 -25.5 52.5 -47.5l649 2c28.667 8.66699 58 12.334 88 11.001
c37.333 -1.33301 68.666 -11 93.999 -29c27.333 -18 40.333 -42.667 39 -74c-2.66699 -35.333 -19.667 -62 -51 -80z" />
    <glyph glyph-name="f" unicode="f" horiz-adv-x="1117" 
d="M1053 1104c-23.333 -23.333 -53.3359 -36.3311 -90.0029 -38.998c-20.667 -2.66699 -43.334 1.33301 -68.001 12l-612 -94l16 -264l578 88c15.333 8 29.833 13.667 43.5 17s27.834 5.66602 42.501 6.99902c60 4.66699 92 -22.333 96 -81
c2.66699 -34.667 -8.83301 -63.834 -34.5 -87.501s-59.167 -37.5 -100.5 -41.5l-18 10l-17 10l-581 -90l22 -406l15 -53c1.33301 -26 -7 -46.5 -25 -61.5s-50 -23.833 -96 -26.5c-54.667 -2.66699 -93 2.83301 -115 16.5s-33.667 33.5 -35 59.5
c-1.33301 22 10.334 47.333 35.001 76l-20 387c-19.333 9.33301 -32.166 18.5 -38.499 27.5s-10.166 19.5 -11.499 31.5c0 10.667 3.16699 21.834 9.5 33.501s16.833 25.167 31.5 40.5l-12 293c-16.667 10.667 -27.667 20.167 -33 28.5s-8.66602 17.833 -9.99902 28.5
c-1.33301 28.667 11.667 54 39 76c18 57.333 55 86.666 111 87.999c32.667 2.66699 64 -11 94 -41l631 102c6.66699 2.66699 14.667 5.16699 24 7.5s21 4.16602 35 5.49902c35.333 2.66699 65.666 -4.16602 90.999 -20.499s39.333 -38.833 42 -67.5
c2.66699 -23.333 -10.333 -47.333 -39 -72z" />
    <glyph glyph-name="g" unicode="g" horiz-adv-x="1646" 
d="M1534 422c-100 -143.333 -234.665 -250.669 -403.998 -322.002c-154 -65.333 -326 -98 -516 -98c-172 0 -312 38.333 -420 115c-121.333 86 -182 211 -182 375c0 108.667 25.333 205.334 76 290.001c47.333 75.333 119 147.666 215 216.999c56 38.667 115 74 177 106
s128.667 59.667 200 83c143.333 49.333 279 74 407 74c97.333 0 193 -15 287 -45c30 -11.333 62.667 -32 98 -62c38.667 -34 58 -62.667 58 -86c0 -27.333 -12 -50.833 -36 -70.5s-51.667 -29.5 -83 -29.5c-23.333 0 -46 7.83301 -68 23.5s-37 35.834 -45 60.501
c-8 8 -15.333 12.667 -22 14c-23.333 8 -55.166 13.833 -95.499 17.5s-90.5 5.5 -150.5 5.5c-144.667 0 -307.334 -54 -488.001 -162c-102 -62.667 -180 -130 -234 -202s-81 -150 -81 -234c0 -108 39 -190.667 117 -248c69.333 -52 157.333 -78 264 -78
c124 0 217.667 6.66699 281 20c86 20.667 170.333 62.334 253 125.001c58 44 107.667 88.167 149 132.5s78.666 97.166 111.999 158.499l-226 -41c-155.333 -28.667 -288 -50.5 -398 -65.5s-199 -22.5 -267 -22.5c-32.667 0 -62 7.66699 -88 23c-26 16 -39 38.333 -39 67
s12.167 52.334 36.5 71.001s54.5 28 90.5 28c16 0 49.333 2.33301 100 7s119.667 11.667 207 21l249.5 29c68.333 8 120.833 15.333 157.5 22c90.667 15.333 159.5 26.666 206.5 33.999s75.167 11 84.5 11c41.333 0 71.166 -8.5 89.499 -25.5s27.5 -42.5 27.5 -76.5
c0 -75.333 -33.333 -162.666 -100 -261.999z" />
    <glyph glyph-name="h" unicode="h" horiz-adv-x="1357" 
d="M1311 1081l-49.002 -1007c0 -24.667 -14.333 -44 -43 -58c-15.333 -5.33301 -30.166 -9.33301 -44.499 -12s-29.833 -3.33398 -46.5 -2.00098c-40.667 2.66699 -69.834 12.167 -87.501 28.5s-26.5 39.5 -26.5 69.5l24 29l33 573h-762l-28 -538c0 -8 2 -23 6 -45
c-2.66699 -23.333 -14 -41.5 -34 -54.5s-51.667 -18.167 -95 -15.5c-45.333 2.66699 -76.166 10.834 -92.499 24.501s-23.833 32.167 -22.5 55.5c0 10.667 7.66699 23.667 23 39l28 559c-26 23.333 -38.333 47.333 -37 72c1.33301 27.333 16.333 49 45 65l13 275l-6 28
c2.66699 24.667 13.5 43.834 32.5 57.501s50.5 19.167 94.5 16.5c38 -2.66699 64.167 -10.834 78.5 -24.501s20.833 -32.834 19.5 -57.501l-17 -282l762 -5l13 211l-13 37c2.66699 24.667 12.667 43.5 30 56.5s46.333 18.167 87 15.5c34 -2.66699 62 -12.334 84 -29.001
c24.667 -16 36.334 -37 35.001 -63z" />
    <glyph glyph-name="i" unicode="i" horiz-adv-x="476" 
d="M278 25c-17.333 -1.33301 -34.1689 -0.666992 -50.502 2s-33.833 8 -52.5 16c-21.333 8 -36.166 16.5 -44.499 25.5s-12.833 18.833 -13.5 29.5c0 8.66699 2 17.667 6 27s13.333 20.333 28 33l-49 923l-25 33c0 30 16.333 56 49 78c28.667 22 64 33.667 106 35
c39.333 2.66699 67.333 -2.5 84 -15.5s26.334 -31.833 29.001 -56.5c0 -6.66699 -1.5 -15.834 -4.5 -27.501s-9.16699 -25.167 -18.5 -40.5l51 -927c10 -11.333 16.5 -21 19.5 -29s5.16699 -17 6.5 -27c2.66699 -21.333 -4.83301 -39.166 -22.5 -53.499
s-50.5 -22.833 -98.5 -25.5z" />
    <glyph glyph-name="j" unicode="j" horiz-adv-x="1244" 
d="M1195 1026l-41.0029 -754.003c-1.33301 -31.333 -15.666 -64.333 -42.999 -99s-69.666 -72 -126.999 -112c-69.333 -44.667 -145.666 -78 -228.999 -100s-174.666 -30 -273.999 -24c-158.667 8 -273.5 39.667 -344.5 95s-103.833 133.333 -98.5 234
c2.66699 40 15.667 71.167 39 93.5s54.666 32.833 93.999 31.5c37.333 0 69.166 -10.833 95.499 -32.5s38.833 -47.5 37.5 -77.5c-1.33301 -11.333 -4.33301 -22.166 -9 -32.499s-14.334 -22.166 -29.001 -35.499c5.33301 -39.333 26 -67 62 -83s80.667 -25.333 134 -28
c147.333 -8 268.333 20 363 84c32.667 22 58.834 44.667 78.501 68s30.167 46.666 31.5 69.999l39 704c-14.667 19.333 -24.5 33.333 -29.5 42s-7.5 16 -7.5 22c2.66699 25.333 18.334 45 47.001 59c30 10.667 60 15.334 90 14.001c36 -1.33301 67 -11.166 93 -29.499
s39 -40.5 39 -66.5c0 -8 -3.66699 -22.333 -11 -43z" />
    <glyph glyph-name="k" unicode="k" horiz-adv-x="1287" 
d="M1220 66c-28.667 -14 -58.999 -21.0059 -90.999 -21.0059c-27.333 -2.66699 -48.5 -0.333984 -63.5 6.99902s-26.5 18 -34.5 32l-770 479l23 -430c4 -5.33301 8.33301 -10.666 13 -15.999s9 -11.666 13 -18.999c0 -27.333 -14.333 -49.666 -43 -66.999
c-27.333 -18 -59.333 -27.667 -96 -29c-31.333 -2.66699 -60.666 3.33301 -87.999 18c-28.667 15.333 -43 35.333 -43 60v10c0 1.33301 0.333008 2.33301 1 3s1 2.33398 1 5.00098l25 27l-50 950c-5.33301 10 -10 23 -14 39c-1.33301 26 5.16699 45.833 19.5 59.5
s39.166 21.834 74.499 24.501c15.333 0 30.833 -1.66699 46.5 -5s30.834 -9.66602 45.501 -18.999c18 -10 30.5 -20.167 37.5 -30.5s11.833 -21.5 14.5 -33.5l-7 -25l11 -196l461 287c24 28.667 56 43.667 96 45c30 1.33301 56.167 -6.66699 78.5 -24
s34.166 -39.666 35.499 -66.999c2 -21.333 -2.83301 -38.166 -14.5 -50.499s-31.167 -21.166 -58.5 -26.499l-514 -316l860 -534c35.333 -5.33301 59.5 -13.5 72.5 -24.5s20.167 -24.167 21.5 -39.5c1.33301 -14.667 -2.83398 -27.834 -12.501 -39.501
s-26.5 -22.834 -50.5 -33.501z" />
    <glyph glyph-name="l" unicode="l" horiz-adv-x="1011" 
d="M846 41l-13 3.99707l-674 -25c-17.333 2 -33.833 5.66699 -49.5 11s-31.167 12 -46.5 20c-34 20.667 -49.667 43.334 -47 68.001c1.33301 9.33301 4.83301 18.166 10.5 26.499s17.167 17.833 34.5 28.5l49 948l-6 6c-5.33301 15.333 -7.33301 26.333 -6 33
c0 27.333 15 48 45 62c27.333 12 57.333 17.333 90 16c40 -2.66699 67.833 -10.834 83.5 -24.501s22.834 -33.5 21.501 -59.5l-13 -47l-47 -920l512 25c22 9.33301 45.333 13.333 70 12c16 -1.33301 31.667 -3.66602 47 -6.99902s30.333 -9.66602 45 -18.999
c31.333 -18 45.666 -40 42.999 -66c-2.66699 -31.333 -15 -55.166 -37 -71.499s-59.333 -23.166 -112 -20.499z" />
    <glyph glyph-name="m" unicode="m" horiz-adv-x="1627" 
d="M1485 55c-40.667 -2.66699 -76.668 3.66211 -108.001 18.9951c-31.333 14.667 -49.333 37 -54 67c3.33301 6 6.33301 10.333 9 13l8 8l14 14l-31 574l-129.5 -169.5l-113.5 -136.5l-73 -101c-18.667 -26.667 -31.334 -45.334 -38.001 -56.001
c-39.333 -64.667 -66.666 -127 -81.999 -187c-1.33301 -18.667 -9.83301 -33.834 -25.5 -45.501s-43.167 -18.834 -82.5 -21.501c-82 -5.33301 -125 31.334 -129 110.001c-2.66699 31.333 -34.167 90.5 -94.5 177.5s-155.166 208.167 -284.499 363.5l24 -553
c12.667 -12 21.667 -27.667 27 -47c0 -10.667 -3.83301 -21.167 -11.5 -31.5s-21.5 -21.166 -41.5 -32.499c-15.333 -8 -31.166 -13.667 -47.499 -17s-33.5 -5.66602 -51.5 -6.99902c-72 -4 -110 23.333 -114 82c2.66699 5.33301 6 10.666 10 15.999s8 12.333 12 21l-51 968
c-1.33301 24.667 11 47.334 37 68.001c24.667 18 53.334 28.333 86.001 31c39.333 2.66699 68 -3.16602 86 -17.499s34.333 -43.5 49 -87.5c31.333 -91.333 88 -190.333 170 -297l225 -293c19.333 -22.667 36.166 -43.667 50.499 -63s29.166 -41.333 44.499 -66l77.5 109
c24.333 32.667 51.5 67.334 81.5 104.001l150 183c66.667 82 115 158.5 145 229.5s43.667 135.167 41 192.5c-2.66699 22.667 3.5 40.834 18.5 54.501s43.167 21.834 84.5 24.501c36.667 1.33301 72 -6 106 -22c32.667 -19.333 51 -44 55 -74l-12 -24l49 -936
c18 -14 27.667 -34.667 29 -62c1.33301 -23.333 -6.5 -42.166 -23.5 -56.499s-47.5 -22.833 -91.5 -25.5z" />
    <glyph glyph-name="n" unicode="n" horiz-adv-x="1303" 
d="M1206 109l10 -42.998c-2.66699 -22 -14 -38.833 -34 -50.5s-51 -16.834 -93 -15.501c-40 1.33301 -69.167 7.83301 -87.5 19.5s-35.166 34.5 -50.499 68.5c-10.667 27.333 -30.667 59.5 -60 96.5s-67.333 79.167 -114 126.5l-299 307c-22.667 23.333 -46.667 50 -72 80
s-58 72.333 -98 127l-39 -659c3.33301 -10.667 6 -19.834 8 -27.501s3 -15.5 3 -23.5c0 -19.333 -13.667 -35.666 -41 -48.999c-26 -12.667 -50.667 -18.334 -74 -17.001c-38 2.66699 -68 13 -90 31c-24.667 19.333 -37 43.333 -37 72l12 26l51 948
c-4 11.333 -7 19.333 -9 24s-2.33301 9 -1 13c2.66699 28.667 17.667 50 45 64c30 12 59.333 17.333 88 16c31.333 -1.33301 60 -8.66602 86 -21.999c26 -15.333 38.333 -34 37 -56c-1.33301 -23.333 10.667 -56.833 36 -100.5s62 -96.834 110 -159.501l106 -137
c31.333 -39.333 59.333 -71.333 84 -96l316 -316l38 744c-10.667 22 -15.334 37 -14.001 45c1.33301 23.333 10.5 41.5 27.5 54.5s47.5 18.833 91.5 17.5c28.667 -3.33301 55.667 -14.5 81 -33.5s37.333 -41.5 36 -67.5z" />
    <glyph glyph-name="o" unicode="o" horiz-adv-x="1425" 
d="M1186 219c-146 -143.333 -336.668 -215 -572.001 -215c-150 0 -279 42.333 -387 127c-113.333 88.667 -170.666 207.334 -171.999 356.001l-8 43c0 195.333 73 368.333 219 519c151.333 151.333 324 227 518 227c178 0 321.333 -52.667 430 -158
c109.333 -102 164 -242.667 164 -422v-37c0 -168.667 -64 -315.334 -192 -440.001zM1155 696c0 118.667 -29.333 215.668 -88 291.001c-64 80.667 -156.333 121 -277 121c-133.333 0 -254 -62 -362 -186c-108 -124.667 -162.667 -253 -164 -385l4 -37
c2.66699 -102.667 39 -185.334 109 -248.001c69.333 -57.333 155.333 -86 258 -86c159.333 0 289 54.667 389 164c87.333 98 131 205 131 321v45z" />
    <glyph glyph-name="p" unicode="p" horiz-adv-x="1236" 
d="M343 100l-0.000976562 -2.00391l2 -6c0 -13.333 -2.33301 -24.833 -7 -34.5s-14 -18.5 -28 -26.5c-20.667 -14 -48 -22.333 -82 -25c-47.333 -2.66699 -82 3.83301 -104 19.5s-34.333 39.167 -37 70.5l25 29l-37 717c-27.333 8 -45.5 16.833 -54.5 26.5
s-14.167 21.834 -15.5 36.501c-1.33301 15.333 2.83398 30.833 12.501 46.5s25.834 33.834 48.501 54.501l-2 53c-9.33301 8 -14 18.333 -14 31c-2.66699 22.667 10.333 45 39 67c30 23.333 58 35 84 35c35.333 2.66699 62.333 -2.83301 81 -16.5s32.667 -37.5 42 -71.5
c105.333 39.333 202 69.333 290 90s172.333 33 253 37c118.667 6.66699 208.667 -5.33301 270 -36s99.666 -76.667 114.999 -138c5.33301 -20.667 8 -44 8 -70c0 -91.333 -39.667 -178.666 -119 -261.999c-34 -36.667 -72.167 -69.667 -114.5 -99
s-87.5 -55.666 -135.5 -78.999c-100.667 -46.667 -195.5 -84 -284.5 -112s-176.5 -47.333 -262.5 -58l11 -252zM993.999 1055c-4 5.33301 -14.832 10 -32.499 14s-42.834 4.66699 -75.501 2c-98.667 -5.33301 -197.167 -21 -295.5 -47s-199.833 -63.667 -304.5 -113l22 -372
c82 10.667 157.833 26.167 227.5 46.5s138.5 46.5 206.5 78.5c34.667 14.667 67 31.167 97 49.5s58 39.166 84 62.499c32.667 30 58.167 60.333 76.5 91s27.5 63.334 27.5 98.001c0 32.667 -11 62.667 -33 90z" />
    <glyph glyph-name="q" unicode="q" horiz-adv-x="1476" 
d="M1420 -14c-30 -24.667 -60.001 -36.999 -90.001 -36.999c-35.333 0 -62 12.333 -80 37c-32.667 16 -67.5 36.667 -104.5 62s-78.5 57 -124.5 95c-74 -47.333 -153 -82.333 -237 -105s-175 -34 -273 -34c-161.333 0 -283.666 37 -366.999 111
c-90 78.667 -135 194.667 -135 348c0 218.667 97 409.667 291 573c184 152 384 228 600 228c135.333 0 252 -49.333 350 -148c96.667 -100.667 145 -218.667 145 -354c0 -88.667 -17.333 -174 -52 -256s-91 -163.333 -169 -244c50.667 -39.333 92 -70.333 124 -93
s59.667 -38.667 83 -48c32.667 -2.66699 55.167 -9.83398 67.5 -21.501s18.5 -27.167 18.5 -46.5c0 -26 -15.667 -48.333 -47 -67zM1099 993.001c-36 45.333 -70.999 75.333 -104.999 90c-23.333 8.66699 -58.666 13 -105.999 13c-143.333 0 -284 -56.667 -422 -170
c-160 -132.667 -240 -287 -240 -463c0 -98.667 23.833 -173.167 71.5 -223.5s118.834 -75.5 213.501 -75.5c61.333 0 120.666 7.5 177.999 22.5s118.666 40.167 183.999 75.5l-205 166c3.33301 30 14.5 56 33.5 78s40.833 33 65.5 33c31.333 0 67.833 -11.333 109.5 -34
s91.167 -62 148.5 -118c53.333 68 92.166 133.833 116.499 197.5s36.5 129.5 36.5 197.5c0 72.667 -26.333 143 -79 211z" />
    <glyph glyph-name="r" unicode="r" horiz-adv-x="1367" 
d="M1263 8c-19.333 -9.33301 -37.167 -16.8301 -53.5 -22.4971s-32.833 -7.5 -49.5 -5.5c-36.667 1.33301 -66.667 17.666 -90 48.999l-747 489l-19 -354c2.66699 -14 3.33398 -25.667 2.00098 -35c-1.33301 -12 -5.33301 -22.833 -12 -32.5
s-18.334 -17.834 -35.001 -24.501c-27.333 -15.333 -56.666 -21.666 -87.999 -18.999c-39.333 2.66699 -67 11.5 -83 26.5s-24 36.833 -24 65.5l21 33l41 731c-32.667 10 -54.5 21.167 -65.5 33.5s-15.833 25.833 -14.5 40.5c1.33301 15.333 8.5 31.166 21.5 47.499
s35.167 33.833 66.5 52.5v33c-4 11.333 -6.66699 19.666 -8 24.999s-2 10.666 -2 15.999c2.66699 27.333 16.334 48 41.001 62c26 13.333 54 19.333 84 18s53.5 -8.83301 70.5 -22.5s30.167 -37.5 39.5 -71.5c105.333 27.333 202 46 290 56s171.667 13 251 9
c117.333 -6.66699 201 -28 251 -64s73.667 -85 71 -147c-2.66699 -50 -22.834 -96.833 -60.501 -140.5s-96.834 -83.5 -177.501 -119.5c-60 -26 -129.333 -48.167 -208 -66.5s-176 -34.166 -292 -47.499l709 -461c8 2.66699 14.5 4 19.5 4h11.5
c38 -2.66699 64.167 -10.5 78.5 -23.5s20.166 -32.5 17.499 -58.5c-1.33301 -14 -6.16602 -27 -14.499 -39s-22.5 -24.333 -42.5 -37zM999.999 1018c-20 6.66699 -38.6689 11.999 -56.002 15.999s-34.666 6.66699 -51.999 8c-87.333 6 -175.666 1.83301 -264.999 -12.5
s-183.333 -38.166 -282 -71.499l-10 -186c58.667 4 116 10.5 172 19.5s115.333 20.833 178 35.5c98 23.333 176.5 48.333 235.5 75s89.167 59 90.5 97l-21 23c2.66699 -2.66699 6 -4 10 -4z" />
    <glyph glyph-name="s" unicode="s" horiz-adv-x="1431" 
d="M1096 152c-176 -98.667 -378.668 -148.006 -608.001 -148.006c-109.333 0 -205.666 19.667 -288.999 59c-104 50.667 -156 119.667 -156 207c0 31.333 13 57.333 39 78c24.667 18 54 27 88 27c15.333 0 33.5 -9.66699 54.5 -29s45.167 -52.666 72.5 -99.999
c16.667 -28.667 41 -49.167 73 -61.5s71.333 -18.5 118 -18.5c137.333 0 275 28 413 84c90 35.333 159.333 76.833 208 124.5s73 103.834 73 168.501c0 26 -14.667 47.167 -44 63.5s-74.666 24.5 -135.999 24.5c-76.667 0 -238.667 -22.667 -486 -68
c-39.333 -6.66699 -74.333 -12 -105 -16s-57.667 -6 -81 -6c-44 0 -82.333 3.66699 -115 11s-62 18.666 -88 33.999c-60 36.667 -90 91.334 -90 164.001c0 70.667 22.833 136 68.5 196s117.167 114 214.5 162c156.667 79.333 317.667 119 483 119
c99.333 0 190 -15.667 272 -47c52 -20.667 88.667 -41.667 110 -63s32 -42.666 32 -63.999c0 -24.667 -12 -45.5 -36 -62.5s-51.667 -25.5 -83 -25.5c-50.667 0 -87 19 -109 57c-31.333 14.667 -64.333 24.834 -99 30.501s-72 8.5 -112 8.5
c-128 0 -249.333 -30.667 -364 -92c-50.667 -27.333 -90.334 -57.166 -119.001 -89.499s-43 -68.166 -43 -107.499c0 -27.333 8.5 -46.833 25.5 -58.5s39.167 -17.5 66.5 -17.5c31.333 0 73.333 4.5 126 13.5s116.667 22.5 192 40.5c73.333 18.667 138.333 32.167 195 40.5
s105 12.5 145 12.5c136 0 235.167 -20.5 297.5 -61.5s93.5 -100.5 93.5 -178.5c0 -164 -99 -301 -297 -411z" />
    <glyph glyph-name="t" unicode="t" horiz-adv-x="1115" 
d="M993 1100l-26.999 4.00293l-362 -31l49 -930c9.33301 -14.667 14 -28.334 14 -41.001c1.33301 -18.667 -8.5 -35.834 -29.5 -51.501s-47.167 -24.167 -78.5 -25.5c-19.333 -1.33301 -36.5 -0.333008 -51.5 3s-29.833 8.33301 -44.5 15
c-28.667 15.333 -45.334 35 -50.001 59l14 24c3.33301 6 7.66602 12.333 12.999 19l-47 902l-281 -17c-27.333 -16 -50.333 -24 -69 -24c-27.333 -3.33301 -52 4.66699 -74 24s-34.333 42.666 -37 69.999c-2.66699 24.667 9 46.334 35 65.001
c24.667 19.333 50.667 29.666 78 30.999l39 2c31.333 1.33301 120 8.5 266 21.5l616 54.5l31 8c31.333 2.66699 58.333 -4.5 81 -21.5s35.334 -39.167 38.001 -66.5c1.33301 -22 -9 -42.5 -31 -61.5s-52.667 -29.833 -92 -32.5z" />
    <glyph glyph-name="u" unicode="u" horiz-adv-x="1246" 
d="M1182 1079l-43.001 -782.004c-1.33301 -27.333 -15.666 -56 -42.999 -86s-70.333 -60.667 -129 -92c-78 -44 -162.167 -74.5 -252.5 -91.5s-186.5 -23.5 -288.5 -19.5c-48 2.66699 -93.167 9.83398 -135.5 21.501s-81.166 28.5 -116.499 50.5
c-84.667 50.667 -125 117.667 -121 201l41 866c1.33301 30 10.166 51.833 26.499 65.5s43.166 19.167 80.499 16.5c35.333 -2.66699 63.833 -12.5 85.5 -29.5s31.834 -38.5 30.501 -64.5l-45 -877c12.667 -30 32 -51.5 58 -64.5s56.667 -20.167 92 -21.5
c147.333 -6.66699 275 17.333 383 72c42 21.333 73 40 93 56s30 27.333 30 34l39 743c-14 16.667 -19.667 32.334 -17 47.001c1.33301 28.667 9.83301 49.834 25.5 63.501s41.5 19.834 77.5 18.501c34 -2.66699 66.667 -15.667 98 -39c28.667 -20 43 -43 43 -69z" />
    <glyph glyph-name="v" unicode="v" horiz-adv-x="1287" 
d="M1241 1051h32.9971l-19 26h-63l41 -43l18 -10l-10 25l-2 -9l-6 -6l-200 -223c-55.333 -62.667 -98.666 -114 -129.999 -154c-102.667 -124 -180.167 -229.667 -232.5 -317s-78.5 -156.333 -78.5 -207c0 -38 -10.667 -66.667 -32 -86s-56.666 -29 -105.999 -29
c-42 0 -71.167 6.83301 -87.5 20.5s-24.5 32.167 -24.5 55.5c0 50.667 -7.16699 105 -21.5 163s-37.166 120.333 -68.499 187l-152 328c-58.667 130 -88 251 -88 363c0 24 8.5 43.167 25.5 57.5s47.5 21.5 91.5 21.5c35.333 0 61.833 -9.83301 79.5 -29.5
s26.5 -52.167 26.5 -97.5c0 -17.333 6.83301 -45.833 20.5 -85.5s34.167 -89.5 61.5 -149.5l107 -236l80 -194c51.333 83.333 109.5 167.666 174.5 252.999s140.5 178.333 226.5 279l85 104c21.333 25.333 33.333 41.333 36 48c17.333 35.333 35.666 60.166 54.999 74.499
s39 21.5 59 21.5c34.667 0 62.834 -9.16699 84.501 -27.5s32.5 -41.166 32.5 -68.499c0 -19.333 -5.33301 -37.666 -16 -54.999z" />
    <glyph glyph-name="w" unicode="w" horiz-adv-x="1762" 
d="M1638 842l-163.997 -356.999c-30 -65.333 -56.333 -129 -79 -191s-41.334 -123 -56.001 -183c-18 -67.333 -66 -101 -144 -101c-36.667 0 -66.5 10.667 -89.5 32s-34.5 48.333 -34.5 81c0 36.667 -23.333 98 -70 184l-109.5 218.5l-115.5 236.5l-193.5 -471.5
c-41.667 -103.667 -62.5 -160.167 -62.5 -169.5c0 -31.333 -12 -56 -36 -74s-65.333 -27 -124 -27c-38 0 -65.667 6.5 -83 19.5s-27.333 31.167 -30 54.5c-2.66699 8 -4 21.667 -4 41c-6.66699 64 -14.5 124 -23.5 180s-20.833 109.333 -35.5 160l-103 354
c-38 131.333 -57 224.333 -57 279c0 39.333 10.167 69 30.5 89s53.833 30 100.5 30c32.667 0 56.167 -6.83301 70.5 -20.5s21.5 -34.834 21.5 -63.501c0 -91.333 17 -198.666 51 -321.999l113 -418c87.333 196.667 151.166 348 191.499 454s60.5 174.667 60.5 206
c0 54.667 9.83301 92.167 29.5 112.5s55.5 30.5 107.5 30.5c48 0 78 -17 90 -51c2.66699 -8 4.66699 -20.833 6 -38.5s2 -40.834 2 -69.501c0 -26 19.5 -83.5 58.5 -172.5s96.833 -208.5 173.5 -358.5l74 -147c21.333 57.333 51.833 130.666 91.5 219.999l153.5 337
c32 68 55.333 132 70 192c-10.667 16.667 -16 31.667 -16 45c0 27.333 14.333 49.333 43 66c27.333 13.333 58.666 20 93.999 20c28.667 0 52.167 -8.16699 70.5 -24.5s27.5 -38.166 27.5 -65.499v-33c-16 -81.333 -49.333 -176 -100 -284z" />
    <glyph glyph-name="x" unicode="x" horiz-adv-x="1226" 
d="M1133 1047l-402.993 -401.997l80 -120.5c27.333 -41 58.666 -84.833 93.999 -131.5c79.333 -102 143 -172.333 191 -211c4 -2.66699 8.66699 -6.66699 14 -12l6 -6c1.33301 -1.33301 2.66602 -3.33301 3.99902 -6c16.667 -18 25 -34.333 25 -49
c0 -20.667 -12.667 -39.5 -38 -56.5s-54.333 -25.5 -87 -25.5c-37.333 0 -64.833 5.33301 -82.5 16s-29.834 27.667 -36.501 51l-89 103.5l-101 124.5l-63 79.5c-18.667 24.333 -37.334 50.166 -56.001 77.499c-30 -36.667 -69.333 -88.167 -118 -154.5l-183 -254.5
c-32.667 -33.333 -71 -50 -115 -50c-31.333 0 -60.333 9.33301 -87 28s-40 40.334 -40 65.001c0 31.333 17 53.666 51 66.999l377 479c-23.333 36 -48.333 71 -75 105l-87 110l-99 117c-26.667 30 -49.667 52 -69 66c-18.667 14.667 -31.834 28.5 -39.501 41.5
s-11.5 26.5 -11.5 40.5c0 20 10.667 38 32 54s45.666 24 72.999 24c39.333 0 71.333 -6.33301 96 -19c14.667 -12 37 -34.167 67 -66.5l113 -127.5c22 -26 44.833 -54.5 68.5 -85.5l87.5 -109.5l315 342c6.66699 22 18.667 38.5 36 49.5s42.333 16.5 75 16.5
c35.333 0 64.166 -8.33301 86.499 -25s33.5 -39.334 33.5 -68.001c0 -32.667 -15 -58.334 -45 -77.001z" />
    <glyph glyph-name="y" unicode="y" horiz-adv-x="1234" 
d="M1189 1081l-437.997 -530.002l-314 -395c7.33301 -11.333 12 -20 14 -26s3 -12.333 3 -19c0 -27.333 -10.333 -49.333 -31 -66s-47.334 -25 -80.001 -25c-36.667 0 -71.334 8.33301 -104.001 25c-20.667 10.667 -34.834 21.834 -42.501 33.501s-11.5 24.5 -11.5 38.5
c0 18.667 11 38.334 33 59.001l293 379l-440 535c-28.667 9.33301 -48.5 20.5 -59.5 33.5s-16.5 26.833 -16.5 41.5c0 26 15 47.333 45 64c28.667 16 59.334 24 92.001 24c31.333 0 54.5 -4.66699 69.5 -14s26.167 -23 33.5 -41l391 -493l375 479
c6.66699 20 17.167 35.167 31.5 45.5s35.166 15.5 62.499 15.5c30 0 62.667 -11 98 -33c30 -18.667 45 -41.667 45 -69c0 -12.667 -3.33301 -24 -10 -34s-19.667 -19.333 -39 -28z" />
    <glyph glyph-name="z" unicode="z" horiz-adv-x="1345" 
d="M1265 1071l-920 -889.003l730 17c22.667 47.333 62 71 118 71c31.333 0 59 -12.833 83 -38.5s36 -55.167 36 -88.5c0 -31.333 -9.83301 -58.166 -29.5 -80.499s-45.167 -33.5 -76.5 -33.5h-82c-32.667 0 -71.667 0.666992 -117 2c-44 1.33301 -82.333 2 -115 2h-84
c-35.333 0 -79.333 -1 -132 -3l-185 -7c-70 -3.33301 -131.167 -5.66602 -183.5 -6.99902s-95.5 -2 -129.5 -2c-40 0 -75 7.66699 -105 23c-31.333 17.333 -47 42 -47 74c0 18.667 10.333 41.667 31 69l927 885l-559 -23c-14.667 -30 -32.667 -51.5 -54 -64.5
s-47.666 -19.5 -78.999 -19.5c-42 0 -71.833 8.33301 -89.5 25s-26.5 40.667 -26.5 72c0 42 18.333 82.333 55 121c39.333 39.333 79.666 59 120.999 59c27.333 0 51 -8.33301 71 -25l756 29c16.667 1.33301 32.5 0.333008 47.5 -3s29.833 -8.33301 44.5 -15
c31.333 -15.333 47 -34.666 47 -57.999c0 -12 -4 -25.5 -12 -40.5s-21.667 -32.167 -41 -51.5z" />
    <glyph glyph-name="braceleft" unicode="{" horiz-adv-x="1027" 
d="M907 -362c-28.667 -8.66699 -101.002 -12.9971 -217.002 -12.9971c-108 0 -187.167 20.5 -237.5 61.5s-75.5 102.5 -75.5 184.5c0 32.667 4 79.667 12 141c5.33301 34 9 63.667 11 89s3 47 3 65c0 36.667 -5 69.334 -15 98.001s-26.667 51.334 -50 68.001
c-35.333 26 -92.666 39 -171.999 39c-46.667 0 -78.834 7.16699 -96.501 21.5s-26.5 33.166 -26.5 56.499c0 26.667 16.333 49.667 49 69c30 18 62 27 96 27c50.667 0 93.5 4 128.5 12s60.5 22.333 76.5 43c19.333 23.333 33 60.166 41 110.499s12 113.166 12 188.499
c0 95.333 34.333 177.333 103 246c78 78 180.333 117 307 117c46.667 0 79.5 -8 98.5 -24s28.5 -39 28.5 -69c0 -27.333 -12.667 -49.166 -38 -65.499s-70.666 -24.5 -135.999 -24.5c-23.333 0 -43.5 -4.66699 -60.5 -14s-31.333 -21.833 -43 -37.5
s-20.167 -33.5 -25.5 -53.5s-8 -40.333 -8 -61v-165c0 -64.667 -11.333 -121.167 -34 -169.5s-60 -92.5 -112 -132.5c38.667 -35.333 66.5 -81.333 83.5 -138s25.5 -130 25.5 -220c0 -10.667 -1.33301 -24.167 -4 -40.5s-5.33398 -34.833 -8.00098 -55.5
c-3.33301 -23.333 -6 -43.833 -8 -61.5s-3 -32.834 -3 -45.501c0 -35.333 4.83301 -61.166 14.5 -77.499s17.834 -24.5 24.501 -24.5c24.667 0 61 5.33301 109 16c22 5.33301 40.833 9.16602 56.5 11.499s28.834 3.5 39.501 3.5c46.667 0 79.5 -8.33301 98.5 -25
s28.5 -40.667 28.5 -72c0 -18.667 -5.83301 -34.834 -17.5 -48.501s-31.167 -23.834 -58.5 -30.501z" />
    <glyph glyph-name="bar" unicode="|" horiz-adv-x="491" 
d="M314 20c-31.333 -5.33301 -58.666 -7.99805 -81.999 -7.99805c-47.333 0 -81.333 7.5 -102 22.5s-32.334 36.833 -35.001 65.5l29 29v997c-7.33301 12.667 -12.333 23 -15 31s-4 14.333 -4 19c0 32.667 15 57.667 45 75c31.333 18 67 27 107 27c35.333 0 65 -11 89 -33
s36 -49.333 36 -82c0 -18.667 -7.66699 -36.334 -23 -53.001v-977l37 -39c-2.66699 -40.667 -30 -65.334 -82 -74.001z" />
    <glyph glyph-name="braceright" unicode="}" horiz-adv-x="1027" 
d="M839 336c-49.333 0 -92.168 -4.16992 -128.501 -12.5029s-61.833 -22.5 -76.5 -42.5c-18 -23.333 -30.667 -60.333 -38 -111s-11 -113.334 -11 -188.001c0 -104 -41 -188.667 -123 -254c-84.667 -68.667 -181 -103 -289 -103c-46.667 0 -79.5 7.83301 -98.5 23.5
s-28.5 37.834 -28.5 66.501c0 27.333 12.333 49.5 37 66.5s69.667 25.5 135 25.5c20.667 0 39.5 4.83301 56.5 14.5s31.667 22.334 44 38.001s21.833 32.834 28.5 51.501s10 37.334 10 56.001v166c0 64 11.333 120 34 168s60 91.667 112 131
c-30 27.333 -52.167 54.333 -66.5 81s-24.5 57 -30.5 91c-4 19.333 -6.66699 44.666 -8 75.999s-2 69 -2 113c0 10.667 0.666992 24.167 2 40.5s3.33301 35.5 6 57.5c2.66699 23.333 5.16699 43.5 7.5 60.5s3.5 31.5 3.5 43.5c0 37.333 -4.5 64.5 -13.5 81.5
s-16.833 25.5 -23.5 25.5h-6c-2.66699 0 -7.66699 -1.33301 -15 -4c-4 0 -9 -0.666992 -15 -2s-13.333 -2.66602 -22 -3.99902c-39.333 -8.66699 -71.666 -14.667 -96.999 -18s-43.333 -5 -54 -5c-45.333 0 -77.166 7.83301 -95.499 23.5s-27.5 39.167 -27.5 70.5
c0 42.667 24 70.667 72 84c28.667 10 99.667 15 213 15c106 0 183.667 -20.5 233 -61.5s74 -102.5 74 -184.5c0 -12.667 -1 -28.167 -3 -46.5l-7 -64.5c-8.66699 -52 -13 -91 -13 -117c0 -61.333 4.16699 -112.833 12.5 -154.5s22.166 -71.167 41.499 -88.5
c14.667 -14 38.667 -23.333 72 -28s74.666 -7 123.999 -7c31.333 0 58.333 -7.83301 81 -23.5s34 -35.167 34 -58.5c0 -30 -10.667 -52.833 -32 -68.5s-57.666 -23.5 -108.999 -23.5z" />
    <glyph glyph-name="asciitilde" unicode="~" horiz-adv-x="1287" 
d="M1099 297c-76 -49.333 -165.333 -74.0049 -268 -74.0049c-54.667 0 -112.334 15.667 -173.001 47s-126 81.333 -196 150c-58.667 -6.66699 -101.667 -28.667 -129 -66l-61 -82c-18 -22.667 -39.333 -34 -64 -34c-57.333 0 -96.166 7.83301 -116.499 23.5
s-30.5 35.834 -30.5 60.501c0 14.667 6.16699 32.334 18.5 53.001s32.833 45.334 61.5 74.001c99.333 99.333 214 149 344 149c64 0 137 -32.667 219 -98c41.333 -34 74.5 -58.667 99.5 -74s41.167 -23 48.5 -23c28.667 0 53.5 5.5 74.5 16.5s34.833 29.5 41.5 55.5
c15.333 52 32.833 89.333 52.5 112s42.5 34 68.5 34c30 0 59.333 -8.33301 88 -25c19.333 -10.667 32.333 -21.167 39 -31.5s10 -21.166 10 -32.499c0 -99.333 -42.333 -177.666 -127 -234.999z" />
    <glyph glyph-name="copyright" unicode="&#xa9;" horiz-adv-x="1726" 
d="M1350 143c-183.333 -107.333 -390.333 -161 -621 -161c-177.333 0 -332.333 40 -465 120c-155.333 93.333 -233 221 -233 383c0 212 101.667 394.333 305 547c188.667 139.333 393 209 613 209c95.333 0 198.333 -17.667 309 -53c112 -38.667 203.333 -88.667 274 -150
c108 -94 162 -209.333 162 -346c0 -229.333 -114.667 -412.333 -344 -549zM1288 977c-107.333 56 -222.667 84.001 -346 84.001c-166 0 -318 -52 -456 -156c-156 -116 -234 -256 -234 -420c0 -118.667 55.333 -209.334 166 -272.001c45.333 -26 93.833 -44.833 145.5 -56.5
s108.167 -17.5 169.5 -17.5c101.333 0 209.333 21.333 324 64c113.333 42 206.333 96 279 162c98 88.667 147 197 147 325c0 121.333 -65 217 -195 287zM1090 350.001c-52 -28.667 -97.167 -52.1699 -135.5 -70.5029s-71.166 -30.833 -98.499 -37.5
c-30 -10 -79 -15 -147 -15c-102.667 0 -183.334 18.667 -242.001 56c-72 44.667 -108 112 -108 202c0 74 22.167 141 66.5 201s113.5 113.333 207.5 160c150 74.667 311 112 483 112c38.667 0 67.834 -9.5 87.501 -28.5s32.167 -50.167 37.5 -93.5
c14 -15.333 21 -33.333 21 -54c0 -13.333 -3.5 -25.166 -10.5 -35.499s-19.167 -20.166 -36.5 -29.499c-28.667 -16.667 -58.667 -25 -90 -25c-24.667 0 -50.667 7 -78 21c-14 8 -24.667 17.5 -32 28.5s-13.666 26.5 -18.999 46.5c-53.333 -8 -101.833 -19.5 -145.5 -34.5
s-84.834 -34.167 -123.501 -57.5c-99.333 -60 -149 -132.333 -149 -217c0 -31.333 11.5 -53.166 34.5 -65.499s52.5 -18.5 88.5 -18.5c68 0 138.333 18.667 211 56c36.667 18.667 68.667 39.334 96 62.001s50.666 49.667 69.999 81c4 16 11.667 28.5 23 37.5
s29.333 13.5 54 13.5c28.667 0 61 -11.667 97 -35c31.333 -18.667 47 -40.334 47 -65.001c0 -23.333 -16.167 -51 -48.5 -83s-85.833 -69.333 -160.5 -112z" />
    <glyph glyph-name="registered" unicode="&#xae;" horiz-adv-x="1726" 
d="M1350 143c-183.333 -107.333 -390.333 -161 -621 -161c-177.333 0 -332.333 40 -465 120c-155.333 93.333 -233 221 -233 383c0 212 101.667 394.333 305 547c188.667 139.333 393 209 613 209c95.333 0 198.333 -17.667 309 -53c112 -38.667 203.333 -88.667 274 -150
c108 -94 162 -209.333 162 -346c0 -229.333 -114.667 -412.333 -344 -549zM1288 977c-107.333 56 -222.667 84.001 -346 84.001c-166 0 -318 -52 -456 -156c-156 -116 -234 -256 -234 -420c0 -118.667 55.333 -209.334 166 -272.001c45.333 -26 93.833 -44.833 145.5 -56.5
s108.167 -17.5 169.5 -17.5c101.333 0 209.333 21.333 324 64c113.333 42 206.333 96 279 162c98 88.667 147 197 147 325c0 121.333 -65 217 -195 287zM1168 297.001c-64.667 -28.667 -122.664 -43.0029 -173.997 -43.0029c-26 0 -58.833 7.83301 -98.5 23.5
s-92.167 41.834 -157.5 78.501v-63c0 -26 -11.667 -47.167 -35 -63.5s-51.333 -24.5 -84 -24.5c-34 0 -60 6.66699 -78 20c-22 15.333 -33 35.333 -33 60l4 8l8 14v516c0 28.667 8 50.5 24 65.5s43 22.5 81 22.5c9.33301 0 18.833 -0.666992 28.5 -2s20.5 -4 32.5 -8
c144.667 46.667 258 70 340 70c76.667 0 131.667 -13.667 165 -41s50 -67 50 -119c0 -40.667 -30.667 -85.667 -92 -135s-166.333 -104 -315 -164c50.667 -30 89.167 -51.833 115.5 -65.5s45.166 -20.5 56.499 -20.5c2.66699 0 10.167 3.33301 22.5 10
s27.166 18.334 44.499 35.001c15.333 14 29.5 23.333 42.5 28s26.167 7 39.5 7c33.333 0 60.666 -7 81.999 -21c24.667 -16 37 -37.667 37 -65c0 -23.333 -8.16699 -45.166 -24.5 -65.499s-43.5 -39.5 -81.5 -57.5zM738.002 740.998v-88.002c32.667 11.333 62 22.333 88 33
s50.833 22.167 74.5 34.5s47.167 26.333 70.5 42s47.333 33.834 72 54.501c-36 -5.33301 -68 -10.666 -96 -15.999s-53.5 -11.166 -76.5 -17.499s-45.167 -12.833 -66.5 -19.5s-43.333 -14.334 -66 -23.001z" />
    <glyph glyph-name="acute" unicode="&#xb4;" horiz-adv-x="1024" 
 />
    <glyph glyph-name="paragraph" unicode="&#xb6;" horiz-adv-x="1024" 
d="M929 1435l-0.000976562 -70h-127v-1365h-82v1365h-166v-1365h-84v738c-116 5.33301 -207.833 39.5 -275.5 102.5s-101.5 144.833 -101.5 245.5c0 104.667 35.833 189 107.5 253s166.834 96 285.501 96h443z" />
    <glyph glyph-name="Agrave" unicode="&#xc0;" 
d="M1321 29c-50.667 0 -85.8311 7.16797 -105.498 21.501s-30.167 32.833 -31.5 55.5c5.33301 19.333 8.66602 38 9.99902 56c1.33301 6.66699 2.66602 13 3.99902 19s3.33301 12 6 18c-9.33301 21.333 -22.833 48.5 -40.5 81.5s-42.5 76.167 -74.5 129.5h-706l-21.5 -34.5
l-19.5 -31.5l-20.5 -38.5c-7 -13.667 -13.833 -28.834 -20.5 -45.501l-25 -61c-6.66699 -12.667 -11 -25.834 -13 -39.501s-3 -27.167 -3 -40.5c0 -26 -13.667 -48 -41 -66c-20.667 -16 -48 -24 -82 -24c-48 0 -82.167 8.5 -102.5 25.5s-30.5 41.833 -30.5 74.5
c0 39.333 17 86.333 51 141c8 15.333 19.667 33.833 35 55.5l57 80.5l230 436c90 170.667 174.667 312.667 254 426c2.66699 34 18 61.5 46 82.5s59.667 31.5 95 31.5c31.333 0 57.666 -8.83301 78.999 -26.5s32 -39.5 32 -65.5c0 -65.333 16.333 -135.666 49 -210.999
c18.667 -44.667 43.834 -97.5 75.501 -158.5s70.5 -128.833 116.5 -203.5l78 -120l109 -169c46 -74 79.333 -133.833 100 -179.5s31 -78.5 31 -98.5c0 -34.667 -11.667 -63.5 -35 -86.5s-52 -34.5 -86 -34.5zM743.003 1051l-237 -441h452zM555.003 1614
c-6 5.33301 -8.99805 15.6689 -8.99805 31.002c0 20 7.83301 40.333 23.5 61s29.5 31 41.5 31c6.66699 0 15.167 -2.83301 25.5 -8.5s23.166 -15.834 38.499 -30.501l94 -43l264 -107c16.667 -2.66699 29 -8.33398 37 -17.001s12 -23.334 12 -44.001
c0 -27.333 -4.83301 -46.166 -14.5 -56.499s-23.834 -15.5 -42.501 -15.5c-20.667 0 -42 10.333 -64 31c-35.333 12 -84 31 -146 57l-235 99c-10.667 2.66699 -19 6.66699 -25 12z" />
    <glyph glyph-name="Aacute" unicode="&#xc1;" 
d="M1321 29c-50.667 0 -85.8311 7.16797 -105.498 21.501s-30.167 32.833 -31.5 55.5c5.33301 19.333 8.66602 38 9.99902 56c1.33301 6.66699 2.66602 13 3.99902 19s3.33301 12 6 18c-9.33301 21.333 -22.833 48.5 -40.5 81.5s-42.5 76.167 -74.5 129.5h-706l-21.5 -34.5
l-19.5 -31.5l-20.5 -38.5c-7 -13.667 -13.833 -28.834 -20.5 -45.501l-25 -61c-6.66699 -12.667 -11 -25.834 -13 -39.501s-3 -27.167 -3 -40.5c0 -26 -13.667 -48 -41 -66c-20.667 -16 -48 -24 -82 -24c-48 0 -82.167 8.5 -102.5 25.5s-30.5 41.833 -30.5 74.5
c0 39.333 17 86.333 51 141c8 15.333 19.667 33.833 35 55.5l57 80.5l230 436c90 170.667 174.667 312.667 254 426c2.66699 34 18 61.5 46 82.5s59.667 31.5 95 31.5c31.333 0 57.666 -8.83301 78.999 -26.5s32 -39.5 32 -65.5c0 -65.333 16.333 -135.666 49 -210.999
c18.667 -44.667 43.834 -97.5 75.501 -158.5s70.5 -128.833 116.5 -203.5l78 -120l109 -169c46 -74 79.333 -133.833 100 -179.5s31 -78.5 31 -98.5c0 -34.667 -11.667 -63.5 -35 -86.5s-52 -34.5 -86 -34.5zM743.003 1051l-237 -441h452zM956.003 1602l-234.001 -99.0029
c-62 -26 -111 -45 -147 -57c-21.333 -20.667 -42.333 -31 -63 -31c-19.333 0 -33.666 5.16699 -42.999 15.5s-14 29.166 -14 56.499c0 20.667 4 35.334 12 44.001s20.333 14.334 37 17.001l264 107l94 43c15.333 14.667 28 24.834 38 30.501s18.667 8.5 26 8.5
c12 0 25.833 -10.333 41.5 -31s23.5 -41 23.5 -61c0 -15.333 -3 -25.666 -9 -30.999s-14.667 -9.33301 -26 -12z" />
    <glyph glyph-name="Acircumflex" unicode="&#xc2;" 
d="M1042 1413c-30 0 -53.166 4.83398 -69.499 14.501s-27.833 22.5 -34.5 38.5l-156 140l-180 -136c-16.667 -40.667 -48.667 -61 -96 -61c-42.667 0 -69.834 4.16699 -81.501 12.5s-17.5 17.166 -17.5 26.499c0 4 4.16699 11.833 12.5 23.5s24.166 27.167 47.499 46.5
l229 182c20.667 27.333 55 41 103 41c40.667 0 67 -13.667 79 -41l226 -207c10.667 -10.667 16 -21 16 -31c0 -14.667 -5.16699 -26.5 -15.5 -35.5s-31.166 -13.5 -62.499 -13.5zM1321 29.001c-50.667 0 -85.833 7.16504 -105.5 21.498s-30.167 32.833 -31.5 55.5
c4 19.333 7.33301 37.333 10 54c2.66699 17.333 6 30.333 10 39c-9.33301 20 -22.833 46.5 -40.5 79.5s-42.5 75.5 -74.5 127.5h-706l-21.5 -33.5l-19.5 -30.5l-20.5 -38.5c-7 -13.667 -13.833 -28.167 -20.5 -43.5l-25 -61c-10.667 -23.333 -16 -50 -16 -80
c0 -28.667 -13.667 -50.667 -41 -66c-20.667 -16 -48 -24 -82 -24c-48 0 -82.167 8.5 -102.5 25.5s-30.5 41.833 -30.5 74.5c0 38 17 85 51 141c8 14 19.667 31.833 35 53.5l57 79.5l230 435c44.667 84.667 88.167 161.834 130.5 231.501s83.5 133.167 123.5 190.5
c2.66699 34 18 61.5 46 82.5s59.667 31.5 95 31.5c31.333 0 57.666 -8.83301 78.999 -26.5s32 -39.5 32 -65.5c0 -65.333 16.333 -135.666 49 -210.999c18.667 -43.333 43.834 -95.5 75.501 -156.5s70.5 -128.167 116.5 -201.5l78 -120l109 -169
c46 -74 79.333 -133.5 100 -178.5s31 -77.833 31 -98.5c0 -32.667 -11.667 -60.5 -35 -83.5s-52 -34.5 -86 -34.5zM743.002 1044l-237 -438h452z" />
    <glyph glyph-name="Atilde" unicode="&#xc3;" 
d="M1321 29c-50.667 0 -85.8311 7.16797 -105.498 21.501s-30.167 32.833 -31.5 55.5c5.33301 19.333 8.66602 38 9.99902 56c1.33301 6.66699 2.66602 13 3.99902 19s3.33301 12 6 18c-9.33301 21.333 -22.833 48.5 -40.5 81.5s-42.5 76.167 -74.5 129.5h-706l-21.5 -34.5
l-19.5 -31.5l-20.5 -38.5c-7 -13.667 -13.833 -28.834 -20.5 -45.501l-25 -61c-6.66699 -12.667 -11 -25.834 -13 -39.501s-3 -27.167 -3 -40.5c0 -26 -13.667 -48 -41 -66c-20.667 -16 -48 -24 -82 -24c-48 0 -82.167 8.5 -102.5 25.5s-30.5 41.833 -30.5 74.5
c0 39.333 17 86.333 51 141c8 15.333 19.667 33.833 35 55.5l57 80.5l230 436c90 170.667 174.667 312.667 254 426c2.66699 34 18 61.5 46 82.5s59.667 31.5 95 31.5c31.333 0 57.666 -8.83301 78.999 -26.5s32 -39.5 32 -65.5c0 -65.333 16.333 -135.666 49 -210.999
c18.667 -44.667 43.834 -97.5 75.501 -158.5s70.5 -128.833 116.5 -203.5l78 -120l109 -169c46 -74 79.333 -133.833 100 -179.5s31 -78.5 31 -98.5c0 -34.667 -11.667 -63.5 -35 -86.5s-52 -34.5 -86 -34.5zM743.003 1051l-237 -441h452zM1027 1483l-45.999 -30
c-30 -8 -49.833 -11.833 -59.5 -11.5s-22.5 1.83301 -38.5 4.5c-15.333 4 -32.833 10 -52.5 18s-42.167 24 -67.5 48c-35.333 24.667 -55.833 38.167 -61.5 40.5s-17.167 3.83301 -34.5 4.5c-26.667 -5.33301 -46 -18 -58 -38c-8.66699 -14.667 -19.667 -27.5 -33 -38.5
s-25.333 -16.5 -36 -16.5c-24 -8 -46 -4.83301 -66 9.5s-30 30.5 -30 48.5c0 8 3.5 18 10.5 30s23.167 34 48.5 66c38 43.333 91.667 68.333 161 75c40.667 0 75.334 -9.66699 104.001 -29c40.667 -27.333 68 -46.166 82 -56.499s32 -20.5 54 -30.5
c16.667 -3.33301 31.167 -2.33301 43.5 3s21.833 14 28.5 26c13.333 17.333 25.666 34.666 36.999 51.999s24.333 28.333 39 33c52 0 78.667 -27.667 80 -83c-18 -34 -35.833 -60.667 -53.5 -80s-34.834 -34.333 -51.501 -45z" />
    <glyph glyph-name="Egrave" unicode="&#xc8;" horiz-adv-x="1232" 
d="M1112 70c-11.333 0 -21.3281 -0.332031 -29.9951 -0.999023s-18 -1 -28 -1c-100.667 -8.66699 -215.5 -16.334 -344.5 -23.001s-274.833 -13.334 -437.5 -20.001c-22 -14 -50.667 -21 -86 -21c-27.333 0 -56 10.333 -86 31c-28.667 18.667 -43 41 -43 67
c0 10 1.66699 19.667 5 29s10.666 19.666 21.999 30.999v411c-32 19.333 -48 43.333 -48 72c0 16.667 3.5 32.5 10.5 47.5s19.5 30.5 37.5 46.5v332c-26 9.33301 -43.5 19.833 -52.5 31.5s-13.5 26.5 -13.5 44.5c0 23.333 10.333 48 31 74c1.33301 34 14.333 59.667 39 77
c21.333 16.667 49.333 25 84 25c51.333 0 93 -21 125 -63l647 36c28.667 11.333 58 17 88 17c48.667 0 83.667 -8.83301 105 -26.5s32 -43.834 32 -78.501c0 -35.333 -14.333 -63.5 -43 -84.5s-64.334 -31.5 -107.001 -31.5c-16 0 -30.833 1.33301 -44.5 4
s-28.167 8 -43.5 16l-632 -29v-313l542 49c11.333 2.66699 22.666 4.33398 33.999 5.00098s24 1 38 1c54.667 0 92.5 -8.16699 113.5 -24.5s31.5 -38.833 31.5 -67.5c0 -35.333 -8.83301 -61.5 -26.5 -78.5s-46.167 -25.5 -85.5 -25.5
c-8.66699 0 -19.334 0.666992 -32.001 2s-28.667 3.33301 -48 6l-567 -53v-377l723 45c26.667 6.66699 49 10 67 10c45.333 0 77.5 -8.16699 96.5 -24.5s28.5 -40.166 28.5 -71.499c0 -27.333 -7.83301 -49.166 -23.5 -65.499s-41.834 -26.5 -78.501 -30.5zM357.005 1614
c-6 5.33301 -9.00098 15.6689 -9.00098 31.002c0 20 7.83301 40.333 23.5 61s29.5 31 41.5 31c7.33301 0 16 -2.83301 26 -8.5s22.667 -15.834 38 -30.501l94 -43l264 -107c16.667 -2.66699 29 -8.33398 37 -17.001s12 -23.334 12 -44.001
c0 -27.333 -4.66699 -46.166 -14 -56.499s-23.666 -15.5 -42.999 -15.5c-20.667 0 -42 10.333 -64 31c-35.333 12 -84 31 -146 57l-234 99c-11.333 2.66699 -20 6.66699 -26 12z" />
    <glyph glyph-name="Eacute" unicode="&#xc9;" horiz-adv-x="1232" 
d="M1112 70c-11.333 0 -21.3281 -0.332031 -29.9951 -0.999023s-18 -1 -28 -1c-100.667 -8.66699 -215.5 -16.334 -344.5 -23.001s-274.833 -13.334 -437.5 -20.001c-22 -14 -50.667 -21 -86 -21c-27.333 0 -56 10.333 -86 31c-28.667 18.667 -43 41 -43 67
c0 10 1.66699 19.667 5 29s10.666 19.666 21.999 30.999v411c-32 19.333 -48 43.333 -48 72c0 16.667 3.5 32.5 10.5 47.5s19.5 30.5 37.5 46.5v332c-26 9.33301 -43.5 19.833 -52.5 31.5s-13.5 26.5 -13.5 44.5c0 23.333 10.333 48 31 74c1.33301 34 14.333 59.667 39 77
c21.333 16.667 49.333 25 84 25c51.333 0 93 -21 125 -63l647 36c28.667 11.333 58 17 88 17c48.667 0 83.667 -8.83301 105 -26.5s32 -43.834 32 -78.501c0 -35.333 -14.333 -63.5 -43 -84.5s-64.334 -31.5 -107.001 -31.5c-16 0 -30.833 1.33301 -44.5 4
s-28.167 8 -43.5 16l-632 -29v-313l542 49c11.333 2.66699 22.666 4.33398 33.999 5.00098s24 1 38 1c54.667 0 92.5 -8.16699 113.5 -24.5s31.5 -38.833 31.5 -67.5c0 -35.333 -8.83301 -61.5 -26.5 -78.5s-46.167 -25.5 -85.5 -25.5
c-8.66699 0 -19.334 0.666992 -32.001 2s-28.667 3.33301 -48 6l-567 -53v-377l723 45c26.667 6.66699 49 10 67 10c45.333 0 77.5 -8.16699 96.5 -24.5s28.5 -40.166 28.5 -71.499c0 -27.333 -7.83301 -49.166 -23.5 -65.499s-41.834 -26.5 -78.501 -30.5zM849.005 1602
l-234 -99.0029c-62 -26 -110.667 -45 -146 -57c-22 -20.667 -43.333 -31 -64 -31c-19.333 0 -33.666 5.16699 -42.999 15.5s-14 29.166 -14 56.499c0 20.667 4 35.334 12 44.001s20.333 14.334 37 17.001l264 107l94 43c15.333 14.667 28.166 24.834 38.499 30.501
s18.833 8.5 25.5 8.5c12 0 25.833 -10.333 41.5 -31s23.5 -41 23.5 -61c0 -15.333 -3 -25.666 -9 -30.999s-14.667 -9.33301 -26 -12z" />
    <glyph glyph-name="Ecircumflex" unicode="&#xca;" horiz-adv-x="1232" 
d="M925 1383c-31.333 0 -54.834 4.83398 -70.501 14.501s-26.834 22.5 -33.501 38.5l-158 140l-180 -136c-9.33301 -20 -21.5 -35.167 -36.5 -45.5s-35.5 -15.5 -61.5 -15.5c-42.667 0 -70.167 4.16699 -82.5 12.5s-18.5 17.166 -18.5 26.499c0 4 4.5 11.833 13.5 23.5
s25.167 27.167 48.5 46.5l229 182c23.333 27.333 58.333 41 105 41c22.667 0 39.834 -3.5 51.501 -10.5s20.834 -17.167 27.501 -30.5l226 -207c10.667 -10.667 16 -21 16 -31c0 -14.667 -4.83301 -26.5 -14.5 -35.5s-30.167 -13.5 -61.5 -13.5zM1112 70.001
c-11.333 0 -21.3281 -0.332031 -29.9951 -0.999023s-18 -1 -28 -1c-100.667 -8.66699 -215.5 -16.334 -344.5 -23.001s-274.833 -13.334 -437.5 -20.001c-22 -14 -50.667 -21 -86 -21c-27.333 0 -56 10.333 -86 31c-28.667 18.667 -43 41 -43 67c0 10 1.66699 19.667 5 29
s10.666 19.666 21.999 30.999v411c-32 19.333 -48 43.333 -48 72c0 16.667 3.5 32.5 10.5 47.5s19.5 30.5 37.5 46.5v332c-26 9.33301 -43.5 19.833 -52.5 31.5s-13.5 26.5 -13.5 44.5c0 23.333 10.333 48 31 74c1.33301 34 14.333 59.667 39 77
c21.333 16.667 49.333 25 84 25c51.333 0 93 -21 125 -63l647 36c28.667 11.333 58 17 88 17c48.667 0 83.667 -8.83301 105 -26.5s32 -43.834 32 -78.501c0 -35.333 -14.333 -63.5 -43 -84.5s-64.334 -31.5 -107.001 -31.5c-16 0 -30.833 1.33301 -44.5 4
s-28.167 8 -43.5 16l-632 -29v-313l542 49c11.333 2.66699 22.666 4.33398 33.999 5.00098s24 1 38 1c54.667 0 92.5 -8.16699 113.5 -24.5s31.5 -38.833 31.5 -67.5c0 -35.333 -8.83301 -61.5 -26.5 -78.5s-46.167 -25.5 -85.5 -25.5
c-8.66699 0 -19.334 0.666992 -32.001 2s-28.667 3.33301 -48 6l-567 -53v-377l723 45c26.667 6.66699 49 10 67 10c45.333 0 77.5 -8.16699 96.5 -24.5s28.5 -40.166 28.5 -71.499c0 -27.333 -7.83301 -49.166 -23.5 -65.499s-41.834 -26.5 -78.501 -30.5z" />
    <glyph glyph-name="Igrave" unicode="&#xcc;" horiz-adv-x="440" 
d="M237 27c-35.333 0 -70.999 8 -106.999 24c-20 11.333 -33.833 22 -41.5 32s-11.5 20.667 -11.5 32c0 10.667 2.83301 21.167 8.5 31.5s16.167 21.5 31.5 33.5v1016l-27 37c2.66699 35.333 20 63.333 52 84c28 19.333 66 29 114 29c40.667 0 69.167 -7.16699 85.5 -21.5
s24.5 -35.166 24.5 -62.499c0 -16.667 -8.66699 -41.334 -26 -74.001v-1020c17.333 -19.333 26 -40 26 -62c0 -24 -9.33301 -43.167 -28 -57.5s-52.334 -21.5 -101.001 -21.5zM7.00098 1614c-6 5.33301 -9.00098 15.6689 -9.00098 31.002c0 20 7.83301 40.333 23.5 61
s29.5 31 41.5 31c7.33301 0 16 -2.83301 26 -8.5s22.667 -15.834 38 -30.501l94 -43l264 -107c16.667 -2.66699 29 -8.33398 37 -17.001s12 -23.334 12 -44.001c0 -27.333 -4.66699 -46.166 -14 -56.499s-23.666 -15.5 -42.999 -15.5c-20.667 0 -42 10.333 -64 31
c-35.333 12 -84 31 -146 57l-234 99c-11.333 2.66699 -20 6.66699 -26 12z" />
    <glyph glyph-name="Iacute" unicode="&#xcd;" horiz-adv-x="440" 
d="M237 27c-35.333 0 -70.999 8 -106.999 24c-20 11.333 -33.833 22 -41.5 32s-11.5 20.667 -11.5 32c0 10.667 2.83301 21.167 8.5 31.5s16.167 21.5 31.5 33.5v1016l-27 37c2.66699 35.333 20 63.333 52 84c28 19.333 66 29 114 29c40.667 0 69.167 -7.16699 85.5 -21.5
s24.5 -35.166 24.5 -62.499c0 -16.667 -8.66699 -41.334 -26 -74.001v-1020c17.333 -19.333 26 -40 26 -62c0 -24 -9.33301 -43.167 -28 -57.5s-52.334 -21.5 -101.001 -21.5zM499.001 1602l-234.001 -99.0029c-62 -26 -110.667 -45 -146 -57
c-22 -20.667 -43.333 -31 -64 -31c-19.333 0 -33.666 5.16699 -42.999 15.5s-14 29.166 -14 56.499c0 20.667 4 35.334 12 44.001s20.333 14.334 37 17.001l264 107l94 43c15.333 14.667 28 24.834 38 30.501s18.667 8.5 26 8.5c12 0 25.833 -10.333 41.5 -31
s23.5 -41 23.5 -61c0 -15.333 -3 -25.666 -9 -30.999s-14.667 -9.33301 -26 -12z" />
    <glyph glyph-name="Ograve" unicode="&#xd2;" horiz-adv-x="1418" 
d="M1182 240c-146 -156 -336.666 -234.001 -571.999 -234.001c-156.667 0 -289 49.333 -397 148c-106.667 99.333 -160.667 225.333 -162 378l-8 48c0 207.333 70.333 392.333 211 555c147.333 172 322.666 258 525.999 258c186 0 332.333 -59.667 439 -179
c103.333 -113.333 155 -264.666 155 -453.999v-37c0 -184.667 -64 -345.667 -192 -483zM1151 759.999c0 125.333 -27.332 228.333 -81.999 309c-65.333 95.333 -159.666 143 -282.999 143c-134.667 0 -257.334 -73 -368.001 -219c-104 -133.333 -156.667 -268.333 -158 -405
l4 -39c0 -53.333 9.16699 -102.5 27.5 -147.5s43.666 -83.833 75.999 -116.5s70.666 -58 114.999 -76s93.833 -27 148.5 -27c160.667 0 290.334 60 389.001 180c87.333 104 131 221 131 351v47zM540.502 1644c-6.33301 5.33301 -9.50098 15.6689 -9.50098 31.002
c0 20 7.83301 40.333 23.5 61s29.834 31 42.501 31c6.66699 0 15.167 -2.83301 25.5 -8.5s22.833 -15.834 37.5 -30.501l95 -43l264 -107c16 -2.66699 28.167 -8.33398 36.5 -17.001s12.5 -23.334 12.5 -44.001c0 -27.333 -4.83301 -46.166 -14.5 -56.499
s-23.834 -15.5 -42.501 -15.5c-20.667 0 -42 10.333 -64 31c-35.333 12 -84.166 31 -146.499 57l-234.5 99c-10.667 2.66699 -19.167 6.66699 -25.5 12z" />
    <glyph glyph-name="Oacute" unicode="&#xd3;" horiz-adv-x="1418" 
d="M1182 240c-146 -156 -336.666 -234.001 -571.999 -234.001c-156.667 0 -289 49.333 -397 148c-106.667 99.333 -160.667 225.333 -162 378l-8 48c0 207.333 70.333 392.333 211 555c147.333 172 322.666 258 525.999 258c186 0 332.333 -59.667 439 -179
c103.333 -113.333 155 -264.666 155 -453.999v-37c0 -184.667 -64 -345.667 -192 -483zM1151 759.999c0 125.333 -27.332 228.333 -81.999 309c-65.333 95.333 -159.666 143 -282.999 143c-134.667 0 -257.334 -73 -368.001 -219c-104 -133.333 -156.667 -268.333 -158 -405
l4 -39c0 -53.333 9.16699 -102.5 27.5 -147.5s43.666 -83.833 75.999 -116.5s70.666 -58 114.999 -76s93.833 -27 148.5 -27c160.667 0 290.334 60 389.001 180c87.333 104 131 221 131 351v47zM1033 1632l-234.502 -99.0029c-62.333 -26 -111.166 -45 -146.499 -57
c-22 -20.667 -43 -31 -63 -31c-19.333 0 -33.833 5.16699 -43.5 15.5s-14.5 29.166 -14.5 56.499c0 20.667 4.16699 35.334 12.5 44.001s20.5 14.334 36.5 17.001l265 107l94 43c14.667 14.667 27.167 24.834 37.5 30.501s18.833 8.5 25.5 8.5
c12.667 0 26.834 -10.333 42.501 -31s23.5 -41 23.5 -61c0 -15.333 -3.16699 -25.666 -9.5 -30.999s-14.833 -9.33301 -25.5 -12z" />
    <glyph glyph-name="Ocircumflex" unicode="&#xd4;" horiz-adv-x="1418" 
d="M1055 1454c-31.333 0 -54.835 4.83398 -70.502 14.501s-27.167 22.5 -34.5 38.5l-155 140l-183 -136c-16 -40.667 -48 -61 -96 -61c-42 0 -68.833 4.16699 -80.5 12.5s-17.5 17.166 -17.5 26.499c0 4 4 11.833 12 23.5s23.667 27.167 47 46.5l230 182
c22.667 27.333 57.334 41 104.001 41c40.667 0 66.667 -13.667 78 -41l225 -207c10.667 -10.667 16 -21 16 -31c0 -14.667 -4.66699 -26.5 -14 -35.5s-29.666 -13.5 -60.999 -13.5zM1182 240.001c-146 -156 -336.666 -234.001 -571.999 -234.001
c-156.667 0 -289 49.333 -397 148c-106.667 99.333 -160.667 225.333 -162 378l-8 48c0 207.333 70.333 392.333 211 555c147.333 172 322.666 258 525.999 258c186 0 332.333 -59.667 439 -179c103.333 -113.333 155 -264.666 155 -453.999v-37
c0 -184.667 -64 -345.667 -192 -483zM1151 760c0 125.333 -27.332 228.333 -81.999 309c-65.333 95.333 -159.666 143 -282.999 143c-134.667 0 -257.334 -73 -368.001 -219c-104 -133.333 -156.667 -268.333 -158 -405l4 -39c0 -53.333 9.16699 -102.5 27.5 -147.5
s43.666 -83.833 75.999 -116.5s70.666 -58 114.999 -76s93.833 -27 148.5 -27c160.667 0 290.334 60 389.001 180c87.333 104 131 221 131 351v47z" />
    <glyph glyph-name="Otilde" unicode="&#xd5;" horiz-adv-x="1418" 
d="M1182 240c-146 -156 -336.666 -234.001 -571.999 -234.001c-156.667 0 -289 49.333 -397 148c-106.667 99.333 -160.667 225.333 -162 378l-8 48c0 207.333 70.333 392.333 211 555c147.333 172 322.666 258 525.999 258c186 0 332.333 -59.667 439 -179
c103.333 -113.333 155 -264.666 155 -453.999v-37c0 -184.667 -64 -345.667 -192 -483zM1151 759.999c0 125.333 -27.332 228.333 -81.999 309c-65.333 95.333 -159.666 143 -282.999 143c-134.667 0 -257.334 -73 -368.001 -219c-104 -133.333 -156.667 -268.333 -158 -405
l4 -39c0 -53.333 9.16699 -102.5 27.5 -147.5s43.666 -83.833 75.999 -116.5s70.666 -58 114.999 -76s93.833 -27 148.5 -27c160.667 0 290.334 60 389.001 180c87.333 104 131 221 131 351v47zM1071 1529l-46 -30c-30 -8 -49.833 -11.833 -59.5 -11.5
s-22.5 1.83301 -38.5 4.5c-15.333 4 -32.833 10 -52.5 18s-42.167 24 -67.5 48c-35.333 24.667 -55.666 38.167 -60.999 40.5s-17 3.83301 -35 4.5c-26.667 -5.33301 -46 -18 -58 -38c-8.66699 -14.667 -19.667 -27.5 -33 -38.5s-25.333 -16.5 -36 -16.5
c-24 -8 -46 -4.83301 -66 9.5s-30 30.5 -30 48.5c0 8 3.66699 18 11 30s23.333 34 48 66c38 43.333 91.667 68.333 161 75c41.333 0 76 -9.66699 104 -29c41.333 -27.333 68.833 -46.166 82.5 -56.499s31.834 -20.5 54.501 -30.5c16.667 -3.33301 31 -2.33301 43 3
s21.333 14 28 26c13.333 17.333 25.666 34.666 36.999 51.999s24.333 28.333 39 33c52 0 78.667 -27.667 80 -83c-18 -34 -35.833 -60.667 -53.5 -80s-34.834 -34.333 -51.501 -45z" />
    <glyph glyph-name="Ugrave" unicode="&#xd9;" horiz-adv-x="1246" 
d="M1163 1217l-3 -859.003c0 -31.333 -12.5 -64 -37.5 -98s-66.167 -69.333 -123.5 -106c-83.333 -57.333 -167.333 -97.666 -252 -120.999c-78 -20.667 -172.333 -31 -283 -31c-102 0 -188.667 22.667 -260 68c-84.667 51.333 -127 121 -127 209l-4 950
c0 32.667 8.16699 56.834 24.5 72.501s42.833 23.5 79.5 23.5c33.333 0 61.5 -9.5 84.5 -28.5s34.5 -42.167 34.5 -69.5v-961c12.667 -31.333 32.334 -53.5 59.001 -66.5s59 -19.5 97 -19.5c73.333 0 141.166 7.83301 203.499 23.5s120.833 41.5 175.5 77.5
c39.333 24 68.5 45.333 87.5 64s28.5 32.667 28.5 42v815c-12 16.667 -18 34.334 -18 53.001c0 32 7.5 55.5 22.5 70.5s40.167 22.5 75.5 22.5c38.667 0 72 -10.667 100 -32s43.333 -47 46 -77zM366.5 1644c-6.33301 5.33301 -9.50098 15.6689 -9.50098 31.002
c0 20 7.83301 40.333 23.5 61s29.834 31 42.501 31c6.66699 0 15.167 -2.83301 25.5 -8.5s22.833 -15.834 37.5 -30.501l95 -43l264 -107c16 -2.66699 28.167 -8.33398 36.5 -17.001s12.5 -23.334 12.5 -44.001c0 -27.333 -4.83301 -46.166 -14.5 -56.499
s-23.834 -15.5 -42.501 -15.5c-20.667 0 -42 10.333 -64 31c-35.333 12 -84.166 31 -146.499 57l-234.5 99c-10.667 2.66699 -19.167 6.66699 -25.5 12z" />
    <glyph glyph-name="Uacute" unicode="&#xda;" horiz-adv-x="1246" 
d="M1163 1217l-3 -859.003c0 -31.333 -12.5 -64 -37.5 -98s-66.167 -69.333 -123.5 -106c-83.333 -57.333 -167.333 -97.666 -252 -120.999c-78 -20.667 -172.333 -31 -283 -31c-102 0 -188.667 22.667 -260 68c-84.667 51.333 -127 121 -127 209l-4 950
c0 32.667 8.16699 56.834 24.5 72.501s42.833 23.5 79.5 23.5c33.333 0 61.5 -9.5 84.5 -28.5s34.5 -42.167 34.5 -69.5v-961c12.667 -31.333 32.334 -53.5 59.001 -66.5s59 -19.5 97 -19.5c73.333 0 141.166 7.83301 203.499 23.5s120.833 41.5 175.5 77.5
c39.333 24 68.5 45.333 87.5 64s28.5 32.667 28.5 42v815c-12 16.667 -18 34.334 -18 53.001c0 32 7.5 55.5 22.5 70.5s40.167 22.5 75.5 22.5c38.667 0 72 -10.667 100 -32s43.333 -47 46 -77zM859 1632l-234.502 -99.0029c-62.333 -26 -111.166 -45 -146.499 -57
c-22 -20.667 -43 -31 -63 -31c-19.333 0 -33.833 5.16699 -43.5 15.5s-14.5 29.166 -14.5 56.499c0 20.667 4.16699 35.334 12.5 44.001s20.5 14.334 36.5 17.001l265 107l94 43c14.667 14.667 27.167 24.834 37.5 30.501s18.833 8.5 25.5 8.5
c12.667 0 26.834 -10.333 42.501 -31s23.5 -41 23.5 -61c0 -15.333 -3.16699 -25.666 -9.5 -30.999s-14.833 -9.33301 -25.5 -12z" />
    <glyph glyph-name="Yacute" unicode="&#xdd;" horiz-adv-x="1238" 
d="M1193 1190l-439.996 -583.997l-314 -432c7.33301 -12 12 -21.833 14 -29.5s3 -14.834 3 -21.501c0 -30 -10.333 -53.833 -31 -71.5s-47.334 -26.5 -80.001 -26.5c-35.333 0 -70 9.33301 -104 28c-20.667 11.333 -34.834 23.5 -42.501 36.5s-11.5 26.167 -11.5 39.5
c0 20.667 11 42.667 33 66l295 415l-440 586c-30 10.667 -50.5 23.167 -61.5 37.5s-16.5 29.833 -16.5 46.5c0 28.667 15 52 45 70c27.333 17.333 58 26 92 26c31.333 0 54.5 -5 69.5 -15s26.167 -24.667 33.5 -44l391 -541l375 524
c6.66699 23.333 17.167 40.166 31.5 50.499s35.166 15.5 62.499 15.5c17.333 0 34.666 -3 51.999 -9s32.833 -13.833 46.5 -23.5s24.5 -21.334 32.5 -35.001s12 -27.5 12 -41.5c0 -26.667 -15.667 -49 -47 -67zM852.004 1632l-234.502 -99.0029
c-62.333 -26 -111.166 -45 -146.499 -57c-22 -20.667 -43 -31 -63 -31c-19.333 0 -33.833 5.16699 -43.5 15.5s-14.5 29.166 -14.5 56.499c0 20.667 4.16699 35.334 12.5 44.001s20.5 14.334 36.5 17.001l265 107l94 43c14.667 14.667 27.167 24.834 37.5 30.501
s18.833 8.5 25.5 8.5c12.667 0 26.834 -10.333 42.501 -31s23.5 -41 23.5 -61c0 -15.333 -3.16699 -25.666 -9.5 -30.999s-14.833 -9.33301 -25.5 -12z" />
    <glyph glyph-name="agrave" unicode="&#xe0;" horiz-adv-x="1449" 
d="M1322 25c-52 0 -87.833 6.83398 -107.5 20.501s-29.5 30.5 -29.5 50.5c0 4 0.666992 8.5 2 13.5s2.66602 10.833 3.99902 17.5c2.66699 6.66699 4.66699 13.834 6 21.501s2 13.5 2 17.5l6 18l-41.5 71c-17 29.333 -40.833 68 -71.5 116h-710
c-8 -12.667 -15.167 -23.334 -21.5 -32.001s-12.833 -18.667 -19.5 -30c-6.66699 -10.667 -13.167 -21.834 -19.5 -33.501s-12.833 -24.834 -19.5 -39.501l-25 -56c-10.667 -26 -16 -50.667 -16 -74c0 -20 -12.333 -38.5 -37 -55.5s-53.334 -25.5 -86.001 -25.5
c-49.333 0 -83.833 8.16699 -103.5 24.5s-29.5 38.166 -29.5 65.499c0 17.333 3.83301 37.333 11.5 60s20.834 46.334 39.501 71.001l90 123l232 399c43.333 76.667 86.5 146.667 129.5 210s84.5 121.666 124.5 174.999c4 31.333 20 57 48 77s59 30 93 30
c30 0 56 -8.66699 78 -26s33 -36.666 33 -57.999c0 -40 7.83301 -83.167 23.5 -129.5s37.834 -96.833 66.501 -151.5c12 -23.333 30.333 -55.5 55 -96.5s56.667 -90.167 96 -147.5l78 -108.5l109 -155.5c46 -68 79.333 -122.167 100 -162.5s31 -70.166 31 -89.499
c0 -31.333 -11.667 -57.5 -35 -78.5s-52 -31.5 -86 -31.5zM744 954.001l-237 -399h452zM525.5 1524c-6.33301 5.33301 -9.50098 15.6689 -9.50098 31.002c0 20 7.83301 40.333 23.5 61s29.834 31 42.501 31c6.66699 0 15.167 -2.83301 25.5 -8.5
s22.833 -15.834 37.5 -30.501l95 -43l264 -107c16 -2.66699 28.167 -8.33398 36.5 -17.001s12.5 -23.334 12.5 -44.001c0 -27.333 -4.83301 -46.166 -14.5 -56.499s-23.834 -15.5 -42.501 -15.5c-20.667 0 -42 10.333 -64 31c-35.333 12 -84.166 31 -146.499 57l-234.5 99
c-10.667 2.66699 -19.167 6.66699 -25.5 12z" />
    <glyph glyph-name="aacute" unicode="&#xe1;" horiz-adv-x="1449" 
d="M1322 25c-52 0 -87.833 6.83398 -107.5 20.501s-29.5 30.5 -29.5 50.5c0 4 0.666992 8.5 2 13.5s2.66602 10.833 3.99902 17.5c2.66699 6.66699 4.66699 13.834 6 21.501s2 13.5 2 17.5l6 18l-41.5 71c-17 29.333 -40.833 68 -71.5 116h-710
c-8 -12.667 -15.167 -23.334 -21.5 -32.001s-12.833 -18.667 -19.5 -30c-6.66699 -10.667 -13.167 -21.834 -19.5 -33.501s-12.833 -24.834 -19.5 -39.501l-25 -56c-10.667 -26 -16 -50.667 -16 -74c0 -20 -12.333 -38.5 -37 -55.5s-53.334 -25.5 -86.001 -25.5
c-49.333 0 -83.833 8.16699 -103.5 24.5s-29.5 38.166 -29.5 65.499c0 17.333 3.83301 37.333 11.5 60s20.834 46.334 39.501 71.001l90 123l232 399c43.333 76.667 86.5 146.667 129.5 210s84.5 121.666 124.5 174.999c4 31.333 20 57 48 77s59 30 93 30
c30 0 56 -8.66699 78 -26s33 -36.666 33 -57.999c0 -40 7.83301 -83.167 23.5 -129.5s37.834 -96.833 66.501 -151.5c12 -23.333 30.333 -55.5 55 -96.5s56.667 -90.167 96 -147.5l78 -108.5l109 -155.5c46 -68 79.333 -122.167 100 -162.5s31 -70.166 31 -89.499
c0 -31.333 -11.667 -57.5 -35 -78.5s-52 -31.5 -86 -31.5zM744 954.001l-237 -399h452zM1018 1512l-234.501 -99.0029c-62.333 -26 -111.166 -45 -146.499 -57c-22 -20.667 -43.333 -31 -64 -31c-18.667 0 -32.834 5.16699 -42.501 15.5s-14.5 29.166 -14.5 56.499
c0 20.667 4.16699 35.334 12.5 44.001s20.5 14.334 36.5 17.001l264 107l95 43c14.667 14.667 27.167 24.834 37.5 30.501s18.833 8.5 25.5 8.5c12.667 0 26.834 -10.333 42.501 -31s23.5 -41 23.5 -61c0 -15.333 -3.16699 -25.666 -9.5 -30.999s-14.833 -9.33301 -25.5 -12
z" />
    <glyph glyph-name="acircumflex" unicode="&#xe2;" horiz-adv-x="1449" 
d="M1322 25c-52 0 -87.833 6.83398 -107.5 20.501s-29.5 30.5 -29.5 50.5c0 4 0.666992 8.5 2 13.5s2.66602 10.833 3.99902 17.5c2.66699 6.66699 4.66699 13.834 6 21.501s2 13.5 2 17.5l6 18l-41.5 71c-17 29.333 -40.833 68 -71.5 116h-710
c-8 -12.667 -15.167 -23.334 -21.5 -32.001s-12.833 -18.667 -19.5 -30c-6.66699 -10.667 -13.167 -21.834 -19.5 -33.501s-12.833 -24.834 -19.5 -39.501l-25 -56c-10.667 -26 -16 -50.667 -16 -74c0 -20 -12.333 -38.5 -37 -55.5s-53.334 -25.5 -86.001 -25.5
c-49.333 0 -83.833 8.16699 -103.5 24.5s-29.5 38.166 -29.5 65.499c0 17.333 3.83301 37.333 11.5 60s20.834 46.334 39.501 71.001l90 123l232 399c43.333 76.667 86.5 146.667 129.5 210s84.5 121.666 124.5 174.999c4 31.333 20 57 48 77s59 30 93 30
c30 0 56 -8.66699 78 -26s33 -36.666 33 -57.999c0 -40 7.83301 -83.167 23.5 -129.5s37.834 -96.833 66.501 -151.5c12 -23.333 30.333 -55.5 55 -96.5s56.667 -90.167 96 -147.5l78 -108.5l109 -155.5c46 -68 79.333 -122.167 100 -162.5s31 -70.166 31 -89.499
c0 -31.333 -11.667 -57.5 -35 -78.5s-52 -31.5 -86 -31.5zM744 954.001l-237 -399h452zM1043 1290c-30 0 -53.166 4.5 -69.499 13.5s-27.833 21.5 -34.5 37.5l-156 142l-180 -135c-15.333 -41.333 -47.333 -62 -96 -62c-42.667 0 -69.834 4.16699 -81.501 12.5
s-17.5 16.5 -17.5 24.5c0 5.33301 4.16699 13.5 12.5 24.5s24.166 26.167 47.499 45.5l229 184c20.667 27.333 55 41 103 41c40.667 0 67 -13.667 79 -41l226 -207c10.667 -10.667 16 -21.667 16 -33c0 -14.667 -5.16699 -26.167 -15.5 -34.5s-31.166 -12.5 -62.499 -12.5z
" />
    <glyph glyph-name="atilde" unicode="&#xe3;" horiz-adv-x="1449" 
d="M1322 25c-52 0 -87.833 6.83398 -107.5 20.501s-29.5 30.5 -29.5 50.5c0 4 0.666992 8.5 2 13.5s2.66602 10.833 3.99902 17.5c2.66699 6.66699 4.66699 13.834 6 21.501s2 13.5 2 17.5l6 18l-41.5 71c-17 29.333 -40.833 68 -71.5 116h-710
c-8 -12.667 -15.167 -23.334 -21.5 -32.001s-12.833 -18.667 -19.5 -30c-6.66699 -10.667 -13.167 -21.834 -19.5 -33.501s-12.833 -24.834 -19.5 -39.501l-25 -56c-10.667 -26 -16 -50.667 -16 -74c0 -20 -12.333 -38.5 -37 -55.5s-53.334 -25.5 -86.001 -25.5
c-49.333 0 -83.833 8.16699 -103.5 24.5s-29.5 38.166 -29.5 65.499c0 17.333 3.83301 37.333 11.5 60s20.834 46.334 39.501 71.001l90 123l232 399c43.333 76.667 86.5 146.667 129.5 210s84.5 121.666 124.5 174.999c4 31.333 20 57 48 77s59 30 93 30
c30 0 56 -8.66699 78 -26s33 -36.666 33 -57.999c0 -40 7.83301 -83.167 23.5 -129.5s37.834 -96.833 66.501 -151.5c12 -23.333 30.333 -55.5 55 -96.5s56.667 -90.167 96 -147.5l78 -108.5l109 -155.5c46 -68 79.333 -122.167 100 -162.5s31 -70.166 31 -89.499
c0 -31.333 -11.667 -57.5 -35 -78.5s-52 -31.5 -86 -31.5zM744 954.001l-237 -399h452zM1052 1389l-46 -30c-30 -8 -49.833 -11.833 -59.5 -11.5s-22.5 1.83301 -38.5 4.5c-15.333 4 -32.833 10 -52.5 18s-42.167 24 -67.5 48c-35.333 24.667 -55.666 38.167 -60.999 40.5
s-17 3.83301 -35 4.5c-26.667 -5.33301 -46 -18 -58 -38c-8.66699 -14.667 -19.667 -27.5 -33 -38.5s-25.333 -16.5 -36 -16.5c-24 -8 -46 -4.83301 -66 9.5s-30 30.5 -30 48.5c0 8 3.66699 18 11 30s23.333 34 48 66c38 43.333 91.667 68.333 161 75
c41.333 0 76 -9.66699 104 -29c41.333 -27.333 68.833 -46.166 82.5 -56.499s31.834 -20.5 54.501 -30.5c16.667 -3.33301 31 -2.33301 43 3s21.333 14 28 26c13.333 17.333 25.666 34.666 36.999 51.999s24.333 28.333 39 33c52 0 78.667 -27.667 80 -83
c-18 -34 -35.833 -60.667 -53.5 -80s-34.834 -34.333 -51.501 -45z" />
    <glyph glyph-name="egrave" unicode="&#xe8;" horiz-adv-x="1214" 
d="M1140 999c-27.333 -17.333 -61.998 -24.668 -103.998 -22.001c-26 0 -56 8 -90 24l-629 7l-16 -287l542 18c11.333 0 23 0.666992 35 2s25.667 1.33301 41 0c52 -2.66699 88.5 -12.167 109.5 -28.5s30.833 -38.166 29.5 -65.499
c-2.66699 -31.333 -12.834 -54.833 -30.501 -70.5s-47.834 -22.167 -90.501 -19.5c-10.667 0 -36.334 4 -77.001 12l-570 -20l-16 -344l725 2c20.667 5.33301 42.334 7.33301 65.001 6c48 -2.66699 80.833 -11.834 98.5 -27.501s25.834 -37.834 24.501 -66.501
c-1.33301 -26 -10.166 -46.5 -26.499 -61.5s-44.166 -22.5 -83.499 -22.5h-56c-94 0 -206.167 -0.333008 -336.5 -1s-278.833 0.333008 -445.5 3c-28.667 -9.33301 -57.334 -13.333 -86.001 -12c-34 1.33301 -64.333 11.833 -91 31.5s-39.334 41.834 -38.001 66.501
c0 14.667 10.333 32.334 31 53.001l20 377c-17.333 10.667 -29.166 21.167 -35.499 31.5s-8.83301 22.5 -7.5 36.5c1.33301 14.667 5.5 28.5 12.5 41.5s19.833 27.167 38.5 42.5l17 303c-26 10.667 -43.5 22.167 -52.5 34.5s-12.833 25.833 -11.5 40.5
c1.33301 10 4.5 19.667 9.5 29s14.833 21 29.5 35c1.33301 19.333 5.16602 34 11.499 44s16.166 18.667 29.499 26c23.333 14.667 50 20.667 80 18c28.667 -2.66699 52.834 -8.83398 72.501 -18.501s37.167 -25.5 52.5 -47.5l649 2c28.667 8.66699 58 12.334 88 11.001
c37.333 -1.33301 68.666 -11 93.999 -29c27.333 -18 40.333 -42.667 39 -74c-2.66699 -35.333 -19.667 -62 -51 -80zM393.502 1484c-6.33301 5.33301 -9.50098 15.6689 -9.50098 31.002c0 20 7.83301 40.333 23.5 61s29.834 31 42.501 31
c6.66699 0 15.167 -2.83301 25.5 -8.5s22.833 -15.834 37.5 -30.501l95 -43l264 -107c16 -2.66699 28.167 -8.33398 36.5 -17.001s12.5 -23.334 12.5 -44.001c0 -27.333 -4.83301 -46.166 -14.5 -56.499s-23.834 -15.5 -42.501 -15.5c-20.667 0 -42 10.333 -64 31
c-35.333 12 -84.166 31 -146.499 57l-234.5 99c-10.667 2.66699 -19.167 6.66699 -25.5 12z" />
    <glyph glyph-name="eacute" unicode="&#xe9;" horiz-adv-x="1214" 
d="M1140 999c-27.333 -17.333 -61.998 -24.668 -103.998 -22.001c-26 0 -56 8 -90 24l-629 7l-16 -287l542 18c11.333 0 23 0.666992 35 2s25.667 1.33301 41 0c52 -2.66699 88.5 -12.167 109.5 -28.5s30.833 -38.166 29.5 -65.499
c-2.66699 -31.333 -12.834 -54.833 -30.501 -70.5s-47.834 -22.167 -90.501 -19.5c-10.667 0 -36.334 4 -77.001 12l-570 -20l-16 -344l725 2c20.667 5.33301 42.334 7.33301 65.001 6c48 -2.66699 80.833 -11.834 98.5 -27.501s25.834 -37.834 24.501 -66.501
c-1.33301 -26 -10.166 -46.5 -26.499 -61.5s-44.166 -22.5 -83.499 -22.5h-56c-94 0 -206.167 -0.333008 -336.5 -1s-278.833 0.333008 -445.5 3c-28.667 -9.33301 -57.334 -13.333 -86.001 -12c-34 1.33301 -64.333 11.833 -91 31.5s-39.334 41.834 -38.001 66.501
c0 14.667 10.333 32.334 31 53.001l20 377c-17.333 10.667 -29.166 21.167 -35.499 31.5s-8.83301 22.5 -7.5 36.5c1.33301 14.667 5.5 28.5 12.5 41.5s19.833 27.167 38.5 42.5l17 303c-26 10.667 -43.5 22.167 -52.5 34.5s-12.833 25.833 -11.5 40.5
c1.33301 10 4.5 19.667 9.5 29s14.833 21 29.5 35c1.33301 19.333 5.16602 34 11.499 44s16.166 18.667 29.499 26c23.333 14.667 50 20.667 80 18c28.667 -2.66699 52.834 -8.83398 72.501 -18.501s37.167 -25.5 52.5 -47.5l649 2c28.667 8.66699 58 12.334 88 11.001
c37.333 -1.33301 68.666 -11 93.999 -29c27.333 -18 40.333 -42.667 39 -74c-2.66699 -35.333 -19.667 -62 -51 -80zM886.002 1472l-234.501 -99.0029c-62.333 -26 -111.166 -45 -146.499 -57c-22 -20.667 -43.333 -31 -64 -31c-18.667 0 -32.834 5.16699 -42.501 15.5
s-14.5 29.166 -14.5 56.499c0 20.667 4.16699 35.334 12.5 44.001s20.5 14.334 36.5 17.001l264 107l95 43c14.667 14.667 27.167 24.834 37.5 30.501s18.833 8.5 25.5 8.5c12.667 0 26.834 -10.333 42.501 -31s23.5 -41 23.5 -61c0 -15.333 -3.16699 -25.666 -9.5 -30.999
s-14.833 -9.33301 -25.5 -12z" />
    <glyph glyph-name="ecircumflex" unicode="&#xea;" horiz-adv-x="1214" 
d="M1140 999c-27.333 -17.333 -61.998 -24.668 -103.998 -22.001c-26 0 -56 8 -90 24l-629 7l-16 -287l542 18c11.333 0 23 0.666992 35 2s25.667 1.33301 41 0c52 -2.66699 88.5 -12.167 109.5 -28.5s30.833 -38.166 29.5 -65.499
c-2.66699 -31.333 -12.834 -54.833 -30.501 -70.5s-47.834 -22.167 -90.501 -19.5c-10.667 0 -36.334 4 -77.001 12l-570 -20l-16 -344l725 2c20.667 5.33301 42.334 7.33301 65.001 6c48 -2.66699 80.833 -11.834 98.5 -27.501s25.834 -37.834 24.501 -66.501
c-1.33301 -26 -10.166 -46.5 -26.499 -61.5s-44.166 -22.5 -83.499 -22.5h-56c-94 0 -206.167 -0.333008 -336.5 -1s-278.833 0.333008 -445.5 3c-28.667 -9.33301 -57.334 -13.333 -86.001 -12c-34 1.33301 -64.333 11.833 -91 31.5s-39.334 41.834 -38.001 66.501
c0 14.667 10.333 32.334 31 53.001l20 377c-17.333 10.667 -29.166 21.167 -35.499 31.5s-8.83301 22.5 -7.5 36.5c1.33301 14.667 5.5 28.5 12.5 41.5s19.833 27.167 38.5 42.5l17 303c-26 10.667 -43.5 22.167 -52.5 34.5s-12.833 25.833 -11.5 40.5
c1.33301 10 4.5 19.667 9.5 29s14.833 21 29.5 35c1.33301 19.333 5.16602 34 11.499 44s16.166 18.667 29.499 26c23.333 14.667 50 20.667 80 18c28.667 -2.66699 52.834 -8.83398 72.501 -18.501s37.167 -25.5 52.5 -47.5l649 2c28.667 8.66699 58 12.334 88 11.001
c37.333 -1.33301 68.666 -11 93.999 -29c27.333 -18 40.333 -42.667 39 -74c-2.66699 -35.333 -19.667 -62 -51 -80zM921.002 1290c-31.333 0 -54.834 4.5 -70.501 13.5s-26.834 21.5 -33.501 37.5l-156 142l-182 -135c-18 -41.333 -51 -62 -99 -62
c-42 0 -69.167 4.16699 -81.5 12.5s-18.5 16.5 -18.5 24.5c0 5.33301 4.5 13.5 13.5 24.5s24.833 26.167 47.5 45.5l232 184c20.667 27.333 54.667 41 102 41c23.333 0 40.833 -3.5 52.5 -10.5s20.834 -17.167 27.501 -30.5l228 -207c10.667 -10.667 16 -21.667 16 -33
c0 -14.667 -5.16699 -26.167 -15.5 -34.5s-31.166 -12.5 -62.499 -12.5z" />
    <glyph glyph-name="igrave" unicode="&#xec;" horiz-adv-x="476" 
d="M278 25c-17.333 -1.33301 -34.1689 -0.666992 -50.502 2s-33.833 8 -52.5 16c-21.333 8 -36.166 16.5 -44.499 25.5s-12.833 18.833 -13.5 29.5c0 8.66699 2 17.667 6 27s13.333 20.333 28 33l-49 923l-25 33c0 30 16.333 56 49 78c28.667 22 64 33.667 106 35
c39.333 2.66699 67.333 -2.5 84 -15.5s26.334 -31.833 29.001 -56.5c0 -6.66699 -1.5 -15.834 -4.5 -27.501s-9.16699 -25.167 -18.5 -40.5l51 -927c10 -11.333 16.5 -21 19.5 -29s5.16699 -17 6.5 -27c2.66699 -21.333 -4.83301 -39.166 -22.5 -53.499
s-50.5 -22.833 -98.5 -25.5zM-16.5029 1484c-6.33301 5.33301 -9.50098 15.6689 -9.50098 31.002c0 20 7.83301 40.333 23.5 61s29.834 31 42.501 31c6.66699 0 15.167 -2.83301 25.5 -8.5s22.833 -15.834 37.5 -30.501l95 -43l264 -107
c16 -2.66699 28.167 -8.33398 36.5 -17.001s12.5 -23.334 12.5 -44.001c0 -27.333 -4.83301 -46.166 -14.5 -56.499s-23.834 -15.5 -42.501 -15.5c-20.667 0 -42 10.333 -64 31c-35.333 12 -84.166 31 -146.499 57l-234.5 99c-10.667 2.66699 -19.167 6.66699 -25.5 12z" />
    <glyph glyph-name="iacute" unicode="&#xed;" horiz-adv-x="476" 
d="M278 25c-17.333 -1.33301 -34.1689 -0.666992 -50.502 2s-33.833 8 -52.5 16c-21.333 8 -36.166 16.5 -44.499 25.5s-12.833 18.833 -13.5 29.5c0 8.66699 2 17.667 6 27s13.333 20.333 28 33l-49 923l-25 33c0 30 16.333 56 49 78c28.667 22 64 33.667 106 35
c39.333 2.66699 67.333 -2.5 84 -15.5s26.334 -31.833 29.001 -56.5c0 -6.66699 -1.5 -15.834 -4.5 -27.501s-9.16699 -25.167 -18.5 -40.5l51 -927c10 -11.333 16.5 -21 19.5 -29s5.16699 -17 6.5 -27c2.66699 -21.333 -4.83301 -39.166 -22.5 -53.499
s-50.5 -22.833 -98.5 -25.5zM475.997 1472l-234.501 -99.0029c-62.333 -26 -111.166 -45 -146.499 -57c-22 -20.667 -43.333 -31 -64 -31c-18.667 0 -32.834 5.16699 -42.501 15.5s-14.5 29.166 -14.5 56.499c0 20.667 4.16699 35.334 12.5 44.001s20.5 14.334 36.5 17.001
l264 107l95 43c14.667 14.667 27.167 24.834 37.5 30.501s18.833 8.5 25.5 8.5c12.667 0 26.834 -10.333 42.501 -31s23.5 -41 23.5 -61c0 -15.333 -3.16699 -25.666 -9.5 -30.999s-14.833 -9.33301 -25.5 -12z" />
    <glyph glyph-name="ograve" unicode="&#xf2;" horiz-adv-x="1425" 
d="M1186 219c-146 -143.333 -336.668 -215 -572.001 -215c-150 0 -279 42.333 -387 127c-113.333 88.667 -170.666 207.334 -171.999 356.001l-8 43c0 195.333 73 368.333 219 519c151.333 151.333 324 227 518 227c178 0 321.333 -52.667 430 -158
c109.333 -102 164 -242.667 164 -422v-37c0 -168.667 -64 -315.334 -192 -440.001zM1155 696c0 118.667 -29.333 215.668 -88 291.001c-64 80.667 -156.333 121 -277 121c-133.333 0 -254 -62 -362 -186c-108 -124.667 -162.667 -253 -164 -385l4 -37
c2.66699 -102.667 39 -185.334 109 -248.001c69.333 -57.333 155.333 -86 258 -86c159.333 0 289 54.667 389 164c87.333 98 131 205 131 321v45zM549.499 1507c-6.33301 5.33301 -9.50098 15.6689 -9.50098 31.002c0 20 7.83301 40.333 23.5 61s29.834 31 42.501 31
c6.66699 0 15.167 -2.83301 25.5 -8.5s22.833 -15.834 37.5 -30.501l95 -43l264 -107c16 -2.66699 28.167 -8.33398 36.5 -17.001s12.5 -23.334 12.5 -44.001c0 -27.333 -4.83301 -46.166 -14.5 -56.499s-23.834 -15.5 -42.501 -15.5c-20.667 0 -42 10.333 -64 31
c-35.333 12 -84.166 31 -146.499 57l-234.5 99c-10.667 2.66699 -19.167 6.66699 -25.5 12z" />
    <glyph glyph-name="oacute" unicode="&#xf3;" horiz-adv-x="1425" 
d="M1186 219c-146 -143.333 -336.668 -215 -572.001 -215c-150 0 -279 42.333 -387 127c-113.333 88.667 -170.666 207.334 -171.999 356.001l-8 43c0 195.333 73 368.333 219 519c151.333 151.333 324 227 518 227c178 0 321.333 -52.667 430 -158
c109.333 -102 164 -242.667 164 -422v-37c0 -168.667 -64 -315.334 -192 -440.001zM1155 696c0 118.667 -29.333 215.668 -88 291.001c-64 80.667 -156.333 121 -277 121c-133.333 0 -254 -62 -362 -186c-108 -124.667 -162.667 -253 -164 -385l4 -37
c2.66699 -102.667 39 -185.334 109 -248.001c69.333 -57.333 155.333 -86 258 -86c159.333 0 289 54.667 389 164c87.333 98 131 205 131 321v45zM1002 1505l-234.501 -99.0029c-62.333 -26 -111.166 -45 -146.499 -57c-22 -20.667 -43.333 -31 -64 -31
c-18.667 0 -32.834 5.16699 -42.501 15.5s-14.5 29.166 -14.5 56.499c0 20.667 4.16699 35.334 12.5 44.001s20.5 14.334 36.5 17.001l264 107l95 43c14.667 14.667 27.167 24.834 37.5 30.501s18.833 8.5 25.5 8.5c12.667 0 26.834 -10.333 42.501 -31s23.5 -41 23.5 -61
c0 -15.333 -3.16699 -25.666 -9.5 -30.999s-14.833 -9.33301 -25.5 -12z" />
    <glyph glyph-name="ocircumflex" unicode="&#xf4;" horiz-adv-x="1425" 
d="M1186 219c-146 -143.333 -336.668 -215 -572.001 -215c-150 0 -279 42.333 -387 127c-113.333 88.667 -170.666 207.334 -171.999 356.001l-8 43c0 195.333 73 368.333 219 519c151.333 151.333 324 227 518 227c178 0 321.333 -52.667 430 -158
c109.333 -102 164 -242.667 164 -422v-37c0 -168.667 -64 -315.334 -192 -440.001zM1155 696c0 118.667 -29.333 215.668 -88 291.001c-64 80.667 -156.333 121 -277 121c-133.333 0 -254 -62 -362 -186c-108 -124.667 -162.667 -253 -164 -385l4 -37
c2.66699 -102.667 39 -185.334 109 -248.001c69.333 -57.333 155.333 -86 258 -86c159.333 0 289 54.667 389 164c87.333 98 131 205 131 321v45zM1038 1331c-31.333 0 -54.832 4.5 -70.499 13.5s-26.834 22.167 -33.501 39.5l-156 140l-182 -135
c-15.333 -41.333 -47.333 -62 -96 -62c-42.667 0 -70.167 4.16699 -82.5 12.5s-18.5 16.5 -18.5 24.5c0 5.33301 4.16699 13.833 12.5 25.5s24.166 26.5 47.499 44.5l231 184c20.667 27.333 54.667 41 102 41c23.333 0 40.833 -3.5 52.5 -10.5s20.834 -17.167 27.501 -30.5
l226 -207c10.667 -10.667 16 -21 16 -31c0 -14.667 -4.83301 -26.5 -14.5 -35.5s-30.167 -13.5 -61.5 -13.5z" />
    <glyph glyph-name="otilde" unicode="&#xf5;" horiz-adv-x="1425" 
d="M1186 219c-146 -143.333 -336.668 -215 -572.001 -215c-150 0 -279 42.333 -387 127c-113.333 88.667 -170.666 207.334 -171.999 356.001l-8 43c0 195.333 73 368.333 219 519c151.333 151.333 324 227 518 227c178 0 321.333 -52.667 430 -158
c109.333 -102 164 -242.667 164 -422v-37c0 -168.667 -64 -315.334 -192 -440.001zM1155 696c0 118.667 -29.333 215.668 -88 291.001c-64 80.667 -156.333 121 -277 121c-133.333 0 -254 -62 -362 -186c-108 -124.667 -162.667 -253 -164 -385l4 -37
c2.66699 -102.667 39 -185.334 109 -248.001c69.333 -57.333 155.333 -86 258 -86c159.333 0 289 54.667 389 164c87.333 98 131 205 131 321v45zM1052 1404l-46 -30c-30 -8 -49.833 -11.833 -59.5 -11.5s-22.5 1.83301 -38.5 4.5c-15.333 4 -32.833 10 -52.5 18
s-42.167 24 -67.5 48c-35.333 24.667 -55.666 38.167 -60.999 40.5s-17 3.83301 -35 4.5c-26.667 -5.33301 -46 -18 -58 -38c-8.66699 -14.667 -19.667 -27.5 -33 -38.5s-25.333 -16.5 -36 -16.5c-24 -8 -46 -4.83301 -66 9.5s-30 30.5 -30 48.5c0 8 3.66699 18 11 30
s23.333 34 48 66c38 43.333 91.667 68.333 161 75c41.333 0 76 -9.66699 104 -29c41.333 -27.333 68.833 -46.166 82.5 -56.499s31.834 -20.5 54.501 -30.5c16.667 -3.33301 31 -2.33301 43 3s21.333 14 28 26c13.333 17.333 25.666 34.666 36.999 51.999
s24.333 28.333 39 33c52 0 78.667 -27.667 80 -83c-18 -34 -35.833 -60.667 -53.5 -80s-34.834 -34.333 -51.501 -45z" />
    <glyph glyph-name="divide" unicode="&#xf7;" horiz-adv-x="1096" 
d="M627 863c-20.667 -18.667 -50.6631 -35.333 -89.9961 -50c-20.667 -7.33301 -37.334 -9.33301 -50.001 -6s-23.334 10.666 -32.001 21.999c-21.333 30 -28.5 63 -21.5 99s32.167 77.333 75.5 124c10.667 6 20.667 11.333 30 16s18.333 8.66699 27 12
c30 10.667 53.167 14.5 69.5 11.5s28.166 -9.83301 35.499 -20.5c7.33301 -9.33301 12.166 -22.166 14.499 -38.499s0.833008 -36.833 -4.5 -61.5c-9.33301 -49.333 -27.333 -85.333 -54 -108zM1021 565.001c-1.33301 -0.666992 -8.33008 -2.00098 -20.9971 -4.00098
c-7.33301 -1.33301 -16.5 -3.16602 -27.5 -5.49902s-23.5 -4.83301 -37.5 -7.5c-35.333 -7.33301 -70.333 -14.166 -105 -20.499s-69.334 -12.166 -104.001 -17.499c-69.333 -10.667 -148.166 -18.667 -236.499 -24s-186.833 -8 -295.5 -8c-36 0 -66.333 2.16699 -91 6.5
s-44.667 10.5 -60 18.5s-26.333 17.667 -33 29s-10 24 -10 38c0 13.333 2.5 22.5 7.5 27.5s12.5 7.83301 22.5 8.5l133 6c35.333 1.33301 68.166 2.66602 98.499 3.99902s58.5 2.66602 84.5 3.99902c83.333 4.66699 172.5 10.667 267.5 18s196.5 16.666 304.5 27.999
c9.33301 1.33301 17.666 2.33301 24.999 3s13.666 1 18.999 1c32 0 54 -5 66 -15s18 -23.667 18 -41c0 -13.333 -2.16699 -23.666 -6.5 -30.999s-10.5 -13.333 -18.5 -18zM585.007 93c-21.333 -19.333 -51.666 -36 -90.999 -50
c-20.667 -7.33301 -37.334 -9.33301 -50.001 -6s-23.334 10.666 -32.001 21.999c-21.333 30 -28.333 63 -21 99s32.333 77.333 75 124c10.667 6 20.834 11.333 30.501 16s18.834 8.66699 27.501 12c30 10.667 53 14.5 69 11.5s28 -9.83301 36 -20.5
c7.33301 -9.33301 12.166 -22.166 14.499 -38.499s0.833008 -36.833 -4.5 -61.5c-10 -49.333 -28 -85.333 -54 -108z" />
    <glyph glyph-name="ugrave" unicode="&#xf9;" horiz-adv-x="1246" 
d="M1182 1079l-43.001 -782.004c-1.33301 -27.333 -15.666 -56 -42.999 -86s-70.333 -60.667 -129 -92c-78 -44 -162.167 -74.5 -252.5 -91.5s-186.5 -23.5 -288.5 -19.5c-48 2.66699 -93.167 9.83398 -135.5 21.501s-81.166 28.5 -116.499 50.5
c-84.667 50.667 -125 117.667 -121 201l41 866c1.33301 30 10.166 51.833 26.499 65.5s43.166 19.167 80.499 16.5c35.333 -2.66699 63.833 -12.5 85.5 -29.5s31.834 -38.5 30.501 -64.5l-45 -877c12.667 -30 32 -51.5 58 -64.5s56.667 -20.167 92 -21.5
c147.333 -6.66699 275 17.333 383 72c42 21.333 73 40 93 56s30 27.333 30 34l39 743c-14 16.667 -19.667 32.334 -17 47.001c1.33301 28.667 9.83301 49.834 25.5 63.501s41.5 19.834 77.5 18.501c34 -2.66699 66.667 -15.667 98 -39c28.667 -20 43 -43 43 -69z
M366.499 1484c-6.33301 5.33301 -9.50098 15.6689 -9.50098 31.002c0 20 7.83301 40.333 23.5 61s29.834 31 42.501 31c6.66699 0 15.167 -2.83301 25.5 -8.5s22.833 -15.834 37.5 -30.501l95 -43l264 -107c16 -2.66699 28.167 -8.33398 36.5 -17.001
s12.5 -23.334 12.5 -44.001c0 -27.333 -4.83301 -46.166 -14.5 -56.499s-23.834 -15.5 -42.501 -15.5c-20.667 0 -42 10.333 -64 31c-35.333 12 -84.166 31 -146.499 57l-234.5 99c-10.667 2.66699 -19.167 6.66699 -25.5 12z" />
    <glyph glyph-name="uacute" unicode="&#xfa;" horiz-adv-x="1246" 
d="M1182 1079l-43.001 -782.004c-1.33301 -27.333 -15.666 -56 -42.999 -86s-70.333 -60.667 -129 -92c-78 -44 -162.167 -74.5 -252.5 -91.5s-186.5 -23.5 -288.5 -19.5c-48 2.66699 -93.167 9.83398 -135.5 21.501s-81.166 28.5 -116.499 50.5
c-84.667 50.667 -125 117.667 -121 201l41 866c1.33301 30 10.166 51.833 26.499 65.5s43.166 19.167 80.499 16.5c35.333 -2.66699 63.833 -12.5 85.5 -29.5s31.834 -38.5 30.501 -64.5l-45 -877c12.667 -30 32 -51.5 58 -64.5s56.667 -20.167 92 -21.5
c147.333 -6.66699 275 17.333 383 72c42 21.333 73 40 93 56s30 27.333 30 34l39 743c-14 16.667 -19.667 32.334 -17 47.001c1.33301 28.667 9.83301 49.834 25.5 63.501s41.5 19.834 77.5 18.501c34 -2.66699 66.667 -15.667 98 -39c28.667 -20 43 -43 43 -69z
M898.999 1472l-234.501 -99.0029c-62.333 -26 -111.166 -45 -146.499 -57c-22 -20.667 -43.333 -31 -64 -31c-18.667 0 -32.834 5.16699 -42.501 15.5s-14.5 29.166 -14.5 56.499c0 20.667 4.16699 35.334 12.5 44.001s20.5 14.334 36.5 17.001l264 107l95 43
c14.667 14.667 27.167 24.834 37.5 30.501s18.833 8.5 25.5 8.5c12.667 0 26.834 -10.333 42.501 -31s23.5 -41 23.5 -61c0 -15.333 -3.16699 -25.666 -9.5 -30.999s-14.833 -9.33301 -25.5 -12z" />
    <glyph glyph-name="yacute" unicode="&#xfd;" horiz-adv-x="1234" 
d="M1189 1081l-437.997 -530.002l-314 -395c7.33301 -11.333 12 -20 14 -26s3 -12.333 3 -19c0 -27.333 -10.333 -49.333 -31 -66s-47.334 -25 -80.001 -25c-36.667 0 -71.334 8.33301 -104.001 25c-20.667 10.667 -34.834 21.834 -42.501 33.501s-11.5 24.5 -11.5 38.5
c0 18.667 11 38.334 33 59.001l293 379l-440 535c-28.667 9.33301 -48.5 20.5 -59.5 33.5s-16.5 26.833 -16.5 41.5c0 26 15 47.333 45 64c28.667 16 59.334 24 92.001 24c31.333 0 54.5 -4.66699 69.5 -14s26.167 -23 33.5 -41l391 -493l375 479
c6.66699 20 17.167 35.167 31.5 45.5s35.166 15.5 62.499 15.5c30 0 62.667 -11 98 -33c30 -18.667 45 -41.667 45 -69c0 -12.667 -3.33301 -24 -10 -34s-19.667 -19.333 -39 -28zM904.003 1472l-234.501 -99.0029c-62.333 -26 -111.166 -45 -146.499 -57
c-22 -20.667 -43.333 -31 -64 -31c-18.667 0 -32.834 5.16699 -42.501 15.5s-14.5 29.166 -14.5 56.499c0 20.667 4.16699 35.334 12.5 44.001s20.5 14.334 36.5 17.001l264 107l95 43c14.667 14.667 27.167 24.834 37.5 30.501s18.833 8.5 25.5 8.5
c12.667 0 26.834 -10.333 42.501 -31s23.5 -41 23.5 -61c0 -15.333 -3.16699 -25.666 -9.5 -30.999s-14.833 -9.33301 -25.5 -12z" />
    <glyph glyph-name="Abreve" unicode="&#x102;" 
d="M985 1516c-32 -28.667 -92.668 -45.666 -182.001 -50.999c-86 -2.66699 -161.167 16.333 -225.5 57s-96.5 96 -96.5 166c0 39.333 19.333 59 58 59c46 0 69 -19.667 69 -59c16 -28.667 30.667 -49.5 44 -62.5s32 -23.833 56 -32.5c24 -6 54.333 -8.66699 91 -8
c58.667 4 97.334 13.167 116.001 27.5s31 35.166 37 62.499c0 40 23.333 60 70 60c39.333 0 59 -20 59 -60c0 -70.667 -32 -123.667 -96 -159zM1321 29.001c-50.667 0 -85.834 7.16602 -105.501 21.499s-30.167 32.833 -31.5 55.5c4 19.333 7.33301 37.333 10 54
c2.66699 17.333 6 30.333 10 39c-9.33301 20 -22.833 46.5 -40.5 79.5s-42.5 75.5 -74.5 127.5h-706l-21.5 -33.5l-19.5 -30.5l-20.5 -38.5c-7 -13.667 -13.833 -28.167 -20.5 -43.5l-25 -61c-10.667 -23.333 -16 -50 -16 -80c0 -28.667 -13.667 -50.667 -41 -66
c-20.667 -16 -48 -24 -82 -24c-48 0 -82.167 8.5 -102.5 25.5s-30.5 41.833 -30.5 74.5c0 38 17 85 51 141c8 14 19.667 31.833 35 53.5l57 79.5l230 435c88.667 166 173.334 306.667 254.001 422c2.66699 34 18 61.5 46 82.5s59.667 31.5 95 31.5
c31.333 0 57.666 -8.83301 78.999 -26.5s32 -39.5 32 -65.5c0 -65.333 16.333 -135.666 49 -210.999c18.667 -43.333 43.834 -95.5 75.501 -156.5s70.5 -128.167 116.5 -201.5l78 -120l109 -169c46 -74 79.333 -133.5 100 -178.5s31 -77.833 31 -98.5
c0 -32.667 -11.667 -60.5 -35 -83.5s-52 -34.5 -86 -34.5zM742.999 1044l-237 -438h452z" />
    <glyph glyph-name="abreve" unicode="&#x103;" horiz-adv-x="1449" 
d="M1322 25c-52 0 -87.833 6.83398 -107.5 20.501s-29.5 30.5 -29.5 50.5c0 4 0.666992 8.5 2 13.5s2.66602 10.833 3.99902 17.5c2.66699 6.66699 4.66699 13.834 6 21.501s2 13.5 2 17.5l6 18l-41.5 71c-17 29.333 -40.833 68 -71.5 116h-710
c-8 -12.667 -15.167 -23.334 -21.5 -32.001s-12.833 -18.667 -19.5 -30c-6.66699 -10.667 -13.167 -21.834 -19.5 -33.501s-12.833 -24.834 -19.5 -39.501l-25 -56c-10.667 -26 -16 -50.667 -16 -74c0 -20 -12.333 -38.5 -37 -55.5s-53.334 -25.5 -86.001 -25.5
c-49.333 0 -83.833 8.16699 -103.5 24.5s-29.5 38.166 -29.5 65.499c0 17.333 3.83301 37.333 11.5 60s20.834 46.334 39.501 71.001l90 123l232 399c43.333 76.667 86.5 146.667 129.5 210s84.5 121.666 124.5 174.999c4 31.333 20 57 48 77s59 30 93 30
c30 0 56 -8.66699 78 -26s33 -36.666 33 -57.999c0 -40 7.83301 -83.167 23.5 -129.5s37.834 -96.833 66.501 -151.5c12 -23.333 30.333 -55.5 55 -96.5s56.667 -90.167 96 -147.5l78 -108.5l109 -155.5c46 -68 79.333 -122.167 100 -162.5s31 -70.166 31 -89.499
c0 -31.333 -11.667 -57.5 -35 -78.5s-52 -31.5 -86 -31.5zM744 954.001l-237 -399h452zM986 1403c-32 -28.667 -92.668 -45.667 -182.001 -51c-86 -2.66699 -161.167 16.333 -225.5 57s-96.5 96 -96.5 166c0 39.333 19.333 59 58 59c46 0 69 -19.667 69 -59
c16 -28.667 30.667 -49.5 44 -62.5s32 -23.5 56 -31.5c24 -6 54.333 -8.66699 91 -8c58.667 4 97.334 13.167 116.001 27.5s31 35.166 37 62.499c0 39.333 23.333 59 70 59c39.333 0 59 -19.667 59 -59c0 -71.333 -32 -124.666 -96 -159.999z" />
    <glyph glyph-name="Dslash" unicode="&#x110;" horiz-adv-x="1515" 
d="M1128 281c-166.667 -124.667 -310.001 -203.335 -430.001 -236.002c-78 -22 -207.667 -33 -389 -33c-30 0 -50.833 5.5 -62.5 16.5s-17.5 28.167 -17.5 51.5v526l-74 -6l-21 -4c-39.333 0 -66.833 6.83301 -82.5 20.5s-23.5 32.834 -23.5 57.501s11.667 48.334 35 71.001
c10.667 11.333 22.5 19.666 35.5 24.999s27.167 9.33301 42.5 12l88 4v420l-8 51c0 30.667 7.83301 53.167 23.5 67.5s41.167 21.5 76.5 21.5c50.667 0 92.334 -18.667 125.001 -56c82 22 163.167 38.167 243.5 48.5s165.833 15.5 256.5 15.5
c130.667 0 252 -41.667 364 -125c117.333 -87.333 176 -194.666 176 -321.999c0 -120 -29.333 -231.833 -88 -335.5s-148.667 -200.5 -270 -290.5zM1169 1075c-72.667 68.667 -160.669 102.999 -264.002 102.999c-78 0 -154.5 -7.5 -229.5 -22.5
s-151.5 -39.167 -229.5 -72.5v-282l381 22c34 2.66699 61.5 -4.16602 82.5 -20.499s31.5 -38.833 31.5 -67.5c0 -31.333 -11.167 -56.5 -33.5 -75.5s-51.166 -28.5 -86.499 -28.5c-15.333 0 -39.333 4.66699 -72 14l-303 -27v-417c108 8 206.333 29.667 295 65
s173.334 85.333 254.001 150c90 69.333 157.833 143 203.5 221s68.5 160 68.5 246c0 69.333 -32.667 133.333 -98 192z" />
    <glyph glyph-name="dcroat" unicode="&#x111;" horiz-adv-x="1509" 
d="M1065 217c-240 -138 -493 -207.001 -759 -207.001c-30 0 -50.833 5.5 -62.5 16.5s-17.5 26.167 -17.5 45.5v479l-74 -6l-21 -4c-39.333 0 -66.833 6.5 -82.5 19.5s-23.5 30.167 -23.5 51.5c0 26 11.667 48 35 66c22 18 48 29.667 78 35l88 2v385l-8 45
c0 27.333 7.5 47.5 22.5 60.5s40.833 19.5 77.5 19.5c27.333 0 50.5 -4.16699 69.5 -12.5s38.167 -21.166 57.5 -38.499c79.333 20 159.5 34.833 240.5 44.5s166.833 14.5 257.5 14.5c125.333 0 244 -36.333 356 -109c122.667 -80 184 -179.667 184 -299
c0 -244 -139.333 -446.667 -418 -608zM1166 978.999c-76.667 61.333 -164.668 91.9971 -264.001 91.9971c-78 0 -154.5 -6.83301 -229.5 -20.5s-151.5 -35.5 -229.5 -65.5v-256l379 21c34 2.66699 61.333 -3.66602 82 -18.999c22.667 -14.667 34 -35.667 34 -63
c0 -28.667 -11.167 -51.667 -33.5 -69s-51.166 -26 -86.499 -26c-8.66699 0 -18.334 1.16699 -29.001 3.5s-25 4.83301 -43 7.5l-303 -23v-379c106.667 7.33301 204.334 27.333 293.001 60s174 78.334 256 137.001c90 64 157.833 131.167 203.5 201.5s68.5 144.5 68.5 222.5
c0 62.667 -32.667 121.334 -98 176.001z" />
    <glyph glyph-name="Itilde" unicode="&#x128;" horiz-adv-x="440" 
d="M237 27c-35.333 0 -70.999 8 -106.999 24c-20 11.333 -33.833 22 -41.5 32s-11.5 20.667 -11.5 32c0 10.667 2.83301 21.167 8.5 31.5s16.167 21.5 31.5 33.5v1016l-27 37c2.66699 35.333 20 63.333 52 84c28 19.333 66 29 114 29c40.667 0 69.167 -7.16699 85.5 -21.5
s24.5 -35.166 24.5 -62.499c0 -16.667 -8.66699 -41.334 -26 -74.001v-1020c17.333 -19.333 26 -40 26 -62c0 -24 -9.33301 -43.167 -28 -57.5s-52.334 -21.5 -101.001 -21.5zM525.001 1483l-46 -30c-30 -8 -49.833 -11.833 -59.5 -11.5s-22.5 1.83301 -38.5 4.5
c-15.333 4 -32.833 10 -52.5 18s-42.167 24 -67.5 48c-35.333 24.667 -55.666 38.167 -60.999 40.5s-17 3.83301 -35 4.5c-26.667 -5.33301 -46 -18 -58 -38c-8.66699 -14.667 -19.667 -27.5 -33 -38.5s-25.333 -16.5 -36 -16.5c-24 -8 -46 -4.83301 -66 9.5
s-30 30.5 -30 48.5c0 8 3.66699 18 11 30s23.333 34 48 66c38 43.333 91.667 68.333 161 75c41.333 0 76 -9.66699 104 -29c41.333 -27.333 68.833 -46.166 82.5 -56.499s31.834 -20.5 54.501 -30.5c16.667 -3.33301 31 -2.33301 43 3s21.333 14 28 26
c13.333 17.333 25.666 34.666 36.999 51.999s24.333 28.333 39 33c52 0 78.667 -27.667 80 -83c-18 -34 -35.833 -60.667 -53.5 -80s-34.834 -34.333 -51.501 -45z" />
    <glyph glyph-name="itilde" unicode="&#x129;" horiz-adv-x="476" 
d="M278 25c-17.333 -1.33301 -34.1689 -0.666992 -50.502 2s-33.833 8 -52.5 16c-21.333 8 -36.166 16.5 -44.499 25.5s-12.833 18.833 -13.5 29.5c0 8.66699 2 17.667 6 27s13.333 20.333 28 33l-49 923l-25 33c0 30 16.333 56 49 78c28.667 22 64 33.667 106 35
c39.333 2.66699 67.333 -2.5 84 -15.5s26.334 -31.833 29.001 -56.5c0 -6.66699 -1.5 -15.834 -4.5 -27.501s-9.16699 -25.167 -18.5 -40.5l51 -927c10 -11.333 16.5 -21 19.5 -29s5.16699 -17 6.5 -27c2.66699 -21.333 -4.83301 -39.166 -22.5 -53.499
s-50.5 -22.833 -98.5 -25.5zM490.997 1346l-46 -30c-30 -8 -49.833 -11.833 -59.5 -11.5s-22.5 1.83301 -38.5 4.5c-15.333 4 -32.833 10 -52.5 18s-42.167 24 -67.5 48c-35.333 24.667 -55.666 38.167 -60.999 40.5s-17 3.83301 -35 4.5c-26.667 -5.33301 -46 -18 -58 -38
c-8.66699 -14.667 -19.667 -27.5 -33 -38.5s-25.333 -16.5 -36 -16.5c-24 -8 -46 -4.83301 -66 9.5s-30 30.5 -30 48.5c0 8 3.66699 18 11 30s23.333 34 48 66c38 43.333 91.667 68.333 161 75c41.333 0 76 -9.66699 104 -29c41.333 -27.333 68.833 -46.166 82.5 -56.499
s31.834 -20.5 54.501 -30.5c16.667 -3.33301 31 -2.33301 43 3s21.333 14 28 26c13.333 17.333 25.666 34.666 36.999 51.999s24.333 28.333 39 33c52 0 78.667 -27.667 80 -83c-18 -34 -35.833 -60.667 -53.5 -80s-34.834 -34.333 -51.501 -45z" />
    <glyph glyph-name="Utilde" unicode="&#x168;" horiz-adv-x="1246" 
d="M1163 1217l-3 -859.003c0 -31.333 -12.5 -64 -37.5 -98s-66.167 -69.333 -123.5 -106c-83.333 -57.333 -167.333 -97.666 -252 -120.999c-78 -20.667 -172.333 -31 -283 -31c-102 0 -188.667 22.667 -260 68c-84.667 51.333 -127 121 -127 209l-4 950
c0 32.667 8.16699 56.834 24.5 72.501s42.833 23.5 79.5 23.5c33.333 0 61.5 -9.5 84.5 -28.5s34.5 -42.167 34.5 -69.5v-961c12.667 -31.333 32.334 -53.5 59.001 -66.5s59 -19.5 97 -19.5c73.333 0 141.166 7.83301 203.499 23.5s120.833 41.5 175.5 77.5
c39.333 24 68.5 45.333 87.5 64s28.5 32.667 28.5 42v815c-12 16.667 -18 34.334 -18 53.001c0 32 7.5 55.5 22.5 70.5s40.167 22.5 75.5 22.5c38.667 0 72 -10.667 100 -32s43.333 -47 46 -77zM874 1529l-46 -30c-30 -8 -49.833 -11.833 -59.5 -11.5
s-22.5 1.83301 -38.5 4.5c-15.333 4 -32.833 10 -52.5 18s-42.167 24 -67.5 48c-35.333 24.667 -55.666 38.167 -60.999 40.5s-17 3.83301 -35 4.5c-26.667 -5.33301 -46 -18 -58 -38c-8.66699 -14.667 -19.667 -27.5 -33 -38.5s-25.333 -16.5 -36 -16.5
c-24 -8 -46 -4.83301 -66 9.5s-30 30.5 -30 48.5c0 8 3.66699 18 11 30s23.333 34 48 66c38 43.333 91.667 68.333 161 75c41.333 0 76 -9.66699 104 -29c41.333 -27.333 68.833 -46.166 82.5 -56.499s31.834 -20.5 54.501 -30.5c16.667 -3.33301 31 -2.33301 43 3
s21.333 14 28 26c13.333 17.333 25.666 34.666 36.999 51.999s24.333 28.333 39 33c52 0 78.667 -27.667 80 -83c-18 -34 -35.833 -60.667 -53.5 -80s-34.834 -34.333 -51.501 -45z" />
    <glyph glyph-name="utilde" unicode="&#x169;" horiz-adv-x="1246" 
d="M1182 1079l-43.001 -782.004c-1.33301 -27.333 -15.666 -56 -42.999 -86s-70.333 -60.667 -129 -92c-78 -44 -162.167 -74.5 -252.5 -91.5s-186.5 -23.5 -288.5 -19.5c-48 2.66699 -93.167 9.83398 -135.5 21.501s-81.166 28.5 -116.499 50.5
c-84.667 50.667 -125 117.667 -121 201l41 866c1.33301 30 10.166 51.833 26.499 65.5s43.166 19.167 80.499 16.5c35.333 -2.66699 63.833 -12.5 85.5 -29.5s31.834 -38.5 30.501 -64.5l-45 -877c12.667 -30 32 -51.5 58 -64.5s56.667 -20.167 92 -21.5
c147.333 -6.66699 275 17.333 383 72c42 21.333 73 40 93 56s30 27.333 30 34l39 743c-14 16.667 -19.667 32.334 -17 47.001c1.33301 28.667 9.83301 49.834 25.5 63.501s41.5 19.834 77.5 18.501c34 -2.66699 66.667 -15.667 98 -39c28.667 -20 43 -43 43 -69z
M921.999 1366l-46 -30c-30 -8 -49.833 -11.833 -59.5 -11.5s-22.5 1.83301 -38.5 4.5c-15.333 4 -32.833 10 -52.5 18s-42.167 24 -67.5 48c-35.333 24.667 -55.666 38.167 -60.999 40.5s-17 3.83301 -35 4.5c-26.667 -5.33301 -46 -18 -58 -38
c-8.66699 -14.667 -19.667 -27.5 -33 -38.5s-25.333 -16.5 -36 -16.5c-24 -8 -46 -4.83301 -66 9.5s-30 30.5 -30 48.5c0 8 3.66699 18 11 30s23.333 34 48 66c38 43.333 91.667 68.333 161 75c41.333 0 76 -9.66699 104 -29c41.333 -27.333 68.833 -46.166 82.5 -56.499
s31.834 -20.5 54.501 -30.5c16.667 -3.33301 31 -2.33301 43 3s21.333 14 28 26c13.333 17.333 25.666 34.666 36.999 51.999s24.333 28.333 39 33c52 0 78.667 -27.667 80 -83c-18 -34 -35.833 -60.667 -53.5 -80s-34.834 -34.333 -51.501 -45z" />
    <glyph glyph-name="Ohorn" unicode="&#x1a0;" horiz-adv-x="1431" 
d="M1309 1235c-14.667 -12 -29.834 -22.8311 -45.501 -32.498s-35.167 -20.167 -58.5 -31.5c47.333 -70.667 82 -141.167 104 -211.5s33 -144.5 33 -222.5c0 -216.667 -71.667 -391.334 -215 -524.001c-140.667 -132.667 -321.667 -199 -543 -199
c-152.667 0 -283.667 48.667 -393 146c-109.333 99.333 -164.666 226.333 -165.999 381l-6 49c0 206 70.333 392.333 211 559c146 172 320.667 258 524 258c127.333 0 247 -41 359 -123c17.333 10.667 29.5 22.167 36.5 34.5s12.5 26.833 16.5 43.5
c-12.667 18 -19 37.667 -19 59c0 24.667 8 43.5 24 56.5s44.333 19.5 85 19.5c38 0 72.667 -9 104 -27c34.667 -20 52 -45.667 52 -77c0 -24.667 -8.33301 -50.334 -25 -77.001s-42.667 -53.667 -78 -81zM1123 772.002c0 126 -27.3311 229.001 -81.998 309.001
c-62.667 96 -155.667 144 -279 144c-137.333 0 -261.333 -73 -372 -219c-102.667 -135.333 -154.667 -272 -156 -410l6 -39c0 -53.333 8.83301 -102.5 26.5 -147.5s42.667 -83.833 75 -116.5s70.666 -58.334 114.999 -77.001s93.166 -28 146.499 -28
c148.667 0 272 52.667 370 158c100 106.667 150 233 150 379v47z" />
    <glyph glyph-name="ohorn" unicode="&#x1a1;" horiz-adv-x="1463" 
d="M1327 1124c-10.667 -8 -23.833 -16.501 -39.5 -25.501s-37.167 -19.5 -64.5 -31.5c48 -68 82.5 -133.833 103.5 -197.5s31.5 -130.167 31.5 -199.5c0 -206.667 -75.667 -370 -227 -490c-72.667 -56 -152.667 -98.333 -240 -127s-184.333 -43 -291 -43
c-150 0 -278.333 43 -385 129c-114.667 90 -172.667 207.667 -174 353l-6 43c0 196 73 369.333 219 520c148.667 151.333 320.667 227 516 227c127.333 0 247 -37 359 -111c16 7.33301 27.833 16.333 35.5 27s13.5 24.334 17.5 41.001c-12.667 18 -19 35.667 -19 53
c0 22 8 39.5 24 52.5s44.333 19.5 85 19.5c39.333 0 73.333 -8.33301 102 -25c36 -18.667 54 -42.334 54 -71.001c0 -23.333 -7.83301 -46.666 -23.5 -69.999s-41.5 -48 -77.5 -74zM1139 701.999c0 120.667 -30 217.669 -90 291.002c-64 80.667 -154.333 121 -271 121
c-130.667 0 -251.334 -62.667 -362.001 -188c-109.333 -123.333 -164.666 -251 -165.999 -383l6 -37c0 -52 9.66699 -98.833 29 -140.5s45 -76.834 77 -105.501s69.833 -50.834 113.5 -66.501s91.5 -23.5 143.5 -23.5c162 0 292.333 55.333 391 166c86 94 129 201 129 321
v45z" />
    <glyph glyph-name="Uhorn" unicode="&#x1af;" horiz-adv-x="1310" 
d="M1258 1253l-32 -25.0029c-20.667 -16 -43.167 -31.5 -67.5 -46.5s-54.5 -25.833 -90.5 -32.5v-778c0 -31.333 -12.5 -64.166 -37.5 -98.499s-66.167 -70.5 -123.5 -108.5c-44 -28.667 -87.167 -53 -129.5 -73s-83.166 -35.333 -122.499 -46
c-76.667 -20.667 -169.667 -31 -279 -31c-100.667 0 -187.334 22 -260.001 66c-40.667 27.333 -71.667 58 -93 92s-32 73.667 -32 119l-4 946c0 32.667 8.16699 56.834 24.5 72.501s43.5 23.5 81.5 23.5c33.333 0 60.833 -8.83301 82.5 -26.5s32.5 -41.5 32.5 -71.5v-959
c27.333 -57.333 79.333 -86 156 -86c143.333 0 269 33.667 377 101c39.333 26 68.5 48.167 87.5 66.5s28.5 31.5 28.5 39.5v807c-13.333 10 -22 19 -26 27s-6 17.667 -6 29c0 24 15 46.333 45 67c31.333 23.333 62.666 35 93.999 35c19.333 0 36.833 -3.16699 52.5 -9.5
s31.5 -18.166 47.5 -35.499c20.667 3.33301 36.334 13.333 47.001 30c11.333 20.667 11.666 42 0.999023 64c-19.333 20.667 -16.666 44.667 8.00098 72c31.333 13.333 63.333 20 96 20c31.333 0 56.833 -8.16699 76.5 -24.5s29.5 -37.5 29.5 -63.5
c0 -23.333 -2.66699 -47.333 -8 -72c-10 -26 -18.333 -44 -25 -54s-17 -22 -31 -36z" />
    <glyph glyph-name="uhorn" unicode="&#x1b0;" horiz-adv-x="1312" 
d="M1250 1147l0.00195312 11.999c-34.667 -39.333 -64.834 -66.833 -90.501 -82.5s-55.834 -26.5 -90.501 -32.5v-708c0 -27.333 -12.167 -56.333 -36.5 -87s-65.166 -63.667 -122.499 -99c-89.333 -56 -174 -93 -254 -111c-40 -9.33301 -82.5 -16.5 -127.5 -21.5
s-95.5 -7.5 -151.5 -7.5c-96.667 0 -181.334 20 -254.001 60c-87.333 44.667 -131 108.667 -131 192l-4 864c0 27.333 7.83301 48.5 23.5 63.5s43.167 22.5 82.5 22.5c30.667 0 56.667 -7.33301 78 -22c24.667 -16.667 37 -38.667 37 -66v-872
c15.333 -28.667 36.333 -49.167 63 -61.5s57.667 -18.5 93 -18.5c143.333 0 268.333 30.667 375 92c40.667 23.333 70.5 43.166 89.5 59.499s28.5 27.833 28.5 34.5v736c-13.333 10.667 -22 19.834 -26 27.501s-6 16.167 -6 25.5c0 22 14.333 42.333 43 61
c34 20.667 66 31 96 31c20.667 0 38.5 -3 53.5 -9s30.5 -17.333 46.5 -34c10 9.33301 16 15.833 18 19.5s3.66699 6.83398 5 9.50098v2c-4 16 -7.5 28.5 -10.5 37.5s-4.5 18.833 -4.5 29.5c0 10 3.5 19.333 10.5 28s20.167 18 39.5 28c28.667 13.333 60 20 94 20
c31.333 0 56.833 -7.5 76.5 -22.5s29.5 -34.833 29.5 -59.5c0 -26 -8 -49.667 -24 -71l-27 -37.5c-8 -11 -15.333 -21.833 -22 -32.5z" />
    <glyph glyph-name="uni1EA0" unicode="&#x1ea0;" 
d="M1321 29c-50.667 0 -85.8311 7.16797 -105.498 21.501s-30.167 32.833 -31.5 55.5c5.33301 19.333 8.66602 38 9.99902 56c1.33301 6.66699 2.66602 13 3.99902 19s3.33301 12 6 18c-9.33301 21.333 -22.833 48.5 -40.5 81.5s-42.5 76.167 -74.5 129.5h-706l-21.5 -34.5
l-19.5 -31.5l-20.5 -38.5c-7 -13.667 -13.833 -28.834 -20.5 -45.501l-25 -61c-6.66699 -12.667 -11 -25.834 -13 -39.501s-3 -27.167 -3 -40.5c0 -26 -13.667 -48 -41 -66c-20.667 -16 -48 -24 -82 -24c-48 0 -82.167 8.5 -102.5 25.5s-30.5 41.833 -30.5 74.5
c0 39.333 17 86.333 51 141c8 15.333 19.667 33.833 35 55.5l57 80.5l230 436c90 170.667 174.667 312.667 254 426c2.66699 34 18 61.5 46 82.5s59.667 31.5 95 31.5c31.333 0 57.666 -8.83301 78.999 -26.5s32 -39.5 32 -65.5c0 -65.333 16.333 -135.666 49 -210.999
c18.667 -44.667 43.834 -97.5 75.501 -158.5s70.5 -128.833 116.5 -203.5l78 -120l109 -169c46 -74 79.333 -133.833 100 -179.5s31 -78.5 31 -98.5c0 -34.667 -11.667 -63.5 -35 -86.5s-52 -34.5 -86 -34.5zM743.003 1051l-237 -441h452zM822.003 -306.999
c-39.333 -23.333 -82.334 -35 -129.001 -35c-39.333 0 -71 8.5 -95 25.5s-36 40.5 -36 70.5v13c9.33301 35.333 26.333 61.833 51 79.5s59.667 26.5 105 26.5c40.667 0 77.334 -7.66699 110.001 -23c37.333 -14.667 56 -37 56 -67c0 -36.667 -20.667 -66.667 -62 -90z" />
    <glyph glyph-name="uni1EA1" unicode="&#x1ea1;" horiz-adv-x="1449" 
d="M1322 25c-52 0 -87.833 6.83398 -107.5 20.501s-29.5 30.5 -29.5 50.5c0 4 0.666992 8.5 2 13.5s2.66602 10.833 3.99902 17.5c2.66699 6.66699 4.66699 13.834 6 21.501s2 13.5 2 17.5l6 18l-41.5 71c-17 29.333 -40.833 68 -71.5 116h-710
c-8 -12.667 -15.167 -23.334 -21.5 -32.001s-12.833 -18.667 -19.5 -30c-6.66699 -10.667 -13.167 -21.834 -19.5 -33.501s-12.833 -24.834 -19.5 -39.501l-25 -56c-10.667 -26 -16 -50.667 -16 -74c0 -20 -12.333 -38.5 -37 -55.5s-53.334 -25.5 -86.001 -25.5
c-49.333 0 -83.833 8.16699 -103.5 24.5s-29.5 38.166 -29.5 65.499c0 17.333 3.83301 37.333 11.5 60s20.834 46.334 39.501 71.001l90 123l232 399c43.333 76.667 86.5 146.667 129.5 210s84.5 121.666 124.5 174.999c4 31.333 20 57 48 77s59 30 93 30
c30 0 56 -8.66699 78 -26s33 -36.666 33 -57.999c0 -40 7.83301 -83.167 23.5 -129.5s37.834 -96.833 66.501 -151.5c12 -23.333 30.333 -55.5 55 -96.5s56.667 -90.167 96 -147.5l78 -108.5l109 -155.5c46 -68 79.333 -122.167 100 -162.5s31 -70.166 31 -89.499
c0 -31.333 -11.667 -57.5 -35 -78.5s-52 -31.5 -86 -31.5zM744 954.001l-237 -399h452zM753 -306.999c-39.333 -23.333 -82.333 -35 -129 -35c-39.333 0 -71 8.5 -95 25.5s-36 40.5 -36 70.5v13c10 35.333 27.167 61.833 51.5 79.5s59.166 26.5 104.499 26.5
c40.667 0 77.334 -7.66699 110.001 -23c37.333 -14.667 56 -37 56 -67c0 -36.667 -20.667 -66.667 -62 -90z" />
    <glyph glyph-name="uni1EA2" unicode="&#x1ea2;" 
d="M1321 29c-50.667 0 -85.8311 7.16797 -105.498 21.501s-30.167 32.833 -31.5 55.5c5.33301 19.333 8.66602 38 9.99902 56c1.33301 6.66699 2.66602 13 3.99902 19s3.33301 12 6 18c-9.33301 21.333 -22.833 48.5 -40.5 81.5s-42.5 76.167 -74.5 129.5h-706l-21.5 -34.5
l-19.5 -31.5l-20.5 -38.5c-7 -13.667 -13.833 -28.834 -20.5 -45.501l-25 -61c-6.66699 -12.667 -11 -25.834 -13 -39.501s-3 -27.167 -3 -40.5c0 -26 -13.667 -48 -41 -66c-20.667 -16 -48 -24 -82 -24c-48 0 -82.167 8.5 -102.5 25.5s-30.5 41.833 -30.5 74.5
c0 39.333 17 86.333 51 141c8 15.333 19.667 33.833 35 55.5l57 80.5l230 436c90 170.667 174.667 312.667 254 426c2.66699 34 18 61.5 46 82.5s59.667 31.5 95 31.5c31.333 0 57.666 -8.83301 78.999 -26.5s32 -39.5 32 -65.5c0 -65.333 16.333 -135.666 49 -210.999
c18.667 -44.667 43.834 -97.5 75.501 -158.5s70.5 -128.833 116.5 -203.5l78 -120l109 -169c46 -74 79.333 -133.833 100 -179.5s31 -78.5 31 -98.5c0 -34.667 -11.667 -63.5 -35 -86.5s-52 -34.5 -86 -34.5zM743.003 1051l-237 -441h452zM875.003 1519
c-18.667 -6 -31.999 -13.999 -39.999 -23.999c-2.66699 -15.333 -10.334 -24.5 -23.001 -27.5s-28 -3.83301 -46 -2.5c-22 0.666992 -34.333 8 -37 22s-4 30 -4 48s6.16699 34.167 18.5 48.5s33.166 26.5 62.499 36.5l45 18c16 4.66699 28 12.334 36 23.001
s8.33301 22.667 1 36c-12 7.33301 -26 13.666 -42 18.999s-35 8 -57 8c-30 0 -55.667 -1.66699 -77 -5s-38.666 -10.333 -51.999 -21c-3.33301 -20.667 -9.66602 -34.5 -18.999 -41.5s-22.333 -10.5 -39 -10.5c-18 0 -33.5 5.16699 -46.5 15.5s-19.5 23.166 -19.5 38.499
c0 9.33301 0.666992 15.333 2 18c10 40 34.833 70.667 74.5 92s98.5 32 176.5 32c81.333 0 144.166 -19.667 188.499 -59s60.833 -81 49.5 -125c-1.33301 -44.667 -31 -83 -89 -115l-34 -14z" />
    <glyph glyph-name="uni1EA3" unicode="&#x1ea3;" horiz-adv-x="1449" 
d="M1322 25c-52 0 -87.833 6.83398 -107.5 20.501s-29.5 30.5 -29.5 50.5c0 4 0.666992 8.5 2 13.5s2.66602 10.833 3.99902 17.5c2.66699 6.66699 4.66699 13.834 6 21.501s2 13.5 2 17.5l6 18l-41.5 71c-17 29.333 -40.833 68 -71.5 116h-710
c-8 -12.667 -15.167 -23.334 -21.5 -32.001s-12.833 -18.667 -19.5 -30c-6.66699 -10.667 -13.167 -21.834 -19.5 -33.501s-12.833 -24.834 -19.5 -39.501l-25 -56c-10.667 -26 -16 -50.667 -16 -74c0 -20 -12.333 -38.5 -37 -55.5s-53.334 -25.5 -86.001 -25.5
c-49.333 0 -83.833 8.16699 -103.5 24.5s-29.5 38.166 -29.5 65.499c0 17.333 3.83301 37.333 11.5 60s20.834 46.334 39.501 71.001l90 123l232 399c43.333 76.667 86.5 146.667 129.5 210s84.5 121.666 124.5 174.999c4 31.333 20 57 48 77s59 30 93 30
c30 0 56 -8.66699 78 -26s33 -36.666 33 -57.999c0 -40 7.83301 -83.167 23.5 -129.5s37.834 -96.833 66.501 -151.5c12 -23.333 30.333 -55.5 55 -96.5s56.667 -90.167 96 -147.5l78 -108.5l109 -155.5c46 -68 79.333 -122.167 100 -162.5s31 -70.166 31 -89.499
c0 -31.333 -11.667 -57.5 -35 -78.5s-52 -31.5 -86 -31.5zM744 954.001l-237 -399h452zM876 1382c-18 -6 -31.333 -13.999 -40 -23.999c-2 -15.333 -9.5 -24.5 -22.5 -27.5s-28.5 -3.83301 -46.5 -2.5c-22 0.666992 -34.333 8 -37 22s-4 30 -4 48s6.16699 34.167 18.5 48.5
s33.5 26.5 63.5 36.5l45 18c15.333 4.66699 27.166 12.334 35.499 23.001s8.5 22.667 0.5 36c-11.333 7.33301 -25.166 13.666 -41.499 18.999s-35.5 8 -57.5 8c-30 0 -55.667 -1.66699 -77 -5s-38.333 -10.333 -51 -21c-4 -20.667 -10.5 -34.5 -19.5 -41.5
s-22.167 -10.5 -39.5 -10.5c-18 0 -33.5 5.16699 -46.5 15.5s-19.5 23.166 -19.5 38.499c0 9.33301 0.666992 15.333 2 18c10.667 40 35.667 70.667 75 92s98 32 176 32c82 0 145 -19.667 189 -59s60.333 -81 49 -125c-1.33301 -44.667 -31 -83 -89 -115l-33 -14z" />
    <glyph glyph-name="uni1EA4" unicode="&#x1ea4;" 
d="M1281 29c-50.667 0 -85.8311 7.16797 -105.498 21.501s-30.167 32.833 -31.5 55.5c5.33301 19.333 8.66602 38 9.99902 56c1.33301 6.66699 2.66602 13 3.99902 19s3.33301 12 6 18c-9.33301 21.333 -22.833 48.5 -40.5 81.5s-42.5 76.167 -74.5 129.5h-706l-21.5 -34.5
l-19.5 -31.5l-20.5 -38.5c-7 -13.667 -13.833 -28.834 -20.5 -45.501l-25 -61c-6.66699 -12.667 -11 -25.834 -13 -39.501s-3 -27.167 -3 -40.5c0 -26 -13.667 -48 -41 -66c-20.667 -16 -48 -24 -82 -24c-48 0 -82.167 8.5 -102.5 25.5s-30.5 41.833 -30.5 74.5
c0 39.333 17 86.333 51 141c8 15.333 19.667 33.833 35 55.5l57 80.5l230 436c90 170.667 174.667 312.667 254 426c2.66699 34 18 61.5 46 82.5s59.667 31.5 95 31.5c31.333 0 57.666 -8.83301 78.999 -26.5s32 -39.5 32 -65.5c0 -65.333 16.333 -135.666 49 -210.999
c18.667 -44.667 43.834 -97.5 75.501 -158.5s70.5 -128.833 116.5 -203.5l78 -120l109 -169c46 -74 79.333 -133.833 100 -179.5s31 -78.5 31 -98.5c0 -34.667 -11.667 -63.5 -35 -86.5s-52 -34.5 -86 -34.5zM703.003 1051l-237 -441h452zM1447 1776l-234.001 -99.0029
c-62 -26 -111 -45 -147 -57c-21.333 -20.667 -42.333 -31 -63 -31c-19.333 0 -33.666 5.16699 -42.999 15.5s-14 29.166 -14 56.499c0 20.667 4 35.334 12 44.001s20.333 14.334 37 17.001l264 107l94 43c15.333 14.667 28 24.834 38 30.501s18.667 8.5 26 8.5
c12 0 25.833 -10.333 41.5 -31s23.5 -41 23.5 -61c0 -15.333 -3 -25.666 -9 -30.999s-14.667 -9.33301 -26 -12zM1002 1413c-30 0 -53.166 4.83398 -69.499 14.501s-27.833 22.5 -34.5 38.5l-156 140l-180 -136c-16.667 -40.667 -48.667 -61 -96 -61
c-42.667 0 -69.834 4.16699 -81.501 12.5s-17.5 17.166 -17.5 26.499c0 4 4.16699 11.833 12.5 23.5s24.166 27.167 47.499 46.5l229 182c20.667 27.333 55 41 103 41c40.667 0 67 -13.667 79 -41l226 -207c10.667 -10.667 16 -21 16 -31
c0 -14.667 -5.16699 -26.5 -15.5 -35.5s-31.166 -13.5 -62.499 -13.5z" />
    <glyph glyph-name="uni1EA5" unicode="&#x1ea5;" horiz-adv-x="1449" 
d="M1283 25c-52 0 -87.833 6.83398 -107.5 20.501s-29.5 30.5 -29.5 50.5c0 4 0.666992 8.5 2 13.5s2.66602 10.833 3.99902 17.5c2.66699 6.66699 4.66699 13.834 6 21.501s2 13.5 2 17.5l6 18l-41.5 71c-17 29.333 -40.833 68 -71.5 116h-710
c-8 -12.667 -15.167 -23.334 -21.5 -32.001s-12.833 -18.667 -19.5 -30c-6.66699 -10.667 -13.167 -21.834 -19.5 -33.501s-12.833 -24.834 -19.5 -39.501l-25 -56c-10.667 -26 -16 -50.667 -16 -74c0 -20 -12.333 -38.5 -37 -55.5s-53.334 -25.5 -86.001 -25.5
c-49.333 0 -83.833 8.16699 -103.5 24.5s-29.5 38.166 -29.5 65.499c0 17.333 3.83301 37.333 11.5 60s20.834 46.334 39.501 71.001l90 123l232 399c43.333 76.667 86.5 146.667 129.5 210s84.5 121.666 124.5 174.999c4 31.333 20 57 48 77s59 30 93 30
c30 0 56 -8.66699 78 -26s33 -36.666 33 -57.999c0 -40 7.83301 -83.167 23.5 -129.5s37.834 -96.833 66.501 -151.5c12 -23.333 30.333 -55.5 55 -96.5s56.667 -90.167 96 -147.5l78 -108.5l109 -155.5c46 -68 79.333 -122.167 100 -162.5s31 -70.166 31 -89.499
c0 -31.333 -11.667 -57.5 -35 -78.5s-52 -31.5 -86 -31.5zM705 954.001l-237 -399h452zM1448 1664l-234.501 -99.0029c-62.333 -26 -111.166 -45 -146.499 -57c-22 -20.667 -43.333 -31 -64 -31c-18.667 0 -32.834 5.16699 -42.501 15.5s-14.5 29.166 -14.5 56.499
c0 20.667 4.16699 35.334 12.5 44.001s20.5 14.334 36.5 17.001l264 107l95 43c14.667 14.667 27.167 24.834 37.5 30.501s18.833 8.5 25.5 8.5c12.667 0 26.834 -10.333 42.501 -31s23.5 -41 23.5 -61c0 -15.333 -3.16699 -25.666 -9.5 -30.999s-14.833 -9.33301 -25.5 -12
zM1004 1290c-30 0 -53.166 4.5 -69.499 13.5s-27.833 21.5 -34.5 37.5l-156 142l-180 -135c-15.333 -41.333 -47.333 -62 -96 -62c-42.667 0 -69.834 4.16699 -81.501 12.5s-17.5 16.5 -17.5 24.5c0 5.33301 4.16699 13.5 12.5 24.5s24.166 26.167 47.499 45.5l229 184
c20.667 27.333 55 41 103 41c40.667 0 67 -13.667 79 -41l226 -207c10.667 -10.667 16 -21.667 16 -33c0 -14.667 -5.16699 -26.167 -15.5 -34.5s-31.166 -12.5 -62.499 -12.5z" />
    <glyph glyph-name="uni1EA6" unicode="&#x1ea6;" 
d="M1321 29c-50.667 0 -85.8311 7.16797 -105.498 21.501s-30.167 32.833 -31.5 55.5c5.33301 19.333 8.66602 38 9.99902 56c1.33301 6.66699 2.66602 13 3.99902 19s3.33301 12 6 18c-9.33301 21.333 -22.833 48.5 -40.5 81.5s-42.5 76.167 -74.5 129.5h-706l-21.5 -34.5
l-19.5 -31.5l-20.5 -38.5c-7 -13.667 -13.833 -28.834 -20.5 -45.501l-25 -61c-6.66699 -12.667 -11 -25.834 -13 -39.501s-3 -27.167 -3 -40.5c0 -26 -13.667 -48 -41 -66c-20.667 -16 -48 -24 -82 -24c-48 0 -82.167 8.5 -102.5 25.5s-30.5 41.833 -30.5 74.5
c0 39.333 17 86.333 51 141c8 15.333 19.667 33.833 35 55.5l57 80.5l230 436c90 170.667 174.667 312.667 254 426c2.66699 34 18 61.5 46 82.5s59.667 31.5 95 31.5c31.333 0 57.666 -8.83301 78.999 -26.5s32 -39.5 32 -65.5c0 -65.333 16.333 -135.666 49 -210.999
c18.667 -44.667 43.834 -97.5 75.501 -158.5s70.5 -128.833 116.5 -203.5l78 -120l109 -169c46 -74 79.333 -133.833 100 -179.5s31 -78.5 31 -98.5c0 -34.667 -11.667 -63.5 -35 -86.5s-52 -34.5 -86 -34.5zM743.003 1051l-237 -441h452zM669.003 1887
c-6 5.33301 -8.99805 15.6689 -8.99805 31.002c0 20 7.83301 40.333 23.5 61s29.5 31 41.5 31c6.66699 0 15.167 -2.83301 25.5 -8.5s23.166 -15.834 38.499 -30.501l94 -43l264 -107c16.667 -2.66699 29 -8.33398 37 -17.001s12 -23.334 12 -44.001
c0 -27.333 -4.83301 -46.166 -14.5 -56.499s-23.834 -15.5 -42.501 -15.5c-20.667 0 -42 10.333 -64 31c-35.333 12 -84 31 -146 57l-235 99c-10.667 2.66699 -19 6.66699 -25 12zM1042 1413c-30 0 -53.166 4.83398 -69.499 14.501s-27.833 22.5 -34.5 38.5l-156 140
l-180 -136c-16.667 -40.667 -48.667 -61 -96 -61c-42.667 0 -69.834 4.16699 -81.501 12.5s-17.5 17.166 -17.5 26.499c0 4 4.16699 11.833 12.5 23.5s24.166 27.167 47.499 46.5l229 182c20.667 27.333 55 41 103 41c40.667 0 67 -13.667 79 -41l226 -207
c10.667 -10.667 16 -21 16 -31c0 -14.667 -5.16699 -26.5 -15.5 -35.5s-31.166 -13.5 -62.499 -13.5z" />
    <glyph glyph-name="uni1EA7" unicode="&#x1ea7;" horiz-adv-x="1449" 
d="M1322 25c-52 0 -87.833 6.83398 -107.5 20.501s-29.5 30.5 -29.5 50.5c0 4 0.666992 8.5 2 13.5s2.66602 10.833 3.99902 17.5c2.66699 6.66699 4.66699 13.834 6 21.501s2 13.5 2 17.5l6 18l-41.5 71c-17 29.333 -40.833 68 -71.5 116h-710
c-8 -12.667 -15.167 -23.334 -21.5 -32.001s-12.833 -18.667 -19.5 -30c-6.66699 -10.667 -13.167 -21.834 -19.5 -33.501s-12.833 -24.834 -19.5 -39.501l-25 -56c-10.667 -26 -16 -50.667 -16 -74c0 -20 -12.333 -38.5 -37 -55.5s-53.334 -25.5 -86.001 -25.5
c-49.333 0 -83.833 8.16699 -103.5 24.5s-29.5 38.166 -29.5 65.499c0 17.333 3.83301 37.333 11.5 60s20.834 46.334 39.501 71.001l90 123l232 399c43.333 76.667 86.5 146.667 129.5 210s84.5 121.666 124.5 174.999c4 31.333 20 57 48 77s59 30 93 30
c30 0 56 -8.66699 78 -26s33 -36.666 33 -57.999c0 -40 7.83301 -83.167 23.5 -129.5s37.834 -96.833 66.501 -151.5c12 -23.333 30.333 -55.5 55 -96.5s56.667 -90.167 96 -147.5l78 -108.5l109 -155.5c46 -68 79.333 -122.167 100 -162.5s31 -70.166 31 -89.499
c0 -31.333 -11.667 -57.5 -35 -78.5s-52 -31.5 -86 -31.5zM744 954.001l-237 -399h452zM662.5 1760c-6.33301 5.33301 -9.50098 15.6689 -9.50098 31.002c0 20 7.83301 40.333 23.5 61s29.834 31 42.501 31c6.66699 0 15.167 -2.83301 25.5 -8.5
s22.833 -15.834 37.5 -30.501l95 -43l264 -107c16 -2.66699 28.167 -8.33398 36.5 -17.001s12.5 -23.334 12.5 -44.001c0 -27.333 -4.83301 -46.166 -14.5 -56.499s-23.834 -15.5 -42.501 -15.5c-20.667 0 -42 10.333 -64 31c-35.333 12 -84.166 31 -146.499 57l-234.5 99
c-10.667 2.66699 -19.167 6.66699 -25.5 12zM1043 1290c-30 0 -53.166 4.5 -69.499 13.5s-27.833 21.5 -34.5 37.5l-156 142l-180 -135c-15.333 -41.333 -47.333 -62 -96 -62c-42.667 0 -69.834 4.16699 -81.501 12.5s-17.5 16.5 -17.5 24.5
c0 5.33301 4.16699 13.5 12.5 24.5s24.166 26.167 47.499 45.5l229 184c20.667 27.333 55 41 103 41c40.667 0 67 -13.667 79 -41l226 -207c10.667 -10.667 16 -21.667 16 -33c0 -14.667 -5.16699 -26.167 -15.5 -34.5s-31.166 -12.5 -62.499 -12.5z" />
    <glyph glyph-name="uni1EA8" unicode="&#x1ea8;" 
d="M1321 29c-50.667 0 -85.8311 7.16797 -105.498 21.501s-30.167 32.833 -31.5 55.5c5.33301 19.333 8.66602 38 9.99902 56c1.33301 6.66699 2.66602 13 3.99902 19s3.33301 12 6 18c-9.33301 21.333 -22.833 48.5 -40.5 81.5s-42.5 76.167 -74.5 129.5h-706l-21.5 -34.5
l-19.5 -31.5l-20.5 -38.5c-7 -13.667 -13.833 -28.834 -20.5 -45.501l-25 -61c-6.66699 -12.667 -11 -25.834 -13 -39.501s-3 -27.167 -3 -40.5c0 -26 -13.667 -48 -41 -66c-20.667 -16 -48 -24 -82 -24c-48 0 -82.167 8.5 -102.5 25.5s-30.5 41.833 -30.5 74.5
c0 39.333 17 86.333 51 141c8 15.333 19.667 33.833 35 55.5l57 80.5l230 436c90 170.667 174.667 312.667 254 426c2.66699 34 18 61.5 46 82.5s59.667 31.5 95 31.5c31.333 0 57.666 -8.83301 78.999 -26.5s32 -39.5 32 -65.5c0 -65.333 16.333 -135.666 49 -210.999
c18.667 -44.667 43.834 -97.5 75.501 -158.5s70.5 -128.833 116.5 -203.5l78 -120l109 -169c46 -74 79.333 -133.833 100 -179.5s31 -78.5 31 -98.5c0 -34.667 -11.667 -63.5 -35 -86.5s-52 -34.5 -86 -34.5zM743.003 1051l-237 -441h452zM1117 1693
c-18.667 -6 -31.999 -13.999 -39.999 -23.999c-2.66699 -15.333 -10.334 -24.5 -23.001 -27.5s-28 -3.83301 -46 -2.5c-22 0.666992 -34.333 8 -37 22s-4 30 -4 48s6.16699 34.167 18.5 48.5s33.166 26.5 62.499 36.5l45 18c16 4.66699 28 12.334 36 23.001
s8.33301 22.667 1 36c-12 7.33301 -26 13.666 -42 18.999s-35 8 -57 8c-30 0 -55.667 -1.66699 -77 -5s-38.666 -10.333 -51.999 -21c-3.33301 -20.667 -9.66602 -34.5 -18.999 -41.5s-22.333 -10.5 -39 -10.5c-18 0 -33.5 5.16699 -46.5 15.5s-19.5 23.166 -19.5 38.499
c0 9.33301 0.666992 15.333 2 18c10 40 34.833 70.667 74.5 92s98.5 32 176.5 32c81.333 0 144.166 -19.667 188.499 -59s60.833 -81 49.5 -125c-1.33301 -44.667 -31 -83 -89 -115l-34 -14zM1042 1413c-30 0 -53.166 4.83398 -69.499 14.501s-27.833 22.5 -34.5 38.5
l-156 140l-180 -136c-16.667 -40.667 -48.667 -61 -96 -61c-42.667 0 -69.834 4.16699 -81.501 12.5s-17.5 17.166 -17.5 26.499c0 4 4.16699 11.833 12.5 23.5s24.166 27.167 47.499 46.5l229 182c20.667 27.333 55 41 103 41c40.667 0 67 -13.667 79 -41l226 -207
c10.667 -10.667 16 -21 16 -31c0 -14.667 -5.16699 -26.5 -15.5 -35.5s-31.166 -13.5 -62.499 -13.5z" />
    <glyph glyph-name="uni1EA9" unicode="&#x1ea9;" horiz-adv-x="1449" 
d="M1322 25c-52 0 -87.833 6.83398 -107.5 20.501s-29.5 30.5 -29.5 50.5c0 4 0.666992 8.5 2 13.5s2.66602 10.833 3.99902 17.5c2.66699 6.66699 4.66699 13.834 6 21.501s2 13.5 2 17.5l6 18l-41.5 71c-17 29.333 -40.833 68 -71.5 116h-710
c-8 -12.667 -15.167 -23.334 -21.5 -32.001s-12.833 -18.667 -19.5 -30c-6.66699 -10.667 -13.167 -21.834 -19.5 -33.501s-12.833 -24.834 -19.5 -39.501l-25 -56c-10.667 -26 -16 -50.667 -16 -74c0 -20 -12.333 -38.5 -37 -55.5s-53.334 -25.5 -86.001 -25.5
c-49.333 0 -83.833 8.16699 -103.5 24.5s-29.5 38.166 -29.5 65.499c0 17.333 3.83301 37.333 11.5 60s20.834 46.334 39.501 71.001l90 123l232 399c43.333 76.667 86.5 146.667 129.5 210s84.5 121.666 124.5 174.999c4 31.333 20 57 48 77s59 30 93 30
c30 0 56 -8.66699 78 -26s33 -36.666 33 -57.999c0 -40 7.83301 -83.167 23.5 -129.5s37.834 -96.833 66.501 -151.5c12 -23.333 30.333 -55.5 55 -96.5s56.667 -90.167 96 -147.5l78 -108.5l109 -155.5c46 -68 79.333 -122.167 100 -162.5s31 -70.166 31 -89.499
c0 -31.333 -11.667 -57.5 -35 -78.5s-52 -31.5 -86 -31.5zM744 954.001l-237 -399h452zM1142 1579c-18 -6 -31.333 -13.999 -40 -23.999c-2 -15.333 -9.5 -24.5 -22.5 -27.5s-28.5 -3.83301 -46.5 -2.5c-22 0.666992 -34.333 8 -37 22s-4 30 -4 48s6.16699 34.167 18.5 48.5
s33.5 26.5 63.5 36.5l45 18c15.333 4.66699 27.166 12.334 35.499 23.001s8.5 22.667 0.5 36c-11.333 7.33301 -25.166 13.666 -41.499 18.999s-35.5 8 -57.5 8c-30 0 -55.667 -1.66699 -77 -5s-38.333 -10.333 -51 -21c-4 -20.667 -10.5 -34.5 -19.5 -41.5
s-22.167 -10.5 -39.5 -10.5c-18 0 -33.5 5.16699 -46.5 15.5s-19.5 23.166 -19.5 38.499c0 9.33301 0.666992 15.333 2 18c10.667 40 35.667 70.667 75 92s98 32 176 32c82 0 145 -19.667 189 -59s60.333 -81 49 -125c-1.33301 -44.667 -31 -83 -89 -115l-33 -14zM1043 1290
c-30 0 -53.166 4.5 -69.499 13.5s-27.833 21.5 -34.5 37.5l-156 142l-180 -135c-15.333 -41.333 -47.333 -62 -96 -62c-42.667 0 -69.834 4.16699 -81.501 12.5s-17.5 16.5 -17.5 24.5c0 5.33301 4.16699 13.5 12.5 24.5s24.166 26.167 47.499 45.5l229 184
c20.667 27.333 55 41 103 41c40.667 0 67 -13.667 79 -41l226 -207c10.667 -10.667 16 -21.667 16 -33c0 -14.667 -5.16699 -26.167 -15.5 -34.5s-31.166 -12.5 -62.499 -12.5z" />
    <glyph glyph-name="uni1EAA" unicode="&#x1eaa;" 
d="M1321 29c-50.667 0 -85.8311 7.16797 -105.498 21.501s-30.167 32.833 -31.5 55.5c5.33301 19.333 8.66602 38 9.99902 56c1.33301 6.66699 2.66602 13 3.99902 19s3.33301 12 6 18c-9.33301 21.333 -22.833 48.5 -40.5 81.5s-42.5 76.167 -74.5 129.5h-706l-21.5 -34.5
l-19.5 -31.5l-20.5 -38.5c-7 -13.667 -13.833 -28.834 -20.5 -45.501l-25 -61c-6.66699 -12.667 -11 -25.834 -13 -39.501s-3 -27.167 -3 -40.5c0 -26 -13.667 -48 -41 -66c-20.667 -16 -48 -24 -82 -24c-48 0 -82.167 8.5 -102.5 25.5s-30.5 41.833 -30.5 74.5
c0 39.333 17 86.333 51 141c8 15.333 19.667 33.833 35 55.5l57 80.5l230 436c90 170.667 174.667 312.667 254 426c2.66699 34 18 61.5 46 82.5s59.667 31.5 95 31.5c31.333 0 57.666 -8.83301 78.999 -26.5s32 -39.5 32 -65.5c0 -65.333 16.333 -135.666 49 -210.999
c18.667 -44.667 43.834 -97.5 75.501 -158.5s70.5 -128.833 116.5 -203.5l78 -120l109 -169c46 -74 79.333 -133.833 100 -179.5s31 -78.5 31 -98.5c0 -34.667 -11.667 -63.5 -35 -86.5s-52 -34.5 -86 -34.5zM743.003 1051l-237 -441h452zM1125 1795l-45.999 -30
c-30 -8 -49.833 -11.833 -59.5 -11.5s-22.5 1.83301 -38.5 4.5c-15.333 4 -32.833 10 -52.5 18s-42.167 24 -67.5 48c-35.333 24.667 -55.833 38.167 -61.5 40.5s-17.167 3.83301 -34.5 4.5c-26.667 -5.33301 -46 -18 -58 -38c-8.66699 -14.667 -19.667 -27.5 -33 -38.5
s-25.333 -16.5 -36 -16.5c-24 -8 -46 -4.83301 -66 9.5s-30 30.5 -30 48.5c0 8 3.5 18 10.5 30s23.167 34 48.5 66c38 43.333 91.667 68.333 161 75c40.667 0 75.334 -9.66699 104.001 -29c40.667 -27.333 68 -46.166 82 -56.499s32 -20.5 54 -30.5
c16.667 -3.33301 31.167 -2.33301 43.5 3s21.833 14 28.5 26c13.333 17.333 25.666 34.666 36.999 51.999s24.333 28.333 39 33c52 0 78.667 -27.667 80 -83c-18 -34 -35.833 -60.667 -53.5 -80s-34.834 -34.333 -51.501 -45zM1042 1413
c-30 0 -53.166 4.83398 -69.499 14.501s-27.833 22.5 -34.5 38.5l-156 140l-180 -136c-16.667 -40.667 -48.667 -61 -96 -61c-42.667 0 -69.834 4.16699 -81.501 12.5s-17.5 17.166 -17.5 26.499c0 4 4.16699 11.833 12.5 23.5s24.166 27.167 47.499 46.5l229 182
c20.667 27.333 55 41 103 41c40.667 0 67 -13.667 79 -41l226 -207c10.667 -10.667 16 -21 16 -31c0 -14.667 -5.16699 -26.5 -15.5 -35.5s-31.166 -13.5 -62.499 -13.5z" />
    <glyph glyph-name="uni1EAB" unicode="&#x1eab;" horiz-adv-x="1449" 
d="M1322 25c-52 0 -87.833 6.83398 -107.5 20.501s-29.5 30.5 -29.5 50.5c0 4 0.666992 8.5 2 13.5s2.66602 10.833 3.99902 17.5c2.66699 6.66699 4.66699 13.834 6 21.501s2 13.5 2 17.5l6 18l-41.5 71c-17 29.333 -40.833 68 -71.5 116h-710
c-8 -12.667 -15.167 -23.334 -21.5 -32.001s-12.833 -18.667 -19.5 -30c-6.66699 -10.667 -13.167 -21.834 -19.5 -33.501s-12.833 -24.834 -19.5 -39.501l-25 -56c-10.667 -26 -16 -50.667 -16 -74c0 -20 -12.333 -38.5 -37 -55.5s-53.334 -25.5 -86.001 -25.5
c-49.333 0 -83.833 8.16699 -103.5 24.5s-29.5 38.166 -29.5 65.499c0 17.333 3.83301 37.333 11.5 60s20.834 46.334 39.501 71.001l90 123l232 399c43.333 76.667 86.5 146.667 129.5 210s84.5 121.666 124.5 174.999c4 31.333 20 57 48 77s59 30 93 30
c30 0 56 -8.66699 78 -26s33 -36.666 33 -57.999c0 -40 7.83301 -83.167 23.5 -129.5s37.834 -96.833 66.501 -151.5c12 -23.333 30.333 -55.5 55 -96.5s56.667 -90.167 96 -147.5l78 -108.5l109 -155.5c46 -68 79.333 -122.167 100 -162.5s31 -70.166 31 -89.499
c0 -31.333 -11.667 -57.5 -35 -78.5s-52 -31.5 -86 -31.5zM744 954.001l-237 -399h452zM1143 1677l-46 -30c-30 -8 -49.833 -11.833 -59.5 -11.5s-22.5 1.83301 -38.5 4.5c-15.333 4 -32.833 10 -52.5 18s-42.167 24 -67.5 48c-35.333 24.667 -55.666 38.167 -60.999 40.5
s-17 3.83301 -35 4.5c-26.667 -5.33301 -46 -18 -58 -38c-8.66699 -14.667 -19.667 -27.5 -33 -38.5s-25.333 -16.5 -36 -16.5c-24 -8 -46 -4.83301 -66 9.5s-30 30.5 -30 48.5c0 8 3.66699 18 11 30s23.333 34 48 66c38 43.333 91.667 68.333 161 75
c41.333 0 76 -9.66699 104 -29c41.333 -27.333 68.833 -46.166 82.5 -56.499s31.834 -20.5 54.501 -30.5c16.667 -3.33301 31 -2.33301 43 3s21.333 14 28 26c13.333 17.333 25.666 34.666 36.999 51.999s24.333 28.333 39 33c52 0 78.667 -27.667 80 -83
c-18 -34 -35.833 -60.667 -53.5 -80s-34.834 -34.333 -51.501 -45zM1043 1290c-30 0 -53.166 4.5 -69.499 13.5s-27.833 21.5 -34.5 37.5l-156 142l-180 -135c-15.333 -41.333 -47.333 -62 -96 -62c-42.667 0 -69.834 4.16699 -81.501 12.5s-17.5 16.5 -17.5 24.5
c0 5.33301 4.16699 13.5 12.5 24.5s24.166 26.167 47.499 45.5l229 184c20.667 27.333 55 41 103 41c40.667 0 67 -13.667 79 -41l226 -207c10.667 -10.667 16 -21.667 16 -33c0 -14.667 -5.16699 -26.167 -15.5 -34.5s-31.166 -12.5 -62.499 -12.5z" />
    <glyph glyph-name="uni1EAC" unicode="&#x1eac;" 
d="M1321 29c-50.667 0 -85.8311 7.16797 -105.498 21.501s-30.167 32.833 -31.5 55.5c5.33301 19.333 8.66602 38 9.99902 56c1.33301 6.66699 2.66602 13 3.99902 19s3.33301 12 6 18c-9.33301 21.333 -22.833 48.5 -40.5 81.5s-42.5 76.167 -74.5 129.5h-706l-21.5 -34.5
l-19.5 -31.5l-20.5 -38.5c-7 -13.667 -13.833 -28.834 -20.5 -45.501l-25 -61c-6.66699 -12.667 -11 -25.834 -13 -39.501s-3 -27.167 -3 -40.5c0 -26 -13.667 -48 -41 -66c-20.667 -16 -48 -24 -82 -24c-48 0 -82.167 8.5 -102.5 25.5s-30.5 41.833 -30.5 74.5
c0 39.333 17 86.333 51 141c8 15.333 19.667 33.833 35 55.5l57 80.5l230 436c90 170.667 174.667 312.667 254 426c2.66699 34 18 61.5 46 82.5s59.667 31.5 95 31.5c31.333 0 57.666 -8.83301 78.999 -26.5s32 -39.5 32 -65.5c0 -65.333 16.333 -135.666 49 -210.999
c18.667 -44.667 43.834 -97.5 75.501 -158.5s70.5 -128.833 116.5 -203.5l78 -120l109 -169c46 -74 79.333 -133.833 100 -179.5s31 -78.5 31 -98.5c0 -34.667 -11.667 -63.5 -35 -86.5s-52 -34.5 -86 -34.5zM743.003 1051l-237 -441h452zM822.003 -306.999
c-39.333 -23.333 -82.334 -35 -129.001 -35c-39.333 0 -71 8.5 -95 25.5s-36 40.5 -36 70.5v13c9.33301 35.333 26.333 61.833 51 79.5s59.667 26.5 105 26.5c40.667 0 77.334 -7.66699 110.001 -23c37.333 -14.667 56 -37 56 -67c0 -36.667 -20.667 -66.667 -62 -90z
M1042 1413c-30 0 -53.166 4.83398 -69.499 14.501s-27.833 22.5 -34.5 38.5l-156 140l-180 -136c-16.667 -40.667 -48.667 -61 -96 -61c-42.667 0 -69.834 4.16699 -81.501 12.5s-17.5 17.166 -17.5 26.499c0 4 4.16699 11.833 12.5 23.5s24.166 27.167 47.499 46.5l229 182
c20.667 27.333 55 41 103 41c40.667 0 67 -13.667 79 -41l226 -207c10.667 -10.667 16 -21 16 -31c0 -14.667 -5.16699 -26.5 -15.5 -35.5s-31.166 -13.5 -62.499 -13.5z" />
    <glyph glyph-name="uni1EAD" unicode="&#x1ead;" horiz-adv-x="1449" 
d="M1322 25c-52 0 -87.833 6.83398 -107.5 20.501s-29.5 30.5 -29.5 50.5c0 4 0.666992 8.5 2 13.5s2.66602 10.833 3.99902 17.5c2.66699 6.66699 4.66699 13.834 6 21.501s2 13.5 2 17.5l6 18l-41.5 71c-17 29.333 -40.833 68 -71.5 116h-710
c-8 -12.667 -15.167 -23.334 -21.5 -32.001s-12.833 -18.667 -19.5 -30c-6.66699 -10.667 -13.167 -21.834 -19.5 -33.501s-12.833 -24.834 -19.5 -39.501l-25 -56c-10.667 -26 -16 -50.667 -16 -74c0 -20 -12.333 -38.5 -37 -55.5s-53.334 -25.5 -86.001 -25.5
c-49.333 0 -83.833 8.16699 -103.5 24.5s-29.5 38.166 -29.5 65.499c0 17.333 3.83301 37.333 11.5 60s20.834 46.334 39.501 71.001l90 123l232 399c43.333 76.667 86.5 146.667 129.5 210s84.5 121.666 124.5 174.999c4 31.333 20 57 48 77s59 30 93 30
c30 0 56 -8.66699 78 -26s33 -36.666 33 -57.999c0 -40 7.83301 -83.167 23.5 -129.5s37.834 -96.833 66.501 -151.5c12 -23.333 30.333 -55.5 55 -96.5s56.667 -90.167 96 -147.5l78 -108.5l109 -155.5c46 -68 79.333 -122.167 100 -162.5s31 -70.166 31 -89.499
c0 -31.333 -11.667 -57.5 -35 -78.5s-52 -31.5 -86 -31.5zM744 954.001l-237 -399h452zM753 -306.999c-39.333 -23.333 -82.333 -35 -129 -35c-39.333 0 -71 8.5 -95 25.5s-36 40.5 -36 70.5v13c10 35.333 27.167 61.833 51.5 79.5s59.166 26.5 104.499 26.5
c40.667 0 77.334 -7.66699 110.001 -23c37.333 -14.667 56 -37 56 -67c0 -36.667 -20.667 -66.667 -62 -90zM1043 1290c-30 0 -53.166 4.5 -69.499 13.5s-27.833 21.5 -34.5 37.5l-156 142l-180 -135c-15.333 -41.333 -47.333 -62 -96 -62
c-42.667 0 -69.834 4.16699 -81.501 12.5s-17.5 16.5 -17.5 24.5c0 5.33301 4.16699 13.5 12.5 24.5s24.166 26.167 47.499 45.5l229 184c20.667 27.333 55 41 103 41c40.667 0 67 -13.667 79 -41l226 -207c10.667 -10.667 16 -21.667 16 -33
c0 -14.667 -5.16699 -26.167 -15.5 -34.5s-31.166 -12.5 -62.499 -12.5z" />
    <glyph glyph-name="uni1EAE" unicode="&#x1eae;" 
d="M1321 29c-50.667 0 -85.8311 7.16797 -105.498 21.501s-30.167 32.833 -31.5 55.5c5.33301 19.333 8.66602 38 9.99902 56c1.33301 6.66699 2.66602 13 3.99902 19s3.33301 12 6 18c-9.33301 21.333 -22.833 48.5 -40.5 81.5s-42.5 76.167 -74.5 129.5h-706l-21.5 -34.5
l-19.5 -31.5l-20.5 -38.5c-7 -13.667 -13.833 -28.834 -20.5 -45.501l-25 -61c-6.66699 -12.667 -11 -25.834 -13 -39.501s-3 -27.167 -3 -40.5c0 -26 -13.667 -48 -41 -66c-20.667 -16 -48 -24 -82 -24c-48 0 -82.167 8.5 -102.5 25.5s-30.5 41.833 -30.5 74.5
c0 39.333 17 86.333 51 141c8 15.333 19.667 33.833 35 55.5l57 80.5l230 436c90 170.667 174.667 312.667 254 426c2.66699 34 18 61.5 46 82.5s59.667 31.5 95 31.5c31.333 0 57.666 -8.83301 78.999 -26.5s32 -39.5 32 -65.5c0 -65.333 16.333 -135.666 49 -210.999
c18.667 -44.667 43.834 -97.5 75.501 -158.5s70.5 -128.833 116.5 -203.5l78 -120l109 -169c46 -74 79.333 -133.833 100 -179.5s31 -78.5 31 -98.5c0 -34.667 -11.667 -63.5 -35 -86.5s-52 -34.5 -86 -34.5zM743.003 1051l-237 -441h452zM1191 1913l-234.001 -99.0029
c-62 -26 -111 -45 -147 -57c-21.333 -20.667 -42.333 -31 -63 -31c-19.333 0 -33.666 5.16699 -42.999 15.5s-14 29.166 -14 56.499c0 20.667 4 35.334 12 44.001s20.333 14.334 37 17.001l264 107l94 43c15.333 14.667 28 24.834 38 30.501s18.667 8.5 26 8.5
c12 0 25.833 -10.333 41.5 -31s23.5 -41 23.5 -61c0 -15.333 -3 -25.666 -9 -30.999s-14.667 -9.33301 -26 -12zM985.002 1516c-32 -28.667 -92.668 -45.666 -182.001 -50.999c-86 -2.66699 -161.167 16.333 -225.5 57s-96.5 96 -96.5 166c0 39.333 19.333 59 58 59
c46 0 69 -19.667 69 -59c16 -28.667 30.667 -49.5 44 -62.5s32 -23.833 56 -32.5c24 -6 54.333 -8.66699 91 -8c58.667 4 97.334 13.167 116.001 27.5s31 35.166 37 62.499c0 40 23.333 60 70 60c39.333 0 59 -20 59 -60c0 -70.667 -32 -123.667 -96 -159z" />
    <glyph glyph-name="uni1EAF" unicode="&#x1eaf;" horiz-adv-x="1449" 
d="M1322 25c-52 0 -87.833 6.83398 -107.5 20.501s-29.5 30.5 -29.5 50.5c0 4 0.666992 8.5 2 13.5s2.66602 10.833 3.99902 17.5c2.66699 6.66699 4.66699 13.834 6 21.501s2 13.5 2 17.5l6 18l-41.5 71c-17 29.333 -40.833 68 -71.5 116h-710
c-8 -12.667 -15.167 -23.334 -21.5 -32.001s-12.833 -18.667 -19.5 -30c-6.66699 -10.667 -13.167 -21.834 -19.5 -33.501s-12.833 -24.834 -19.5 -39.501l-25 -56c-10.667 -26 -16 -50.667 -16 -74c0 -20 -12.333 -38.5 -37 -55.5s-53.334 -25.5 -86.001 -25.5
c-49.333 0 -83.833 8.16699 -103.5 24.5s-29.5 38.166 -29.5 65.499c0 17.333 3.83301 37.333 11.5 60s20.834 46.334 39.501 71.001l90 123l232 399c43.333 76.667 86.5 146.667 129.5 210s84.5 121.666 124.5 174.999c4 31.333 20 57 48 77s59 30 93 30
c30 0 56 -8.66699 78 -26s33 -36.666 33 -57.999c0 -40 7.83301 -83.167 23.5 -129.5s37.834 -96.833 66.501 -151.5c12 -23.333 30.333 -55.5 55 -96.5s56.667 -90.167 96 -147.5l78 -108.5l109 -155.5c46 -68 79.333 -122.167 100 -162.5s31 -70.166 31 -89.499
c0 -31.333 -11.667 -57.5 -35 -78.5s-52 -31.5 -86 -31.5zM744 954.001l-237 -399h452zM1200 1772l-234.501 -99.0029c-62.333 -26 -111.166 -45 -146.499 -57c-22 -20.667 -43.333 -31 -64 -31c-18.667 0 -32.834 5.16699 -42.501 15.5s-14.5 29.166 -14.5 56.499
c0 20.667 4.16699 35.334 12.5 44.001s20.5 14.334 36.5 17.001l264 107l95 43c14.667 14.667 27.167 24.834 37.5 30.501s18.833 8.5 25.5 8.5c12.667 0 26.834 -10.333 42.501 -31s23.5 -41 23.5 -61c0 -15.333 -3.16699 -25.666 -9.5 -30.999s-14.833 -9.33301 -25.5 -12
zM985.999 1403c-32 -28.667 -92.668 -45.667 -182.001 -51c-86 -2.66699 -161.167 16.333 -225.5 57s-96.5 96 -96.5 166c0 39.333 19.333 59 58 59c46 0 69 -19.667 69 -59c16 -28.667 30.667 -49.5 44 -62.5s32 -23.5 56 -31.5c24 -6 54.333 -8.66699 91 -8
c58.667 4 97.334 13.167 116.001 27.5s31 35.166 37 62.499c0 39.333 23.333 59 70 59c39.333 0 59 -19.667 59 -59c0 -71.333 -32 -124.666 -96 -159.999z" />
    <glyph glyph-name="uni1EB0" unicode="&#x1eb0;" 
d="M1321 29c-50.667 0 -85.8311 7.16797 -105.498 21.501s-30.167 32.833 -31.5 55.5c5.33301 19.333 8.66602 38 9.99902 56c1.33301 6.66699 2.66602 13 3.99902 19s3.33301 12 6 18c-9.33301 21.333 -22.833 48.5 -40.5 81.5s-42.5 76.167 -74.5 129.5h-706l-21.5 -34.5
l-19.5 -31.5l-20.5 -38.5c-7 -13.667 -13.833 -28.834 -20.5 -45.501l-25 -61c-6.66699 -12.667 -11 -25.834 -13 -39.501s-3 -27.167 -3 -40.5c0 -26 -13.667 -48 -41 -66c-20.667 -16 -48 -24 -82 -24c-48 0 -82.167 8.5 -102.5 25.5s-30.5 41.833 -30.5 74.5
c0 39.333 17 86.333 51 141c8 15.333 19.667 33.833 35 55.5l57 80.5l230 436c90 170.667 174.667 312.667 254 426c2.66699 34 18 61.5 46 82.5s59.667 31.5 95 31.5c31.333 0 57.666 -8.83301 78.999 -26.5s32 -39.5 32 -65.5c0 -65.333 16.333 -135.666 49 -210.999
c18.667 -44.667 43.834 -97.5 75.501 -158.5s70.5 -128.833 116.5 -203.5l78 -120l109 -169c46 -74 79.333 -133.833 100 -179.5s31 -78.5 31 -98.5c0 -34.667 -11.667 -63.5 -35 -86.5s-52 -34.5 -86 -34.5zM743.003 1051l-237 -441h452zM388.003 1940
c-6 5.33301 -8.99805 15.6689 -8.99805 31.002c0 20 7.83301 40.333 23.5 61s29.5 31 41.5 31c6.66699 0 15.167 -2.83301 25.5 -8.5s23.166 -15.834 38.499 -30.501l94 -43l264 -107c16.667 -2.66699 29 -8.33398 37 -17.001s12 -23.334 12 -44.001
c0 -27.333 -4.83301 -46.166 -14.5 -56.499s-23.834 -15.5 -42.501 -15.5c-20.667 0 -42 10.333 -64 31c-35.333 12 -84 31 -146 57l-235 99c-10.667 2.66699 -19 6.66699 -25 12zM985.005 1516c-32 -28.667 -92.668 -45.666 -182.001 -50.999
c-86 -2.66699 -161.167 16.333 -225.5 57s-96.5 96 -96.5 166c0 39.333 19.333 59 58 59c46 0 69 -19.667 69 -59c16 -28.667 30.667 -49.5 44 -62.5s32 -23.833 56 -32.5c24 -6 54.333 -8.66699 91 -8c58.667 4 97.334 13.167 116.001 27.5s31 35.166 37 62.499
c0 40 23.333 60 70 60c39.333 0 59 -20 59 -60c0 -70.667 -32 -123.667 -96 -159z" />
    <glyph glyph-name="uni1EB1" unicode="&#x1eb1;" horiz-adv-x="1449" 
d="M1322 25c-52 0 -87.833 6.83398 -107.5 20.501s-29.5 30.5 -29.5 50.5c0 4 0.666992 8.5 2 13.5s2.66602 10.833 3.99902 17.5c2.66699 6.66699 4.66699 13.834 6 21.501s2 13.5 2 17.5l6 18l-41.5 71c-17 29.333 -40.833 68 -71.5 116h-710
c-8 -12.667 -15.167 -23.334 -21.5 -32.001s-12.833 -18.667 -19.5 -30c-6.66699 -10.667 -13.167 -21.834 -19.5 -33.501s-12.833 -24.834 -19.5 -39.501l-25 -56c-10.667 -26 -16 -50.667 -16 -74c0 -20 -12.333 -38.5 -37 -55.5s-53.334 -25.5 -86.001 -25.5
c-49.333 0 -83.833 8.16699 -103.5 24.5s-29.5 38.166 -29.5 65.499c0 17.333 3.83301 37.333 11.5 60s20.834 46.334 39.501 71.001l90 123l232 399c43.333 76.667 86.5 146.667 129.5 210s84.5 121.666 124.5 174.999c4 31.333 20 57 48 77s59 30 93 30
c30 0 56 -8.66699 78 -26s33 -36.666 33 -57.999c0 -40 7.83301 -83.167 23.5 -129.5s37.834 -96.833 66.501 -151.5c12 -23.333 30.333 -55.5 55 -96.5s56.667 -90.167 96 -147.5l78 -108.5l109 -155.5c46 -68 79.333 -122.167 100 -162.5s31 -70.166 31 -89.499
c0 -31.333 -11.667 -57.5 -35 -78.5s-52 -31.5 -86 -31.5zM744 954.001l-237 -399h452zM343.5 1820c-6.33301 5.33301 -9.50098 15.6689 -9.50098 31.002c0 20 7.83301 40.333 23.5 61s29.834 31 42.501 31c6.66699 0 15.167 -2.83301 25.5 -8.5
s22.833 -15.834 37.5 -30.501l95 -43l264 -107c16 -2.66699 28.167 -8.33398 36.5 -17.001s12.5 -23.334 12.5 -44.001c0 -27.333 -4.83301 -46.166 -14.5 -56.499s-23.834 -15.5 -42.501 -15.5c-20.667 0 -42 10.333 -64 31c-35.333 12 -84.166 31 -146.499 57l-234.5 99
c-10.667 2.66699 -19.167 6.66699 -25.5 12zM985.999 1403c-32 -28.667 -92.668 -45.667 -182.001 -51c-86 -2.66699 -161.167 16.333 -225.5 57s-96.5 96 -96.5 166c0 39.333 19.333 59 58 59c46 0 69 -19.667 69 -59c16 -28.667 30.667 -49.5 44 -62.5s32 -23.5 56 -31.5
c24 -6 54.333 -8.66699 91 -8c58.667 4 97.334 13.167 116.001 27.5s31 35.166 37 62.499c0 39.333 23.333 59 70 59c39.333 0 59 -19.667 59 -59c0 -71.333 -32 -124.666 -96 -159.999z" />
    <glyph glyph-name="uni1EB2" unicode="&#x1eb2;" 
d="M1321 29c-50.667 0 -85.8311 7.16797 -105.498 21.501s-30.167 32.833 -31.5 55.5c5.33301 19.333 8.66602 38 9.99902 56c1.33301 6.66699 2.66602 13 3.99902 19s3.33301 12 6 18c-9.33301 21.333 -22.833 48.5 -40.5 81.5s-42.5 76.167 -74.5 129.5h-706l-21.5 -34.5
l-19.5 -31.5l-20.5 -38.5c-7 -13.667 -13.833 -28.834 -20.5 -45.501l-25 -61c-6.66699 -12.667 -11 -25.834 -13 -39.501s-3 -27.167 -3 -40.5c0 -26 -13.667 -48 -41 -66c-20.667 -16 -48 -24 -82 -24c-48 0 -82.167 8.5 -102.5 25.5s-30.5 41.833 -30.5 74.5
c0 39.333 17 86.333 51 141c8 15.333 19.667 33.833 35 55.5l57 80.5l230 436c90 170.667 174.667 312.667 254 426c2.66699 34 18 61.5 46 82.5s59.667 31.5 95 31.5c31.333 0 57.666 -8.83301 78.999 -26.5s32 -39.5 32 -65.5c0 -65.333 16.333 -135.666 49 -210.999
c18.667 -44.667 43.834 -97.5 75.501 -158.5s70.5 -128.833 116.5 -203.5l78 -120l109 -169c46 -74 79.333 -133.833 100 -179.5s31 -78.5 31 -98.5c0 -34.667 -11.667 -63.5 -35 -86.5s-52 -34.5 -86 -34.5zM743.003 1051l-237 -441h452zM985.003 1516
c-32 -28.667 -92.668 -45.666 -182.001 -50.999c-86 -2.66699 -161.167 16.333 -225.5 57s-96.5 96 -96.5 166c0 39.333 19.333 59 58 59c46 0 69 -19.667 69 -59c16 -28.667 30.667 -49.5 44 -62.5s32 -23.833 56 -32.5c24 -6 54.333 -8.66699 91 -8
c58.667 4 97.334 13.167 116.001 27.5s31 35.166 37 62.499c0 40 23.333 60 70 60c39.333 0 59 -20 59 -60c0 -70.667 -32 -123.667 -96 -159zM905.002 1785c-18.667 -6 -31.999 -13.999 -39.999 -23.999c-2.66699 -15.333 -10.334 -24.5 -23.001 -27.5
s-28 -3.83301 -46 -2.5c-22 0.666992 -34.333 8 -37 22s-4 30 -4 48s6.16699 34.167 18.5 48.5s33.166 26.5 62.499 36.5l45 18c16 4.66699 28 12.334 36 23.001s8.33301 22.667 1 36c-12 7.33301 -26 13.666 -42 18.999s-35 8 -57 8c-30 0 -55.667 -1.66699 -77 -5
s-38.666 -10.333 -51.999 -21c-3.33301 -20.667 -9.66602 -34.5 -18.999 -41.5s-22.333 -10.5 -39 -10.5c-18 0 -33.5 5.16699 -46.5 15.5s-19.5 23.166 -19.5 38.499c0 9.33301 0.666992 15.333 2 18c10 40 34.833 70.667 74.5 92s98.5 32 176.5 32
c81.333 0 144.166 -19.667 188.499 -59s60.833 -81 49.5 -125c-1.33301 -44.667 -31 -83 -89 -115l-34 -14z" />
    <glyph glyph-name="uni1EB3" unicode="&#x1eb3;" horiz-adv-x="1449" 
d="M1322 25c-52 0 -87.833 6.83398 -107.5 20.501s-29.5 30.5 -29.5 50.5c0 4 0.666992 8.5 2 13.5s2.66602 10.833 3.99902 17.5c2.66699 6.66699 4.66699 13.834 6 21.501s2 13.5 2 17.5l6 18l-41.5 71c-17 29.333 -40.833 68 -71.5 116h-710
c-8 -12.667 -15.167 -23.334 -21.5 -32.001s-12.833 -18.667 -19.5 -30c-6.66699 -10.667 -13.167 -21.834 -19.5 -33.501s-12.833 -24.834 -19.5 -39.501l-25 -56c-10.667 -26 -16 -50.667 -16 -74c0 -20 -12.333 -38.5 -37 -55.5s-53.334 -25.5 -86.001 -25.5
c-49.333 0 -83.833 8.16699 -103.5 24.5s-29.5 38.166 -29.5 65.499c0 17.333 3.83301 37.333 11.5 60s20.834 46.334 39.501 71.001l90 123l232 399c43.333 76.667 86.5 146.667 129.5 210s84.5 121.666 124.5 174.999c4 31.333 20 57 48 77s59 30 93 30
c30 0 56 -8.66699 78 -26s33 -36.666 33 -57.999c0 -40 7.83301 -83.167 23.5 -129.5s37.834 -96.833 66.501 -151.5c12 -23.333 30.333 -55.5 55 -96.5s56.667 -90.167 96 -147.5l78 -108.5l109 -155.5c46 -68 79.333 -122.167 100 -162.5s31 -70.166 31 -89.499
c0 -31.333 -11.667 -57.5 -35 -78.5s-52 -31.5 -86 -31.5zM744 954.001l-237 -399h452zM869 1655c-18 -6 -31.333 -13.999 -40 -23.999c-2 -15.333 -9.5 -24.5 -22.5 -27.5s-28.5 -3.83301 -46.5 -2.5c-22 0.666992 -34.333 8 -37 22s-4 30 -4 48s6.16699 34.167 18.5 48.5
s33.5 26.5 63.5 36.5l45 18c15.333 4.66699 27.166 12.334 35.499 23.001s8.5 22.667 0.5 36c-11.333 7.33301 -25.166 13.666 -41.499 18.999s-35.5 8 -57.5 8c-30 0 -55.667 -1.66699 -77 -5s-38.333 -10.333 -51 -21c-4 -20.667 -10.5 -34.5 -19.5 -41.5
s-22.167 -10.5 -39.5 -10.5c-18 0 -33.5 5.16699 -46.5 15.5s-19.5 23.166 -19.5 38.499c0 9.33301 0.666992 15.333 2 18c10.667 40 35.667 70.667 75 92s98 32 176 32c82 0 145 -19.667 189 -59s60.333 -81 49 -125c-1.33301 -44.667 -31 -83 -89 -115l-33 -14zM986 1403
c-32 -28.667 -92.668 -45.667 -182.001 -51c-86 -2.66699 -161.167 16.333 -225.5 57s-96.5 96 -96.5 166c0 39.333 19.333 59 58 59c46 0 69 -19.667 69 -59c16 -28.667 30.667 -49.5 44 -62.5s32 -23.5 56 -31.5c24 -6 54.333 -8.66699 91 -8
c58.667 4 97.334 13.167 116.001 27.5s31 35.166 37 62.499c0 39.333 23.333 59 70 59c39.333 0 59 -19.667 59 -59c0 -71.333 -32 -124.666 -96 -159.999z" />
    <glyph glyph-name="uni1EB4" unicode="&#x1eb4;" 
d="M1321 29c-50.667 0 -85.8311 7.16797 -105.498 21.501s-30.167 32.833 -31.5 55.5c5.33301 19.333 8.66602 38 9.99902 56c1.33301 6.66699 2.66602 13 3.99902 19s3.33301 12 6 18c-9.33301 21.333 -22.833 48.5 -40.5 81.5s-42.5 76.167 -74.5 129.5h-706l-21.5 -34.5
l-19.5 -31.5l-20.5 -38.5c-7 -13.667 -13.833 -28.834 -20.5 -45.501l-25 -61c-6.66699 -12.667 -11 -25.834 -13 -39.501s-3 -27.167 -3 -40.5c0 -26 -13.667 -48 -41 -66c-20.667 -16 -48 -24 -82 -24c-48 0 -82.167 8.5 -102.5 25.5s-30.5 41.833 -30.5 74.5
c0 39.333 17 86.333 51 141c8 15.333 19.667 33.833 35 55.5l57 80.5l230 436c90 170.667 174.667 312.667 254 426c2.66699 34 18 61.5 46 82.5s59.667 31.5 95 31.5c31.333 0 57.666 -8.83301 78.999 -26.5s32 -39.5 32 -65.5c0 -65.333 16.333 -135.666 49 -210.999
c18.667 -44.667 43.834 -97.5 75.501 -158.5s70.5 -128.833 116.5 -203.5l78 -120l109 -169c46 -74 79.333 -133.833 100 -179.5s31 -78.5 31 -98.5c0 -34.667 -11.667 -63.5 -35 -86.5s-52 -34.5 -86 -34.5zM743.003 1051l-237 -441h452zM1323 1794l-45.999 -30
c-30 -8 -49.833 -11.833 -59.5 -11.5s-22.5 1.83301 -38.5 4.5c-15.333 4 -32.833 10 -52.5 18s-42.167 24 -67.5 48c-35.333 24.667 -55.833 38.167 -61.5 40.5s-17.167 3.83301 -34.5 4.5c-26.667 -5.33301 -46 -18 -58 -38c-8.66699 -14.667 -19.667 -27.5 -33 -38.5
s-25.333 -16.5 -36 -16.5c-24 -8 -46 -4.83301 -66 9.5s-30 30.5 -30 48.5c0 8 3.5 18 10.5 30s23.167 34 48.5 66c38 43.333 91.667 68.333 161 75c40.667 0 75.334 -9.66699 104.001 -29c40.667 -27.333 68 -46.166 82 -56.499s32 -20.5 54 -30.5
c16.667 -3.33301 31.167 -2.33301 43.5 3s21.833 14 28.5 26c13.333 17.333 25.666 34.666 36.999 51.999s24.333 28.333 39 33c52 0 78.667 -27.667 80 -83c-18 -34 -35.833 -60.667 -53.5 -80s-34.834 -34.333 -51.501 -45zM985.004 1516
c-32 -28.667 -92.668 -45.666 -182.001 -50.999c-86 -2.66699 -161.167 16.333 -225.5 57s-96.5 96 -96.5 166c0 39.333 19.333 59 58 59c46 0 69 -19.667 69 -59c16 -28.667 30.667 -49.5 44 -62.5s32 -23.833 56 -32.5c24 -6 54.333 -8.66699 91 -8
c58.667 4 97.334 13.167 116.001 27.5s31 35.166 37 62.499c0 40 23.333 60 70 60c39.333 0 59 -20 59 -60c0 -70.667 -32 -123.667 -96 -159z" />
    <glyph glyph-name="uni1EB5" unicode="&#x1eb5;" horiz-adv-x="1449" 
d="M1322 25c-52 0 -87.833 6.83398 -107.5 20.501s-29.5 30.5 -29.5 50.5c0 4 0.666992 8.5 2 13.5s2.66602 10.833 3.99902 17.5c2.66699 6.66699 4.66699 13.834 6 21.501s2 13.5 2 17.5l6 18l-41.5 71c-17 29.333 -40.833 68 -71.5 116h-710
c-8 -12.667 -15.167 -23.334 -21.5 -32.001s-12.833 -18.667 -19.5 -30c-6.66699 -10.667 -13.167 -21.834 -19.5 -33.501s-12.833 -24.834 -19.5 -39.501l-25 -56c-10.667 -26 -16 -50.667 -16 -74c0 -20 -12.333 -38.5 -37 -55.5s-53.334 -25.5 -86.001 -25.5
c-49.333 0 -83.833 8.16699 -103.5 24.5s-29.5 38.166 -29.5 65.499c0 17.333 3.83301 37.333 11.5 60s20.834 46.334 39.501 71.001l90 123l232 399c43.333 76.667 86.5 146.667 129.5 210s84.5 121.666 124.5 174.999c4 31.333 20 57 48 77s59 30 93 30
c30 0 56 -8.66699 78 -26s33 -36.666 33 -57.999c0 -40 7.83301 -83.167 23.5 -129.5s37.834 -96.833 66.501 -151.5c12 -23.333 30.333 -55.5 55 -96.5s56.667 -90.167 96 -147.5l78 -108.5l109 -155.5c46 -68 79.333 -122.167 100 -162.5s31 -70.166 31 -89.499
c0 -31.333 -11.667 -57.5 -35 -78.5s-52 -31.5 -86 -31.5zM744 954.001l-237 -399h452zM1265 1715l-46 -30c-30 -8 -49.833 -11.833 -59.5 -11.5s-22.5 1.83301 -38.5 4.5c-15.333 4 -32.833 10 -52.5 18s-42.167 24 -67.5 48c-35.333 24.667 -55.666 38.167 -60.999 40.5
s-17 3.83301 -35 4.5c-26.667 -5.33301 -46 -18 -58 -38c-8.66699 -14.667 -19.667 -27.5 -33 -38.5s-25.333 -16.5 -36 -16.5c-24 -8 -46 -4.83301 -66 9.5s-30 30.5 -30 48.5c0 8 3.66699 18 11 30s23.333 34 48 66c38 43.333 91.667 68.333 161 75
c41.333 0 76 -9.66699 104 -29c41.333 -27.333 68.833 -46.166 82.5 -56.499s31.834 -20.5 54.501 -30.5c16.667 -3.33301 31 -2.33301 43 3s21.333 14 28 26c13.333 17.333 25.666 34.666 36.999 51.999s24.333 28.333 39 33c52 0 78.667 -27.667 80 -83
c-18 -34 -35.833 -60.667 -53.5 -80s-34.834 -34.333 -51.501 -45zM986 1403c-32 -28.667 -92.668 -45.667 -182.001 -51c-86 -2.66699 -161.167 16.333 -225.5 57s-96.5 96 -96.5 166c0 39.333 19.333 59 58 59c46 0 69 -19.667 69 -59c16 -28.667 30.667 -49.5 44 -62.5
s32 -23.5 56 -31.5c24 -6 54.333 -8.66699 91 -8c58.667 4 97.334 13.167 116.001 27.5s31 35.166 37 62.499c0 39.333 23.333 59 70 59c39.333 0 59 -19.667 59 -59c0 -71.333 -32 -124.666 -96 -159.999z" />
    <glyph glyph-name="uni1EB6" unicode="&#x1eb6;" 
d="M1321 29c-50.667 0 -85.8311 7.16797 -105.498 21.501s-30.167 32.833 -31.5 55.5c5.33301 19.333 8.66602 38 9.99902 56c1.33301 6.66699 2.66602 13 3.99902 19s3.33301 12 6 18c-9.33301 21.333 -22.833 48.5 -40.5 81.5s-42.5 76.167 -74.5 129.5h-706l-21.5 -34.5
l-19.5 -31.5l-20.5 -38.5c-7 -13.667 -13.833 -28.834 -20.5 -45.501l-25 -61c-6.66699 -12.667 -11 -25.834 -13 -39.501s-3 -27.167 -3 -40.5c0 -26 -13.667 -48 -41 -66c-20.667 -16 -48 -24 -82 -24c-48 0 -82.167 8.5 -102.5 25.5s-30.5 41.833 -30.5 74.5
c0 39.333 17 86.333 51 141c8 15.333 19.667 33.833 35 55.5l57 80.5l230 436c90 170.667 174.667 312.667 254 426c2.66699 34 18 61.5 46 82.5s59.667 31.5 95 31.5c31.333 0 57.666 -8.83301 78.999 -26.5s32 -39.5 32 -65.5c0 -65.333 16.333 -135.666 49 -210.999
c18.667 -44.667 43.834 -97.5 75.501 -158.5s70.5 -128.833 116.5 -203.5l78 -120l109 -169c46 -74 79.333 -133.833 100 -179.5s31 -78.5 31 -98.5c0 -34.667 -11.667 -63.5 -35 -86.5s-52 -34.5 -86 -34.5zM743.003 1051l-237 -441h452zM822.003 -306.999
c-39.333 -23.333 -82.334 -35 -129.001 -35c-39.333 0 -71 8.5 -95 25.5s-36 40.5 -36 70.5v13c9.33301 35.333 26.333 61.833 51 79.5s59.667 26.5 105 26.5c40.667 0 77.334 -7.66699 110.001 -23c37.333 -14.667 56 -37 56 -67c0 -36.667 -20.667 -66.667 -62 -90z
M985.002 1516c-32 -28.667 -92.668 -45.666 -182.001 -50.999c-86 -2.66699 -161.167 16.333 -225.5 57s-96.5 96 -96.5 166c0 39.333 19.333 59 58 59c46 0 69 -19.667 69 -59c16 -28.667 30.667 -49.5 44 -62.5s32 -23.833 56 -32.5c24 -6 54.333 -8.66699 91 -8
c58.667 4 97.334 13.167 116.001 27.5s31 35.166 37 62.499c0 40 23.333 60 70 60c39.333 0 59 -20 59 -60c0 -70.667 -32 -123.667 -96 -159z" />
    </font>
</defs>
</svg>
